<?xml version="1.0" encoding="utf-8"?>
<!-- Generator: Adobe Illustrator 19.2.0, SVG Export Plug-In . SVG Version: 6.00 Build 0)  -->
<svg version="1.1"
	 id="svg5456" inkscape:version="0.92.4 (5da689c313, 2019-01-14)" sodipodi:docname="leaf-translucent.svg" xmlns:cc="http://creativecommons.org/ns#" xmlns:dc="http://purl.org/dc/elements/1.1/" xmlns:inkscape="http://www.inkscape.org/namespaces/inkscape" xmlns:rdf="http://www.w3.org/1999/02/22-rdf-syntax-ns#" xmlns:sodipodi="http://sodipodi.sourceforge.net/DTD/sodipodi-0.dtd" xmlns:svg="http://www.w3.org/2000/svg"
	 xmlns="http://www.w3.org/2000/svg" xmlns:xlink="http://www.w3.org/1999/xlink" x="0px" y="0px" viewBox="0 0 262 259.7"
	 style="enable-background:new 0 0 262 259.7;" xml:space="preserve">
<style type="text/css">
	.st0{opacity:0.5;}
	.st1{fill:#45B549;}
	.st2{fill:#009549;}
</style>
<g id="g5516" transform="matrix(0.26458333,0,0,0.26458333,50.626078,89.845854)" class="st0">
	<path id="path5458" inkscape:connector-curvature="0" class="st1" d="M279.7-88.9C600.3-124.2,704.5-327,704.9-327
		c5.3-10.1,17.7-14,27.8-8.8c5.1,2.7,8.9,7.3,10.4,12.9c106.6,361.5,48.4,610.7-73.9,758.6c-47.4,57.6-108,102.9-176.8,131.9
		c-63.3,26.9-132.1,38.5-200.7,34c-131.4-9.2-251.4-79.4-307-205.1c-14.3-32.1-23.5-66.3-27.3-101.3c-7.8-70.1,5.9-140.8,39.2-203
		C32.3,25.9,89.3-26.5,158.4-56.6C196.9-73.6,237.8-84.5,279.7-88.9L279.7-88.9z"/>
	<path id="path5460" inkscape:connector-curvature="0" sodipodi:nodetypes="sccccsccccccccccccccccs" class="st2" d="M723.7-339.6
		c-11.4-0.3-20.9,8.7-21.1,20.1c-0.1,0.9-15.3,204.2-208.2,420.8L482-25c0-0.5-0.1-0.9-0.1-1.4c-1.5-11.3-11.9-19.2-23.2-17.7
		c-11.3,1.5-19.2,11.9-17.7,23.2l16.4,162.7c-62.5,62.7-131.9,118.3-206.7,165.7l-2.6,1.7C104.6,400.6-91.6,463.4-189.2,610.2
		c-3.8,7.2-3.6,19.5,8.3,27c11.8,6.9,24.8,5.5,29.4-0.3c94.8-133.8,289.2-209.4,416-289.7l181.4,34c10.3,1,19.7-5.7,22.1-15.7
		c2.7-11.1-4.1-22.2-15.2-24.9l-139-25.9C378,270.5,437.7,220.1,492,164.4l2.2-2.3c231.4-239.9,249.4-477,249.4-478
		c0.1-0.8,0.2-1.7,0.2-2.5C744.1-329.8,735.1-339.3,723.7-339.6z"/>
</g>
</svg>
