<?xml version="1.0" encoding="utf-8"?>
<!-- Generator: Adobe Illustrator 13.0.0, SVG Export Plug-In . SVG Version: 6.00 Build 14948)  -->
<!DOCTYPE svg PUBLIC "-//W3C//DTD SVG 1.1//EN" "http://www.w3.org/Graphics/SVG/1.1/DTD/svg11.dtd">
<svg version="1.1" id="Layer_1" xmlns="http://www.w3.org/2000/svg" xmlns:xlink="http://www.w3.org/1999/xlink" x="0px" y="0px"
	 width="184.645px" height="64.018px" viewBox="0 0 184.645 64.018" enable-background="new 0 0 184.645 64.018"
	 xml:space="preserve">
<g transform="translate(-115.434 -84.173)">
	<g transform="translate(115.434 84.496)">
		<g transform="translate(0 0)">
			<path fill="#FFFFFF" d="M72.232,4.638c-1.547,0-3.184,1.411-4.91,4.233c-2.514,3.746-4.591,7.767-6.194,11.982
				c-0.405,0.946-1.479,1.772-3.221,2.479c-1.757,0.6-2.635,1.313-2.635,2.14c0.421,0.556,0.759,0.833,1.014,0.833h0.18
				c0.946-0.093,1.875-0.321,2.756-0.679c-0.091,0.5-0.183,0.988-0.276,1.445c-0.172,0.033-0.334,0.063-0.542,0.111
				c-3.289,3.153-6.292,4.729-9.009,4.729c-2.633,0.136-5.046-1.464-5.946-3.941c-0.304-1.718-0.702-3.417-1.194-5.09
				c-0.616-1.49-2.105-2.429-3.716-2.343l-1.216-0.045c-2.608,0.031-5.104,1.072-6.96,2.905c-1.149,1.181-2.112,2.529-2.856,4
				c-0.19,0.093-0.372,0.201-0.545,0.325c-2.399,2.492-4.014,4.076-4.842,4.752c-5.751,4.066-10.375,6.1-13.874,6.1
				c-0.71-0.017-1.415-0.13-2.095-0.338c-2.267-0.66-3.4-2.553-3.4-5.676v-0.09c0.093-1.947,0.715-3.832,1.8-5.451
				c3.019-3.858,5.624-5.788,7.816-5.788c0.586-0.03,1.144,0.252,1.464,0.743c0.3,1.427,0.713,2.14,1.239,2.14h0.541
				c0.616-0.362,1.001-1.019,1.014-1.733c0-1.982-1.403-3.191-4.212-3.626c-1.61,0.065-3.168,0.598-4.481,1.531
				C2.643,23.474,0,27.687,0,32.927v0.359c0.009,0.591,0.075,1.18,0.2,1.758c1.333,4.188,3.946,6.283,7.838,6.283
				c3.597-0.132,7.101-1.178,10.18-3.041c2.782-1.354,5.366-3.081,7.681-5.135c0.285-0.258,0.494-0.465,0.749-0.7
				c0.046,0.194,0.084,0.383,0.151,0.591c1.067,2.282,2.621,3.424,4.662,3.424h0.09c2.673,0,5.144-1.524,7.41-4.572
				c0.528-0.883,1.009-1.792,1.441-2.725l0.18,0.112c1.485,3.459,4.956,5.639,8.716,5.474h0.36c0.36,0,0.871-0.03,1.532-0.09
				c2.376-0.563,4.618-1.588,6.6-3.016c-1.313,7.054-1.987,11.939-1.987,14.547v0.271c0.003,0.324,0.033,0.648,0.09,0.968
				c-0.216,0.802-0.337,1.625-0.36,2.455v0.811c0.119,1.552,0.338,3.094,0.653,4.617c1.321,5.586,3.423,8.379,6.306,8.379
				c0.252-0.051,0.509-0.081,0.766-0.09c2.092-0.782,3.78-2.373,4.686-4.415c1.073-3.028,1.732-6.188,1.96-9.392v-0.541
				c0-1.231-0.061-2.815-0.18-4.752l0.016,0.034l-0.106-0.553v-0.631c-0.457-3.117-1.173-6.19-2.14-9.188
				c-0.68-1.099-1.276-2.247-1.784-3.436c0.025,0,0.064-0.011,0.072-0.011c3.648,0.36,6.315,0.541,8,0.541
				c0.542,0.002,1.084-0.027,1.622-0.09c1.191-0.251,2.216-0.5,3.1-0.756c0.248,1.808,0.529,2.737,0.847,2.737
				c1.01,1.638,2.307,3.08,3.829,4.257c1.928,0.818,3.972,1.328,6.059,1.51c1.321-0.12,2.125-0.181,2.41-0.181
				c2.612,0,6.313-1.073,11.1-3.221c1.467-1.073,2.7-2.05,3.75-2.951c0,0.121-0.011,0.239-0.011,0.36v0.36
				c0.008,0.591,0.075,1.179,0.2,1.757c1.333,4.189,3.945,6.283,7.838,6.283c3.597-0.132,7.101-1.178,10.18-3.04
				c1.642-0.836,3.229-1.774,4.751-2.811c-0.042,0.372-0.063,0.746-0.065,1.121v0.45c-0.003,0.469,0.035,0.938,0.112,1.399
				c0.781,2.328,2.192,3.491,4.234,3.491h0.811c2.343,0,4.477-1.156,6.4-3.469c0.721-1.111,1.231-1.667,1.532-1.667
				c0.316,0.008,0.633,0.038,0.945,0.09c5.887-0.019,11.632-1.808,16.487-5.135c2.553-1.652,3.867-2.853,3.942-3.601
				c-0.001-0.572-0.348-1.089-0.878-1.306h-0.315c-0.699,0.061-1.368,0.31-1.937,0.721c-5.661,4.325-10.842,6.487-15.541,6.487
				h-1.352c-0.285,0-0.428-0.09-0.428-0.27c0.228-0.906,0.349-1.836,0.36-2.771c-0.004-0.695-0.142-1.384-0.405-2.027
				c-0.751-1.786-2.335-2.68-4.752-2.68c-1.133,0.045-2.251,0.273-3.312,0.676c-0.078,0.053-0.148,0.105-0.225,0.158h-0.09
				c-0.56,0.029-1.096,0.234-1.532,0.586c-2.4,2.493-4.014,4.077-4.842,4.752c-5.751,4.067-10.376,6.101-13.874,6.101
				c-0.711-0.017-1.415-0.131-2.095-0.338c-2.267-0.661-3.4-2.553-3.4-5.677v-0.09c0.093-1.947,0.715-3.832,1.8-5.451
				c3.019-3.858,5.623-5.788,7.816-5.788c0.585-0.03,1.143,0.253,1.464,0.743c0.3,1.427,0.713,2.141,1.239,2.141h0.541
				c0.616-0.362,1-1.02,1.014-1.734c0-1.982-1.404-3.19-4.212-3.626c-1.611,0.065-3.168,0.598-4.482,1.532
				c-2.803,1.554-5.093,3.889-6.592,6.722c-0.456,0.452-0.839,0.974-1.133,1.544c-5.045,5.075-10.541,7.613-16.487,7.613h-0.811
				c-1.659,0.042-3.302-0.337-4.775-1.101c-1.499-0.991-2.557-2.524-2.95-4.278v-0.09c0.008-0.086,0.059-0.161,0.136-0.2
				c2.368-0.66,4.699-1.45,6.981-2.365c3.153-2.042,4.896-4.024,5.226-5.946c0-1.366-1.104-2.199-3.312-2.5h-0.405
				c-1.071,0.037-2.12,0.322-3.063,0.833c-1.547,0.334-3.611,1.715-6.194,4.145c-0.584,0.886-1.06,1.678-1.443,2.389
				c-1.669,0.86-3.488,1.388-5.358,1.553h-1.8c-6.697-0.495-10.045-1.081-10.045-1.757c0.177-1.408,0.737-2.74,1.622-3.851
				c1.581-1.075,3.093-2.249,4.526-3.515c3.153-3.258,4.73-5.285,4.73-6.08c1.182-1.624,1.783-3.597,1.71-5.604v-0.45
				c0-1.816-0.698-2.725-2.095-2.725L72.232,4.638z M69.747,44.538l0.101,0.508h0.135L69.747,44.538z M71.966,7.7
				c0,0.009,0,0.017,0,0.024c0,2.072-0.931,4.362-2.793,6.87c-1.146,1.549-2.486,2.944-3.988,4.15
				c1.199-2.536,2.578-4.985,4.125-7.326c0.664-1.385,1.564-2.644,2.662-3.719H71.966z M90.183,22.251h0.199
				c0.166,0,0.248,0.053,0.248,0.157c0,0.541-1.141,1.667-3.424,3.378c-1.45,0.77-3.008,1.318-4.62,1.63
				c0.231-0.488,0.545-0.932,0.927-1.313C85.252,24.121,87.596,22.766,90.183,22.251z M39.283,23.197v0.541
				c-0.152,1.079-0.471,2.128-0.946,3.108c-2.207,4.58-4.377,6.87-6.509,6.87h-0.45c-1.271-0.337-2.104-1.553-1.96-2.86
				c0.046-1.062,0.415-2.083,1.06-2.928c1.786-3.2,4.257-4.77,7.41-4.707c0.464,0.073,0.938,0.065,1.399-0.022L39.283,23.197z
				 M139.173,29.143c1.052,0,1.577,0.667,1.577,2c-0.085,0.768-0.228,1.528-0.428,2.275h-0.09c-0.355-0.052-0.693-0.183-0.991-0.384
				c-1.246-0.69-1.869-1.396-1.869-2.116c-0.002-1.063,0.598-1.654,1.798-1.775H139.173z M60.995,30.043
				c0.021,0.011,0.044,0.03,0.065,0.044c-0.045,0-0.067-0.015-0.067-0.043L60.995,30.043z M61.061,30.089
				c1.229,0.719,2.61,2.964,4.146,6.756c0.729,2.36,1.204,4.791,1.419,7.252h-0.021c-0.023,0.325,0.007,0.652,0.09,0.968
				c0.06,1.682,0.09,2.778,0.09,3.288c0,0.495-0.03,1.563-0.09,3.2c-0.083,0.315-0.113,0.643-0.09,0.968
				c0.007,0,0.013-0.01,0.02-0.015c-0.16,1.757-0.537,3.486-1.123,5.15c-1.171,2.134-2.095,3.2-2.77,3.2h-0.338
				c-0.391-0.015-1.074-0.953-2.051-2.814c-0.795-2.194-1.354-4.467-1.667-6.779h0.158c-0.105-0.991-0.158-1.63-0.158-1.914v-0.428
				l0.136-1.667c-0.013,0-0.022,0.012-0.032,0.018c0.126-0.948,0.18-1.904,0.161-2.86c1.095-9.533,1.8-14.308,2.116-14.322H61.061z
				 M134.306,31.342c0.403,1.445,1.326,2.691,2.592,3.5c0.707,0.313,1.392,0.675,2.05,1.081l-0.045,0.27
				c-1.517,2.117-3.025,3.176-4.527,3.176c-0.255,0.016-0.51-0.031-0.743-0.135c-1.008-0.445-1.61-1.494-1.486-2.59
				c0.12-0.991,0.18-1.51,0.18-1.554c0.395-1.158,0.911-2.271,1.541-3.319c0.149-0.144,0.3-0.291,0.439-0.427V31.342z"/>
			<g transform="translate(150.16 7.021) rotate(-14.934)">
				<g transform="translate(0 0)">
					<path fill="#FFFFFF" d="M25.448,0.493c-0.049-0.179-0.171-0.33-0.335-0.416l0,0c-0.325-0.172-0.728-0.048-0.901,0.277l0,0
						c0,0.017-3.372,6.563-13.729,7.7C9.133,8.199,7.812,8.551,6.569,9.1c-2.225,0.967-4.062,2.65-5.22,4.782
						c-1.082,2.004-1.53,4.289-1.284,6.554c0.181,1.648,0.731,3.235,1.611,4.641l0.787,1.082c2.105,2.494,5.15,4.003,8.409,4.168
						c2.215,0.144,4.434-0.232,6.478-1.1c2.218-0.931,4.178-2.386,5.71-4.241C27.008,20.2,28.887,12.162,25.448,0.493z
						 M2.846,24.419L2.846,24.419c-0.254-0.399-0.478-0.818-0.67-1.25c-0.405-0.914-0.667-1.884-0.776-2.876
						C1.173,18.3,1.557,16.286,2.5,14.518c1.021-1.874,2.641-3.353,4.6-4.201c1.12-0.488,2.308-0.799,3.524-0.923
						C17.465,8.652,21.486,5.61,23.561,3.4c-1.22,4.013-3.319,7.702-6.143,10.8l-0.4-4.076c-0.021-0.367-0.335-0.648-0.703-0.628
						c-0.367,0.021-0.648,0.335-0.628,0.703c0,0.018,0,0.036,0.006,0.054l0.518,5.238C12.363,19.288,7.827,22.318,2.846,24.419z
						 M22.03,24.128L22.03,24.128c-1.392,1.694-3.174,3.024-5.194,3.877c-1.857,0.788-3.873,1.129-5.886,0.994
						c-2.8-0.142-5.428-1.396-7.3-3.483c2.195-0.973,4.317-2.102,6.35-3.378l5.846,1.1c0.363,0.057,0.704-0.191,0.761-0.554
						c0.055-0.352-0.174-0.684-0.523-0.757l-4.491-0.849c2.074-1.425,4.004-3.048,5.764-4.845c0.033-0.028,0.062-0.058,0.088-0.092
						c3.475-3.509,6.03-7.822,7.441-12.554C27.158,13.287,25.418,20.03,22.03,24.128z"/>
				</g>
			</g>
		</g>
	</g>
</g>
<text transform="matrix(1 0 0 1 84.8225 57.8118)" fill="#FFFFFF" font-family="'Muli-Light'" font-size="19.2296">partners</text>
</svg>
