<?xml version="1.0" encoding="utf-8"?>
<!-- Generator: Adobe Illustrator 19.2.0, SVG Export Plug-In . SVG Version: 6.00 Build 0)  -->
<svg version="1.1" id="svg" xmlns="http://www.w3.org/2000/svg" xmlns:xlink="http://www.w3.org/1999/xlink" x="0px" y="0px"
	 viewBox="0 0 400 300" style="enable-background:new 0 0 400 300;" xml:space="preserve">
<style type="text/css">
	.st0{fill:#EF5439;}
	.st1{display:none;}
	.st2{display:inline;fill:#C98C75;}
	.st3{display:inline;fill:#122D39;}
	.st4{display:inline;fill:#E4F3EB;}
	.st5{display:inline;fill:#84C4AB;}
	.st6{display:inline;fill:#FBD38C;}
	.st7{opacity:0.1;enable-background:new    ;}
	.st8{fill:#EEEEEE;}
	.st9{fill:none;stroke:#535461;stroke-width:2;stroke-miterlimit:10;}
	.st10{fill:#4AC785;}
	.st11{fill:#40414D;}
	.st12{fill:#DFE6F5;}
	.st13{fill:#FFD77C;stroke:#FFAB50;stroke-miterlimit:10;}
	.st14{fill:#F6C6CD;}
	.st15{fill:url(#SVGID_1_);}
	.st16{fill:#B8616E;}
	.st17{opacity:5.000000e-02;enable-background:new    ;}
	.st18{fill:#F8BDC5;}
	.st19{fill:#758AC8;}
	.st20{fill:#5E52AD;}
	.st21{fill:#916168;}
	.st22{opacity:0.1;fill:#FFFFFF;enable-background:new    ;}
	.st23{fill:url(#SVGID_2_);}
	.st24{fill:#594C76;}
	.st25{fill:#8B9CD1;}
	.st26{fill:#EB6475;}
	.st27{opacity:0.1;}
	.st28{fill:#FFFFFF;}
	.st29{fill:#FFD77C;stroke:#FFAB50;stroke-width:0.25;stroke-miterlimit:10;}
	.st30{font-family:'Muli-BoldItalic';}
	.st31{font-size:40px;}
	.st32{font-family:'Muli-Regular';}
	.st33{font-size:8px;}
</style>
<path class="st0" d="M339.2,235H60.8c-6.6,0-12-5.4-12-12V77c0-6.6,5.4-12,12-12h278.4c6.6,0,12,5.4,12,12v146
	C351.2,229.6,345.8,235,339.2,235z"/>
<g id="svgg" class="st1">
	<path id="path0" class="st2" d="M109,154.1c-0.2,0.2-0.3,0.4-0.3,0.4s-0.3,1.6-0.6,3.4c-0.8,4.3-1.1,6.7-1.2,9.5
		c-0.1,3.3,0.4,3.6,3,1.9c4.2-2.8,11.4-1.4,12.2,2.4l0.2,0.8l0.3-0.7c0.2-0.4,0.2-0.7,0.2-0.8c-0.1-0.1,0.1-0.4,0.2-0.7
		c0.2-0.3,0.3-0.7,0.3-0.9c0-0.6,0.1-1.3,0.3-1.4c0.1-0.1,0.3-0.8,0.6-1.7c0.6-2.1,0.5-2.3-2.1-2.6c-3.4-0.4-6.1-2.3-8.6-6
		C111.2,154.2,109.8,153.2,109,154.1 M103.8,157.7c-1.5,1-1.7,2.8-0.9,6.1c0.3,1.2,0.3,1.8,0.2,1.8c-0.2,0.1-0.1,0.5,0.2,1.3
		c0.6,1.8,0.5,5.7-0.5,9.5c-0.8,3.5-0.7,3.8,1.6,6c2.7,2.5,6.2,3.8,9.4,3.5c3.2-0.3,3.7-1,4.5-7.1c0.2-1.7,1.8-4.2,2.9-4.7
		c0.6-0.2,0.6-0.3,0.2-0.3c-0.8,0-1.1,0.2-2.3,1.9c-3.3,4.8-7.2,5.2-10.9,1.3c-3.4-3.5-4.4-9.6-3-17.1
		C105.6,157.2,105.4,156.7,103.8,157.7 M127.8,183.4c-3.1,0.4-5.1,1-5.5,1.7c-0.1,0.1-0.5,0.5-1,0.8c-0.7,0.5-0.9,0.6-0.9,1.4
		c0,0.5-1,3.5-2.7,8c-3.2,8.4-3.2,8.3-2.5,9.6c0.9,1.9,2.3,2.2,6.9,1.4c1.5-0.2,1.5-0.3,2.8,3.9c0.7,2.1,1.5,4.6,1.7,5.5
		c0.3,0.9,1.3,4.1,2.2,7.1c3.6,12,5.6,14.7,11,14.7c4.7,0,7.1-2.7,7.5-8.7c0.6-9.2,0.6-10.1-0.8-9.6c-0.3,0.1-1.3,0.2-2.1,0.2h-1.5
		l-0.9-1.3c-0.5-0.7-2.1-2.9-3.4-4.8c-1.4-1.9-2.9-4-3.4-4.5c-0.5-0.6-1.1-1.3-1.4-1.8c-0.3-0.4-1.2-1.6-2-2.7
		c-1.7-2.2-1.7-2.1-0.7-3.4c2.3-3.1,3.5-6.9,2.7-9.3c-0.3-0.8-0.2-1,0.4-3c0.8-2.3,0.8-3,0-4.2C133.1,183,132.3,182.8,127.8,183.4
		 M133,184c1.5,1,1.6,2,0.7,4.6c-1.6,4.6-3.8,5.3-6.6,2.1c-0.6-0.7-1.8-2-2.8-3c-1.7-1.8-1.7-1.8-1.4-2.2
		C124,184.2,131.7,183.1,133,184 M111.7,188.1c-6.2,0.9-8.2,2.5-8.8,7.1c-0.1,1-0.3,1.4-1.1,2.2c-0.5,0.5-2.5,2.8-4.5,4.9
		c-2,2.2-4.5,4.9-5.5,6.1c-3.8,4.4-4.4,4.8-7.6,6.4c-3.8,1.9-5.7,2.4-7.7,2.4h-1.7l0.1,1.1c0.2,1.9,0.7,4.3,1.6,7.3
		c0.4,1.6,1,3.6,1.2,4.6c1.6,6.5,7.6,8.7,13.5,5c2.5-1.6,7-10.5,14.3-28.3c2.6-6.5,2.2-5.9,4.1-6.1c5-0.7,5.9-1.9,4.1-5.1
		c-1.9-3.2-1.7-3.6,2.1-5.4C120.2,188.3,118.1,187.2,111.7,188.1 M122.8,190.6l1.8,2l-1.3,1.5c-2.9,3.2-3.3,5.7-1.3,8.5
		c2.1,2.9,1.9,3.2-1.9,3.6c-5.1,0.5-5.7-0.7-3.5-6.7c0.7-1.9,1.8-4.9,2.5-6.7c1.2-3.1,1.6-4.1,1.7-4.1
		C121,188.7,121.8,189.5,122.8,190.6 M97.4,254.7c-0.1,0.1-0.1,0.3-0.1,0.4c0,0.2,0.1,0.2,0.2,0c0.1-0.1,0.4-0.3,0.6-0.4
		c0.4-0.1,0.4-0.1,0-0.1C97.8,254.6,97.5,254.6,97.4,254.7 M91.4,255.6c0.2,0.1,0.6,0.1,0.8,0c0.2-0.1,0-0.1-0.4-0.1
		S91.2,255.5,91.4,255.6"/>
	<path id="path1" class="st3" d="M114.2,136.4c-3.8,0.7-6.1,1.7-7.8,3.5c-0.9,0.9-1.3,1.2-1.9,1.3c-3.1,0.4-5.8,3.8-6.5,8.4
		c-0.6,3.6,0.3,7.4,2.8,12.6c2.1,4.2,2.8,4.8,2.1,1.8c-0.9-4-0.5-5.7,1.4-6.5c1.2-0.5,1.3,0,0.8,2.5c-1.5,7.5-0.4,13.6,3,17.1
		c3.7,3.9,7.6,3.4,10.9-1.3c1.2-1.7,1.5-1.9,2.3-1.9c0.5,0,0.9-0.6,0.9-1.4c0-0.4,0.1-0.5,0.3-0.4c0.2,0.1,0.2,0.1,0.1-0.1
		c-0.1-0.1-0.2-0.2-0.4-0.1s-0.2-0.1-0.2-0.3c0-0.3-0.4-0.9-1-1.4c-2.9-2.8-7.6-3.1-11.1-0.7c-2.6,1.8-3.1,1.5-3-1.9
		c0.1-3.2,1.3-11.4,1.9-13.1c0.6-1.5,2.3-0.3,4.6,3.2c2.5,3.7,5.1,5.6,8.5,6c1.4,0.2,2,0.3,2.3,0.7l0.5,0.5l1-0.5
		c1.9-0.9,3.3-2.5,3.3-3.8c0-1.4,1.3-2.5,3.1-2.7c3.8-0.4,5.4-5.4,2.6-8.3l-1.1-1.1l-1.1,0.2c-3.2,0.7-6.1-1.4-8-5.7
		C122.4,137.7,118.9,135.5,114.2,136.4 M127.6,184c-5.2,0.6-5.7,1.2-3.4,3.6c1,1,2.2,2.3,2.8,3c2.8,3.2,5,2.5,6.6-2.1
		c0.8-2.3,0.8-2.5,0.2-3.5C133,183.5,132.4,183.4,127.6,184 M120.6,189.1c-0.1,0.2-0.8,1.9-1.4,3.7c-0.7,1.8-1.8,4.8-2.5,6.7
		c-2.3,6-1.6,7.2,3.5,6.7c3.8-0.4,4-0.7,1.9-3.6c-2-2.8-1.7-5.2,1.3-8.5l1.3-1.5l-1.8-2C120.8,188.4,120.9,188.5,120.6,189.1"/>
	<path id="path2" class="st4" d="M73.4,88.5c0.1,0.1-0.1,0.1-0.3,0.1c-0.2-0.1-0.4,0-0.4,0.1s-0.4,0.2-1,0.1c-0.6,0-1.4,0.1-2,0.3
		c-0.6,0.2-1.3,0.4-1.6,0.4c-0.3,0-0.6,0-0.6,0.1s-0.7,0.2-1.5,0.2s-1.6,0.2-1.7,0.3s-0.3,0.1-0.4,0.1c-0.1-0.1-0.1,0-0.1,0.1
		c0,0.2-0.2,0.2-0.5,0.1s-0.6,0-0.8,0.2s-0.4,0.3-0.6,0.2c-0.1,0-0.3,0-0.3,0.1s-0.3,0.2-0.7,0.1s-0.7,0-0.7,0.2
		c0,0.1-0.1,0.2-0.2,0.1c-0.1-0.1-0.2,0-0.2,0.1s-0.1,0.2-0.3,0.1s-0.3,0-0.3,0.1s-0.2,0.2-0.4,0.2c-0.6,0-2.8,0.9-3.2,1.2
		c-0.1,0.1-0.4,0.2-0.5,0.1s-0.3,0-0.4,0.2c-0.1,0.2-0.2,0.3-0.3,0.3c-0.4,0-1.3,0.3-1.2,0.5c0.1,0.1-0.2,0.2-0.5,0.2
		s-0.6,0.1-0.7,0.2c0,0.1-0.2,0.2-0.3,0.1s-0.4,0-0.7,0.3c-0.2,0.2-0.5,0.4-0.5,0.4c-0.2-0.1-1.6,0.7-1.5,0.9
		c0.1,0.1-0.1,0.2-0.3,0.2s-0.6,0.1-0.8,0.3c-0.2,0.2-0.5,0.3-0.7,0.3s-0.3,0.1-0.2,0.3c0.1,0.2,0.1,0.2-0.1,0.1
		c-0.2-0.1-1.8,0.8-2.1,1.2c-0.1,0.1-0.2,0.2-0.2,0.1s-0.2,0-0.3,0.2c-0.2,0.2-0.3,0.3-0.2,0.1c0.1-0.2-0.4,0.1-1.1,0.6
		c-0.7,0.5-1.2,1-1.2,1.1s-0.1,0.1-0.2,0.1c-0.1-0.1-0.6,0.3-1.1,0.8s-0.8,0.8-0.7,0.6c0.1-0.2-0.1-0.1-0.6,0.3
		c-0.4,0.3-0.7,0.7-0.7,0.8s-0.1,0.2-0.2,0.2c-0.1,0-0.4,0.2-0.5,0.5s-0.3,0.5-0.3,0.5c-0.2-0.1-1.1,0.3-1.1,0.4s-0.9,1.1-2,2.1
		c-1.1,1.1-2,2.1-2,2.2s-0.2,0.3-0.3,0.4c-0.2,0.1-0.3,0.2-0.2,0.4c0.1,0.2,0.1,0.2,0,0.1c-0.2-0.2-1.2,0.7-1.2,1.1
		c0,0.2-0.1,0.3-0.2,0.3c-0.2,0-1.1,1.2-1.2,1.5c0,0.1-0.2,0.4-0.4,0.7c-0.2,0.2-0.5,0.6-0.7,0.8c-0.7,0.8-1.1,1.5-0.9,1.7
		c0.1,0.1,0.1,0.2,0,0.1c-0.2-0.2-1,0.8-1,1.2c0,0.2-0.2,0.4-0.3,0.5c-0.2,0.1-0.3,0.2-0.2,0.3c0.1,0.1,0,0.3-0.2,0.3
		c-0.2,0.1-0.3,0.2-0.2,0.3c0.1,0.1,0,0.2-0.1,0.2c-0.3,0-1.2,1.7-1,1.9c0.1,0.1-0.1,0.3-0.3,0.5c-0.2,0.2-0.4,0.6-0.4,0.8
		c0,0.2-0.1,0.4-0.3,0.4c-0.3-0.1-0.3,0.1-0.4,0.8c0,0.2-0.1,0.3-0.2,0.2c-0.1-0.1-0.2,0-0.2,0.2s-0.2,0.8-0.5,1.4s-0.5,1.2-0.5,1.4
		c0,0.2-0.1,0.4-0.3,0.4c-0.2,0.1-0.6,1.3-0.5,1.6c0,0.1-0.1,0.2-0.2,0.2s-0.2,0.2-0.1,0.4s0,0.5-0.2,0.7s-0.3,0.4-0.2,0.6
		c0.1,0.2,0,0.3-0.1,0.3s-0.2,0.1-0.1,0.2c0.1,0.1,0,0.3-0.1,0.3c-0.1,0.1-0.2,0.3-0.1,0.5s0,0.5-0.2,0.7s-0.3,0.4-0.2,0.4
		c0.1,0,0,0.3-0.2,0.7s-0.3,0.8-0.2,1c0.1,0.2,0,0.3-0.1,0.2s-0.2,0-0.2,0.3c0,0.2-0.1,0.7-0.2,1s-0.2,0.9-0.2,1.4
		c0,0.4,0,0.7-0.1,0.7c-0.2-0.1-0.2,0.1-0.3,1c0,0.2-0.1,0.5-0.3,0.7c-0.1,0.2-0.2,0.6-0.2,1s-0.1,0.8-0.2,1s-0.2,0.6-0.3,1.1
		c0,0.4-0.2,1.5-0.3,2.4c-0.1,0.9-0.3,2.6-0.3,3.8s-0.1,2.1-0.2,2.1c-0.1,0-0.1,0.2-0.1,0.3c0.1,0.2,0,0.3-0.1,0.2
		c-0.3-0.2-0.3,9.4,0,9.9c0.1,0.2,0.3,1.2,0.3,2.1c0.1,1,0.2,2.6,0.3,3.7c0.1,1.1,0.2,2.3,0.3,2.6c0,0.4,0.1,0.8,0.2,1
		s0.2,0.5,0.2,0.7s0.1,0.4,0.2,0.6c0.1,0.2,0.1,0.3-0.1,0.2c-0.3-0.2-0.3,0-0.1,0.5c0.1,0.2,0.3,0.8,0.4,1.4c0.5,1.8,1.4,4.7,1.6,5
		c0.1,0.2,0.3,0.5,0.3,0.7s0.4,1,0.8,1.8s0.7,1.4,0.7,1.5s0.2,0.4,0.4,0.6c0.2,0.2,0.3,0.4,0.3,0.4c-0.1,0,0.2,0.5,0.5,1.1
		c0.4,0.6,0.9,1.7,1.3,2.3c0.6,1.2,1.8,2.8,2.8,3.8c0.3,0.3,0.4,0.5,0.4,0.6c-0.1,0.1,0.4,0.6,1,1.2c0.6,0.6,1,1.1,1,1.1
		c-0.1,0,1,1.3,2.4,2.6c1.4,1.4,2.3,2.1,2.6,2.1c0.1,0,0.1,0,0.1,0.1c-0.1,0.2,0.7,1,1.6,1.6c0.3,0.2,0.8,0.6,1.2,0.9
		c0.4,0.3,0.6,0.4,0.5,0.2s0.1,0,0.4,0.3c0.3,0.4,0.6,0.6,0.6,0.5s0.2,0.1,0.5,0.4c0.3,0.3,0.7,0.5,0.9,0.5s0.3,0.1,0.3,0.2
		c0,0.1,0.2,0.3,0.5,0.4c0.3,0.1,0.7,0.3,0.9,0.6c0.2,0.2,0.6,0.4,0.7,0.3c0.2-0.1,0.3,0,0.3,0.1s0.1,0.2,0.3,0.2s0.3,0.1,0.3,0.2
		s0.1,0.2,0.2,0.1c0.1-0.1,0.2,0,0.2,0.1s0.2,0.2,0.4,0.2s0.4,0.1,0.4,0.2c0,0.1,0.1,0.2,0.2,0.2c0.1,0,0.5,0.2,1,0.5s0.9,0.5,1,0.4
		s0.3,0,0.5,0.2c0.4,0.4,2.6,1.4,3.5,1.5c0.3,0.1,0.7,0.2,0.8,0.3c0.6,0.4,7,3.5,7.2,3.5c0.1,0,0.3,0.1,0.3,0.3s0.1,0.3,0.2,0.3
		c0.1,0,0.4,0.2,0.7,0.4s0.6,0.4,0.8,0.4s0.3,0.1,0.3,0.2s0.1,0.2,0.2,0.1c0.1-0.1,0.3,0.1,0.3,0.3c0.1,0.2,0.3,0.4,0.4,0.4
		c0.1,0,0.2,0.1,0.2,0.2c0,0.1,0.3,0.6,0.8,0.9c0.5,0.3,0.8,0.7,0.7,0.8s0,0.1,0.2,0.1s0.3,0.1,0.3,0.2c-0.1,0.1,0,0.4,0.2,0.6
		c0.2,0.2,0.3,0.3,0.2,0.1s-0.1-0.3,0.1-0.1c0.1,0.1,0.2,0.3,0.2,0.5s0,0.6,0.1,0.8c0.5,1.3,0.5,1.7,0.6,3.3c0,1.1,0,1.9-0.2,2
		c-0.1,0.1-0.4,0.8-0.6,1.6c-0.2,0.8-0.6,1.5-0.7,1.7c-0.2,0.1-0.3,0.3-0.2,0.3s0,0.2-0.3,0.4s-0.4,0.6-0.4,0.8s-0.1,0.3-0.2,0.3
		c-0.1,0-0.2,0.2-0.2,0.4s-0.1,0.3-0.1,0.2c-0.2-0.2-1.6,1.2-1.5,1.4c0.1,0.1,0,0.2-0.2,0.2s-0.5,0.2-0.8,0.5
		c-0.6,0.5-0.7,0.6-1.1,0.6c-0.1,0-0.2,0.1-0.1,0.3c0.1,0.1,0.1,0.2-0.1,0.1c-0.1-0.1-0.8,0.1-1.5,0.4c-0.7,0.3-1.4,0.6-1.6,0.5
		c-0.2,0-0.2,0-0.1,0.2c0.1,0.2,0.1,0.2,0,0.1c-0.3-0.2-2,0.3-2,0.5c0,0.1-0.1,0.2-0.2,0.2c-0.5-0.1-1.2,0.1-1.4,0.3
		s-0.4,0.3-0.5,0.2c-0.1,0-0.4,0.1-0.5,0.2c-0.2,0.2-0.4,0.3-0.5,0.2c-0.1,0-0.4,0.1-0.6,0.3c-0.2,0.2-0.5,0.3-0.6,0.3
		c-0.6,0-3.6,2.7-3.3,3c0.1,0.1,0,0.2-0.2,0.3s-0.6,0.7-1,1.4c-1.1,2.1-0.9,4.3,0.6,5.9c0.4,0.4,0.7,0.8,0.7,0.9
		c0,0.1,0.1,0.2,0.3,0.2s0.4,0.1,0.5,0.3s0.1,0.2-0.1,0.1c-0.2-0.1-0.2-0.1-0.1,0.1c0.2,0.3,1.4,1,1.8,1c0.1,0,0.2,0.1,0.2,0.2
		c0,0.1,0.2,0.3,0.4,0.5c0.4,0.2,0.4,0.2,0.3,0c-0.1-0.2,0-0.1,0.3,0.1c0.3,0.2,0.6,0.3,0.7,0.3c0.1-0.1,0.2,0,0.3,0.1
		c0,0.1,0.2,0.2,0.4,0.3c0.2,0,0.5,0.2,0.6,0.3c0.3,0.2,0.9,0.4,1.8,0.3c0.2,0,0.2,0,0.2,0.1c-0.1,0.1,1.8,0.9,2.6,1
		c0.2,0,0.6,0.1,0.8,0.2c0.2,0.1,0.8,0.2,1.5,0.2c0.6,0,1,0.1,1,0.2c-0.1,0.1,1,0.3,2.1,0.2c0.1,0,0.2,0.1,0.1,0.2
		c-0.1,0.1,0.1,0.2,0.4,0.1c0.3-0.1,0.6,0,0.7,0.1c0.1,0.1,0.3,0.2,0.5,0.1c0.2-0.1,0.3,0,0.2,0.1c-0.1,0.2,0.2,0.2,1.1,0.2
		c0.7,0,1.2,0,1.1,0.1c-0.1,0.2,3.2,0.6,4,0.5c0.4-0.1,1,0,1.3,0.1c0.8,0.3,18.3,0.5,18.4,0.1c0.1-0.1,0.1-0.1,0.1,0.1
		s0.2,0.2,0.7-0.1c0.4-0.2,0.8-0.3,1.1-0.3c0.4,0,0.4-0.1,0.2-0.5c-0.2-0.4-0.2-2.9-0.2-9.7c0.1-8.1,0-9.2-0.2-9.1
		c-0.2,0-0.9,0.3-1.6,0.5c-4.9,1.8-9.7-1-10.9-6.3c-0.2-0.8-0.6-2.5-1-3.8c-0.3-1.3-0.7-2.5-0.7-2.8c-0.1-0.4-0.5-0.7-1.3-1.2
		c-4.5-2.3-7-7.6-7.3-15c-0.2-6.5-1-7.3-6.2-6.1c-6,1.4-9.3-0.5-10-5.7c-0.5-3.4-1.8-3.8-5.8-1.8c-9.5,4.8-17.2-7-8.7-13.3
		c1.9-1.4,4.2-1.7,7.6-0.9c3.8,1,4.1,0.8,5.9-1.7c1.8-2.6,3.1-3.4,6.2-3.6c1.8-0.1,1.9-0.1,1.8-0.6c-0.3-0.9-0.4-4.3-0.2-7.2
		c0.5-7.9-0.7-9.8-8.1-12.6c-3.5-1.4-5.1-2.3-7-4.3c-10.7-11.3,1.8-28.8,15.7-22.1c3.2,1.5,5.1,3.9,7.7,9.4
		c4.8,10.1,6,11.1,16.6,12.7c10.5,1.6,15.4,8.4,13.5,18.3c-0.7,3.3-0.6,5,0.1,6.7c0.7,1.6,0.6,1.6,4,0.7c2.9-0.7,2.6-0.5,2.9-2.3
		c0.5-3.3,0.2-5.7-0.9-7.5c-2-3.3-3.6-6.8-4.3-9.8c-1.8-7.1,1.3-14.4,6.4-15.3c0.7-0.1,1.1-0.4,1.9-1.2c1.5-1.6,3.3-2.6,6.7-3.3
		c5.8-1.4,9.7,0.7,12.3,6.7c1.7,3.9,3.7,5.4,7.2,5.4h1l1-2.1c0.6-1.1,1-2.3,1-2.5s0.1-0.4,0.2-0.4c0.2,0,0.7-1.5,0.5-1.8
		c-0.1-0.1,0-0.1,0.1-0.1c0.2,0.1,0.2,0,0.1-0.4c-0.1-0.4-0.1-0.6,0.1-0.4c0.3,0.2,0.6-0.8,0.4-1.3c-0.1-0.2,0-0.3,0.1-0.4
		c0.6-0.2,0.9-10.7,0.2-11.3c-0.1-0.1-0.3-0.5-0.3-0.9c0-0.8-0.2-1.3-0.5-1.1c-0.1,0.1-0.2,0-0.1-0.3c0.2-0.6,0-1.1-0.3-1
		c-0.1,0.1-0.2,0-0.1-0.2c0.2-0.4-0.1-1.3-0.4-1.3c-0.1,0-0.2-0.1-0.2-0.1c0-0.1-0.1-0.3-0.2-0.4c-0.1-0.2-0.1-0.3,0.1-0.3
		c0.2,0,0.1-0.2,0-0.5s-0.3-0.5-0.4-0.5c-0.1,0-0.1-0.1-0.1-0.2c0.1-0.1,0-0.2-0.1-0.2s-0.2-0.1-0.1-0.2c0.1-0.1-0.1-0.4-0.3-0.7
		s-0.4-0.5-0.4-0.5c0.1-0.2-0.6-1.3-0.7-1.3c-0.1,0-0.2-0.1-0.1-0.1c0.1-0.1-0.2-0.5-0.5-1c-0.4-0.5-0.6-0.9-0.6-1.1
		c0-0.1-0.2-0.3-0.3-0.4s-0.3-0.3-0.3-0.3c0-0.4-0.3-0.8-0.5-0.7c-0.1,0.1-0.2,0-0.1-0.1c0.2-0.2-0.5-1.1-1.9-2.4
		c-0.4-0.4-0.9-1.1-1.1-1.4c-0.4-0.7-1.8-2.2-2.1-2.1c-0.1,0-0.2,0-0.2-0.1c0-0.3-0.3-0.6-0.6-0.6c-0.1,0-0.2-0.1-0.1-0.2
		c0.1-0.3-1.4-1.7-1.7-1.6c-0.1,0.1-0.2,0-0.1-0.1s-0.1-0.4-0.3-0.6c-0.3-0.3-0.4-0.3-0.3-0.1c0.1,0.2-0.1,0.1-0.4-0.2
		c-1.3-1.2-1.8-1.6-2-1.6c-0.1,0-0.1,0-0.1-0.1c0.1-0.1-0.2-0.5-0.7-0.8c-0.6-0.4-0.7-0.5-0.5-0.2c0.2,0.2,0,0.2-0.3-0.2
		c-1.1-1.1-2.1-1.9-2.3-1.9c-0.1,0-0.4-0.2-0.6-0.4c-0.8-0.7-1.1-0.9-1.2-0.8s-0.1,0-0.1-0.1c0-0.3-1.3-1-1.3-0.8
		c0,0.1-0.2,0-0.3-0.3c-0.2-0.2-0.3-0.3-0.3-0.2c0,0.1-0.2,0-0.3-0.2c-0.2-0.2-0.3-0.3-0.3-0.3s-0.2,0-0.3-0.2
		c-0.2-0.2-0.5-0.3-0.6-0.2c-0.1,0.1-0.2,0-0.1-0.1s0.1-0.3-0.1-0.3c-0.1,0-0.3,0-0.3,0c-0.1,0-0.3-0.2-0.6-0.4
		c-0.2-0.2-0.5-0.4-0.6-0.3s-0.3,0-0.3-0.1c-0.1-0.1-0.2-0.2-0.4-0.1c-0.1,0.1-0.2,0-0.1-0.1c0.2-0.3-3.1-1.8-3.6-1.6
		c-0.1,0-0.2-0.1-0.2-0.2s-0.1-0.2-0.2-0.1s-0.2,0-0.3-0.1c0-0.1-0.3-0.2-0.7-0.2s-0.5-0.1-0.5-0.2c0.1-0.1,0-0.2-0.2-0.2
		s-0.4,0-0.5-0.1c-0.1,0-0.3-0.1-0.5-0.2c-0.5-0.3-2.3-0.8-2.5-0.7c-0.1,0.1-0.2,0-0.2-0.1s-0.2-0.3-0.3-0.3c-0.2-0.1-0.3,0-0.2,0.1
		c0.2,0.3-0.1,0.3-0.5-0.1c-0.2-0.2-0.6-0.4-0.9-0.4s-0.7-0.1-0.9-0.2c-1.3-0.4-2.7-0.7-4.7-1c-0.6-0.1-1.5-0.3-2-0.5
		s-1.4-0.3-2.1-0.3s-1.2,0-1.1-0.1c0.2-0.3-1.6-0.4-7-0.4C75.6,88.3,73.3,88.4,73.4,88.5 M53.4,176.3c-1.2,0.6-1.6,0.9-2.4,2.2
		c-2.1,3.2-2.9,3.4-7,2.4c-3.6-0.9-5.4-0.6-7.5,1.3c-6.5,6,0.5,14.8,8.6,10.7c4.3-2.2,6.6-1.3,7.1,2.8c0.5,4.3,3.6,6.1,8.3,4.9
		c6.1-1.6,7.6-0.3,7.9,6.6c0.2,5.6,0.9,8.2,3.1,11.2c1.2,1.7,3.8,3.8,3.8,3c0-0.1-0.2-1.1-0.4-2.3c-0.8-4-0.9-5-1.2-8.8
		c-0.2-2.7-0.3-4.7-0.2-7.2c0.1-2.3,0.1-3.6-0.1-3.7c-0.1-0.1-0.3-0.8-0.5-1.7c-0.3-1.9-0.3-1.9-2.3-3.3c-7.6-5.6-17.6-9.1-26.1-9.1
		c-2.1,0-2.7-0.2-2.2-0.7c0.4-0.4,5.5-0.3,8.2,0.2c7,1.1,14.1,4.1,20.1,8.3c2.1,1.5,2.1,1.5,2.1-1.7c0-3.1,0-3.1-2-3.6
		c-3.1-0.8-4.8-2.1-6.7-5.6C60.6,176.5,57,174.4,53.4,176.3 M64.3,180.5c0,0.3,0.7,1.7,1.7,3.2c1.1,1.7,6.2,4.2,6.2,3
		c0-1.5-2.4-3.9-5.4-5.4C64.3,180,64.3,180,64.3,180.5 M144.1,192.7c-0.4,0.8-0.4,0.8,0.4,3.7c0.9,3.7,1.5,6.4,1.9,9.6
		c0.1,0.9,0.3,2.3,0.4,3.1c1.2,7.9,1.3,16.2,0.4,22.3c-0.9,6.1-7.6,8.6-12.4,4.8l-0.9-0.7l-0.2,0.5c-0.1,0.3-0.3,1.1-0.3,1.9
		c-0.1,0.8-0.3,2.5-0.6,3.9c-0.7,4.3-0.7,5.5,0,4.7c0.1-0.2,0.4-0.3,0.7-0.2c0.2,0.1,0.5,0,0.7-0.2s0.4-0.3,0.6-0.3
		c0.8-0.1,0.8-0.1,0.5-0.3s-0.3-0.2,0.1-0.2c0.8,0.1,1.2,0,1.1-0.3c-0.1-0.2,0-0.2,0.2-0.1c0.3,0.1,1.5-0.4,1.7-0.8
		c0.1-0.1,0.4-0.2,0.6-0.3c0.5-0.1,3-1.5,3.3-1.9c0.1-0.1,0.4-0.3,0.8-0.4c0.4-0.2,0.6-0.4,0.6-0.5c-0.1-0.1,0-0.2,0.1-0.1
		c0.1,0.1,0.4,0,0.5-0.1c0.2-0.2,0.7-0.5,1.1-0.7c0.4-0.2,0.8-0.5,0.7-0.6s0.1-0.2,0.3-0.2c0.3,0,1.7-0.9,2.1-1.3
		c0.1-0.1,0.5-0.4,0.9-0.6c0.5-0.3,0.8-0.6,0.7-0.7c-0.1-0.1,0-0.2,0.1-0.1c0.1,0.1,0.3,0.1,0.3,0s0.4-0.3,0.7-0.5
		c0.4-0.2,0.6-0.5,0.6-0.6s0-0.2,0.1-0.1c0.1,0.1,0.3,0,0.5-0.2s0.2-0.3,0.1-0.3s0-0.1,0.1-0.3c0.2-0.2,0.4-0.3,0.4-0.2
		s0.2,0,0.2-0.1s0.1-0.2,0.2-0.2c0.2,0.1,2.9-2.6,2.9-2.9c0-0.1,0.1-0.2,0.2-0.2c0.1,0,0.2-0.1,0.1-0.2c-0.1-0.1,0.2-0.3,0.5-0.6
		c0.4-0.2,0.6-0.5,0.6-0.7s0.1-0.3,0.2-0.3c0.1,0,0.2-0.1,0.2-0.2c-0.1-0.3,0.3-0.9,0.5-0.8c0.1,0.1,0.2,0,0.2-0.2s0.1-0.4,0.3-0.4
		c0.2-0.1,0.3-0.3,0.3-0.6s0.1-0.4,0.2-0.3c0.2,0.1,0.5-0.3,0.6-0.9c0-0.2,0.3-0.5,0.6-0.8s0.5-0.6,0.5-0.7c0-0.1,0.2-0.5,0.4-0.9
		s0.3-0.7,0.2-0.8s0-0.1,0.1-0.1s0.2-0.2,0.1-0.4c-0.1-0.3-0.1-0.3,0.1-0.2c0.2,0.1,0.2,0.1,0.2-0.1c-0.1-0.2,0-0.6,0.2-0.9
		c0.2-0.3,0.3-0.8,0.3-1.1s0.1-0.6,0.2-0.6c0.1,0,0.2-0.3,0.4-0.7s0.2-0.6,0-0.5c-0.1,0.1,0-0.1,0.2-0.5c0.5-0.8,0.6-7.6,0.1-8.7
		c-0.2-0.4-0.3-0.8-0.4-1.1c0-0.2-0.2-0.7-0.4-0.9c-0.2-0.3-0.3-0.6-0.2-0.7c0.1-0.1,0-0.3-0.2-0.3c-0.2-0.1-0.3-0.2-0.2-0.3
		s-0.1-0.4-0.3-0.6c-0.2-0.2-0.4-0.5-0.5-0.7c-0.1-0.6-2.4-3.4-2.7-3.4c-0.1,0-0.2-0.1-0.1-0.1c0.1-0.2-0.7-1.1-0.9-0.9
		c-0.1,0.1-0.2,0-0.3-0.1c-0.1-0.2-0.1-0.2,0.1-0.1c0.2,0.1,0-0.1-0.5-0.5c-0.4-0.4-0.9-0.7-1.1-0.8c-0.2-0.1-0.4-0.2-0.4-0.3
		s-0.3-0.4-0.7-0.7s-0.6-0.4-0.5-0.2s0,0.1-0.2-0.2c-0.4-0.5-2.4-1.7-2.9-1.9c-0.2,0-0.4-0.2-0.6-0.4c-0.1-0.2-0.5-0.3-0.8-0.3
		s-0.6-0.1-0.6-0.2c0-0.1-0.1-0.1-0.2,0c-0.1,0.1-0.2,0-0.2-0.1s-0.1-0.2-0.2-0.1c-0.1,0.1-0.2,0-0.2-0.1s-0.1-0.2-0.2-0.1
		c-0.1,0.1-0.2,0-0.2-0.1s-0.1-0.2-0.3-0.2c-0.5,0-0.9-0.2-1.4-0.6c-0.3-0.3-0.7-0.4-1.1-0.3c-0.4,0.1-0.7,0-0.8-0.1
		C144.5,192,144.3,192.2,144.1,192.7 M87.9,200.6c0,0.4,0.7,4.8,0.8,5c0.2,0.5,0.1-1.9-0.2-3.3C88.2,200.9,87.9,199.9,87.9,200.6
		 M133.6,201.8c0.1,0.3,0.2,1.4,0.4,2.5c0.2,1.7,0.6,3.5,0.6,2.8s-0.7-5.5-0.9-5.7C133.5,201.3,133.5,201.4,133.6,201.8 M88.8,206.9
		c0,0.6,0.1,1.2,0.2,1.4c0.3,0.4,0.3-0.4,0-1.6l-0.2-0.9V206.9 M164,213.3c0,0.5-0.1,0.1-0.1-0.8s0-1.3,0.1-0.8
		C164,212.1,164,212.8,164,213.3"/>
	<path id="path3" class="st5" d="M48.3,126.8c-7.1,2.1-11.5,10.4-9.1,17.4c1.6,4.8,4.7,7.7,10.3,9.9c7.4,2.9,8.7,4.8,8.1,12.6
		c-0.2,3-0.1,6.3,0.2,7.2c0.1,0.4,0,0.5-1.8,0.6c-3.1,0.2-4.4,1-6.2,3.6c-1.7,2.6-2.1,2.7-5.9,1.7c-3.3-0.8-5.6-0.6-7.6,0.9
		c-8.5,6.3-0.8,18.1,8.7,13.3c4-2,5.3-1.6,5.8,1.8c0.7,5.2,4.1,7,10,5.7c5.2-1.2,6-0.4,6.2,6.1c0.2,6.3,1.4,9.6,4.7,13
		c1.4,1.5,4.2,3.2,3.7,2.3c-0.1-0.2-0.2-0.6-0.2-0.9c0-0.3-0.1-0.5-0.4-0.5c-0.6,0-2.7-1.8-3.7-3.2c-2.2-3.1-2.9-5.7-3.1-11.2
		c-0.3-6.9-1.8-8.2-7.9-6.6c-4.7,1.2-7.8-0.6-8.3-4.9c-0.5-4-2.8-4.9-7.1-2.8c-8.1,4-15.1-4.8-8.6-10.7c2.1-1.9,3.9-2.2,7.5-1.3
		c4.1,1,4.9,0.8,7-2.4c3.4-5.1,8.9-3.5,12.9,3.7c2,3.5,3.6,4.9,6.7,5.6c2,0.5,2,0.5,2,3.6c0,3.3,0.1,3.2-2.1,1.7
		c-5.9-4.2-13.1-7.2-20.1-8.3c-2.7-0.4-7.8-0.5-8.2-0.2c-0.5,0.5,0.1,0.7,2.2,0.7c8.6,0,18.4,3.4,26.1,9.1c1.9,1.4,1.9,1.3,2.3,3.4
		c0.4,2.2,0.7,2,1.2-0.9c1.2-6.3,2.7-9.3,6.3-12c4-3.1,9.8-6.1,15.2-7.9c1.5-0.5,1.5-0.6,0.8-2.2c-0.7-1.7-0.8-3.4-0.1-6.7
		c2-9.9-3-16.7-13.5-18.3c-10.6-1.6-11.8-2.6-16.6-12.7C61.8,128,55.9,124.5,48.3,126.8 M115.2,135.8c-4.8,0.8-7.1,1.7-9,3.7
		c-0.8,0.9-1.2,1.1-1.9,1.2c-6,1-8.6,10-5.3,18.4c0.8,1.9,3.1,6.4,3.7,7.2l0.5,0.6l-0.2-0.6c-0.1-0.3-0.6-1.3-1-2.1
		c-3.4-6-4.6-10.8-3.9-14.9c0.8-4.5,3.4-7.9,6.5-8.3c0.6-0.1,1.1-0.4,1.9-1.3c1.7-1.8,4.4-3,8.4-3.6c4.3-0.7,7.8,1.7,9.9,6.5
		c1.7,4,4.2,6,7.3,5.9c1.1,0,1.6-0.4,0.5-0.4c-3.6-0.1-5.5-1.5-7.2-5.4C123,137.8,119.2,135.1,115.2,135.8 M66.7,181.3
		c3,1.6,5.4,4,5.4,5.4c0,1.2-5.1-1.2-6.2-3C63.6,179.9,63.7,179.7,66.7,181.3 M163.9,212.5c0,0.9,0,1.3,0.1,0.8c0-0.5,0-1.2,0-1.6
		C163.9,211.2,163.9,211.6,163.9,212.5 M68.7,255.6c0.2,0.1,0.6,0.1,0.8,0c0.2-0.1,0-0.1-0.4-0.1S68.5,255.5,68.7,255.6 M90,255.6
		c0.3,0.1,0.7,0.1,0.9,0c0.2-0.1,0-0.1-0.5-0.1S89.7,255.5,90,255.6 M75.7,256c2.3,0,5.9,0,8.1,0s0.3-0.1-4.1-0.1
		C75.3,256,73.5,256,75.7,256"/>
	<path id="path4" class="st6" d="M103.5,170.2c0,1.3,0,1.8,0.1,1.1c0-0.7,0-1.8,0-2.4C103.5,168.3,103.5,168.9,103.5,170.2
		 M103.2,173.3c-0.1,1.7-0.1,1.7-3.8,2.5c-1.2,0.3-2.5,0.6-2.8,0.8c-0.4,0.2-1.6,0.6-2.8,1.1c-2.7,1-6.9,2.9-7.3,3.4
		c-0.2,0.2-0.5,0.4-0.7,0.4c-1.4,0-8.5,5.6-8.5,6.7c0,0.1-0.2,0.5-0.5,0.8c-0.9,1.1-2,4.1-2.3,6.4c-0.1,0.7-0.3,1.9-0.5,2.7
		c-0.9,4.2-0.6,13,0.7,19.5c0.2,0.9,0.2,0.9,0.2,0.3v-0.7h1.7c2,0,3.9-0.6,7.7-2.4c3.2-1.6,3.8-2,7.6-6.4c1-1.2,3.5-3.9,5.5-6.1
		c2-2.2,4-4.4,4.5-4.9c0.7-0.8,0.9-1.2,1.1-2.2c0.6-4.6,2.6-6.2,8.9-7.1c6.5-0.9,8.4,0.2,4,2.3c-3.8,1.8-4,2.2-2.1,5.4
		c1.8,3.2,0.9,4.4-4.1,5.1c-1.8,0.3-1.4-0.3-4.1,6.1c-5.8,14.1-10.2,23.3-12.7,26.6c-1,1.3-1.8,1.9-3.9,2.7
		c-0.8,0.3-1.3,0.6-1.1,0.6c0.2,0,0.8-0.2,1.3-0.4c1.4-0.6,1.3-1,1.2,9c-0.1,7.6-0.1,9.3,0.2,9.6c0.3,0.4,3.1,0.7,3.4,0.4
		c0.1-0.1,0.6-0.1,1.2-0.1s1.1,0,1.1-0.2c0-0.1,0.2-0.2,0.5-0.2s0.6-0.1,0.6-0.2c0.1-0.2,0.3-0.3,0.6-0.3c0.5,0,0.5,0,0,0.2
		l-0.5,0.2h0.6c0.3,0,0.7-0.1,0.8-0.2c0.2-0.2,0.3-0.2,0.4,0s0.3,0.2,0.5,0c0.2-0.1,0.9-0.2,1.6-0.3c0.7,0,1.4-0.1,1.5-0.2
		c0.2-0.1,0.8-0.2,1.3-0.2s0.9-0.1,0.9-0.2c0-0.1,1.4-0.3,2.6-0.2c0.4,0,0.9-0.2,1.2-0.4c0.3-0.3,0.4-0.3,0.3-0.1
		c-0.2,0.3-0.1,0.3,0.1,0.1c0.2-0.1,0.7-0.2,1.1-0.2s0.8-0.1,0.8-0.2c0-0.1,0.4-0.2,0.7-0.1c0.4,0.1,0.9-0.1,1.2-0.3
		c0.4-0.2,0.6-0.3,0.6-0.1c0.1,0.2,0.3,0.1,0.9-0.1c0.5-0.2,1.1-0.3,1.3-0.3c0.3,0.1,0.5,0,0.5,0s0.3-0.2,0.8-0.4
		c0.5-0.1,0.8-0.2,0.8,0c0,0.1,0.2,0.1,0.5-0.1c0.3-0.2,0.7-0.3,0.9-0.4c1,0,1.3-0.1,1.3-0.3c-0.1-0.1,0-0.2,0.2-0.2
		c0.5,0,0.6-0.1,1-0.3c0.2-0.1,0.3-0.1,0.1,0.1c-0.1,0.2-0.1,0.2,0.3,0c0.2-0.1,0.7-0.3,1-0.3c0.3-0.1,0.7-0.2,0.8-0.4
		c0.1-0.2,0.2-0.2,0.2-0.1c0,0.1,0.2,0.1,0.3-0.1c0.2-0.2,0.4-0.2,0.5-0.1c0.1,0.1,0,0.1-0.2,0.1s-0.2,0.1-0.1,0.1
		c0.1,0.1,0.4,0,0.6-0.3c0.3-0.2,0.4-0.3,0.3-0.1s0,0.2,0.2,0.1c0.2-0.1,0.3-0.2,0.3-0.3s0.2-0.1,0.4-0.1c0.2,0,0.4,0,0.4-0.1
		s0.2-0.2,0.4-0.2c0.2,0,0.7-0.2,1-0.3c0.3-0.2,0.6-0.3,0.8-0.2s0.2,0.1,0.1-0.1c-0.1-0.2-0.1-0.3,0.2-0.2c0.2,0.1,0.4,0,0.5-0.1
		s0.2-0.2,0.3-0.1c0.1,0.1,0.3,0,0.4-0.2s0.3-0.3,0.4-0.3c1-0.1,1.2-0.4,1.3-1.6c0.1-0.7,0.3-2.4,0.5-3.9c0.2-1.4,0.5-3.3,0.6-4
		c0.1-0.8,0.2-1.6,0.3-1.9l0.2-0.5l0.9,0.7c3,2.4,7.3,2.3,10-0.2c1.1-1,2.2-2.8,2.2-3.5c0-0.2-0.2,0.3-0.5,1
		c-1.8,4.5-7.8,5.7-11.9,2.3c-2.3-1.9-3.1-3.6-5.8-12.7c-0.9-3-1.9-6.2-2.2-7.1c-0.3-0.9-1.1-3.4-1.7-5.5c-1.3-4.2-1.3-4.1-2.8-3.9
		c-4.6,0.7-6,0.4-6.9-1.4c-0.7-1.3-0.7-1.2,2.5-9.6c1.7-4.5,2.7-7.5,2.7-8c0-0.7,0.1-0.9,0.9-1.4c0.5-0.3,0.9-0.6,1-0.8
		c1-1.6,10-2.7,11.3-1.4c1.4,1.4,1.5,2.3,0.5,5c-0.7,1.9-0.7,2.1-0.4,2.9c0.8,2.3-0.3,6.2-2.7,9.3c-1,1.3-1,1.2,0.7,3.4
		c0.8,1,1.7,2.2,2,2.7c0.3,0.4,0.9,1.2,1.4,1.8s2,2.6,3.4,4.5s2.9,4.1,3.4,4.8l0.9,1.3h1.5c0.8,0,1.8-0.1,2.1-0.2
		c0.9-0.4,1.2,0,1.3,2c0,1,0.1,0.1,0-1.9c0-3.3-0.3-6-1-10.4c-0.1-0.8-0.3-2.2-0.4-3.1c-0.4-3.2-1-5.9-1.9-9.6
		c-0.7-2.7-0.7-3-0.4-3.5c0.2-0.4,0.3-0.8,0.1-1.3c-0.1-0.4-0.1-0.7,0-0.8s0-0.1-0.1,0c-0.2,0.1-0.3,0-0.3-0.4
		c0-0.3-0.1-0.6-0.2-0.6c-0.1,0-0.2-0.3-0.3-0.5c0-0.2-0.2-0.5-0.4-0.7c-0.2-0.1-0.3-0.3-0.2-0.4c0.1-0.3-0.7-2.1-0.9-1.9
		c-0.1,0.1-0.2,0-0.2-0.1c0.1-0.5-0.1-0.7-0.6-1.3c-0.3-0.3-0.4-0.5-0.2-0.3l0.4,0.3l-0.4-0.5c-0.2-0.3-0.5-0.6-0.6-0.8
		c-0.7-0.9-1-1.2-1.3-1.1c-0.1,0.1-0.2,0.1-0.1,0c0.1-0.1-0.1-0.4-0.3-0.5c-0.3-0.2-0.7-0.5-0.9-0.8s-0.5-0.5-0.7-0.5
		c-0.1,0-0.5-0.2-0.9-0.6c-0.4-0.3-0.8-0.5-0.9-0.5c-0.1,0.1-0.3-0.1-0.4-0.3c-0.1-0.2-0.3-0.4-0.5-0.4s-0.3-0.1-0.3-0.2
		c0-0.1-0.2-0.2-0.4-0.1c-0.3,0.1-0.4,0-0.4-0.2s-0.1-0.3-0.2-0.3c-0.5,0.1-0.9-0.1-0.8-0.2c0.1-0.2-0.5-0.5-1-0.5
		c-0.1,0-0.3-0.2-0.5-0.4s-0.5-0.3-0.6-0.3c-0.1,0.1-0.2,0-0.3-0.1s-0.3-0.2-0.6-0.1c-0.2,0-0.4,0-0.4-0.1s-0.1-0.2-0.3-0.1
		c-0.2,0.1-0.4,0-0.5-0.1c-0.1-0.2,0-0.2,0.2-0.1c0.2,0.1,0.1,0-0.1-0.2c-0.2-0.2-0.6-0.3-0.9-0.3s-0.5-0.1-0.5-0.2
		c0-0.1-0.2-0.3-0.4-0.3c-1-0.1-1.1-0.1-1.1-0.3c0-0.1-0.2-0.1-0.3,0.1c-0.3,0.2-0.3,0.2-0.3,0s-0.1-0.3-0.3-0.2
		c-0.2,0-0.5,0-0.7-0.2s-0.3-0.2-0.3,0c0,0.1-0.1,0.2-0.2,0.1c-0.1-0.1-0.2-0.2-0.1-0.3c0.2-0.3-1.4,0-2,0.3
		c-0.9,0.6-2.3,3.1-2.5,4.5c-0.9,6.1-1.3,6.8-4.5,7.1s-6.7-1.1-9.4-3.5c-2.3-2.1-2.4-2.5-1.6-6c0.4-1.6,0.6-3,0.6-3.3
		C103.2,172.7,103.2,172.7,103.2,173.3 M88.4,202.2c0.3,1.4,0.4,3.9,0.2,3.3c-0.1-0.2-0.8-4.6-0.8-5
		C87.9,199.9,88.2,200.9,88.4,202.2 M134.2,204.3c0.4,2.9,0.4,3.3,0.1,2.5c-0.1-0.3-0.3-1.4-0.4-2.5c-0.1-1.1-0.3-2.2-0.4-2.5
		c-0.1-0.4-0.1-0.5,0.1-0.3C133.8,201.5,134,202.8,134.2,204.3 M89.2,208.1c0,0.4,0,0.5-0.2,0.2c-0.1-0.2-0.2-0.8-0.2-1.4v-1.1
		l0.2,0.9C89.1,207.1,89.2,207.8,89.2,208.1 M147.5,225.4c0,0.6,0,0.8,0.1,0.5s0-0.8,0-1.1C147.6,224.6,147.5,224.8,147.5,225.4
		 M147.3,228.7c0,1.1,0,1.5,0.1,1c0-0.5,0-1.4,0-2C147.4,227.2,147.3,227.6,147.3,228.7 M77.1,228.5c0.1,0.2,0.3,1.1,0.4,1.9
		c0.8,3.6,4.1,6.8,6.8,6.7c0.4,0,0.3-0.1-0.3-0.2c-3.3-0.6-5.5-3-6.3-6.5c-0.2-0.9-0.4-1.8-0.6-2C77,228.1,77,228.2,77.1,228.5
		 M86.4,237c0.2,0.1,0.6,0.1,0.8,0c0.2-0.1,0-0.1-0.4-0.1S86.2,237,86.4,237"/>
</g>
<g id="Layer_2_1_">
	<ellipse class="st7" cx="186.4" cy="229.6" rx="9.7" ry="3.4"/>
	<ellipse class="st7" cx="343.1" cy="243.8" rx="9.7" ry="3.4"/>
	<path class="st8" d="M287.5,122.7c-14.8,5.7-30.8,6-45.6,0.6c-21.1-7.6-48.6-9.5-58.8,25.3c-17.4,59.5,18.2,80.8,18.2,80.8
		s24.8,5.6,38.6,15.6c19.5,14.3,43.5,19.1,66,12.4c14.4-4.3,26.8-11.3,30.3-22.8c9.9-32.2,3.6-51.5,21.5-60s7.9-39.9-4.8-40.6
		c-12.7-0.7-42.7,6.6-51.9-7.9C297.7,120.8,292.6,120.7,287.5,122.7z"/>
	<path class="st9" d="M342.7,244.3c0,0,2.6-8.8-0.5-15.3c-1.3-2.7-1.7-5.8-1.1-8.7c0.3-1.4,0.7-2.8,1.2-4.1"/>
	<path class="st10" d="M340.4,212.1c0,1.1,2,4.2,2,4.2s2-3.1,2-4.2c0-1.1-0.9-2-2-2C341.3,210.2,340.4,211.1,340.4,212.1
		L340.4,212.1z"/>
	<path class="st10" d="M337.2,218.1c0.6,0.9,3.9,2.5,3.9,2.5s-0.1-3.7-0.6-4.6c-0.6-0.9-1.8-1.2-2.7-0.6
		C336.8,216,336.6,217.2,337.2,218.1L337.2,218.1z"/>
	<path class="st10" d="M337.3,228.3c1,0.5,4.6,0.2,4.6,0.2s-1.9-3.2-2.9-3.6c-1-0.5-2.1-0.1-2.6,0.9
		C336,226.7,336.3,227.8,337.3,228.3L337.3,228.3z"/>
	<path class="st10" d="M339.2,236c0.9,0.6,4.5,0.9,4.5,0.9s-1.4-3.4-2.2-4.1c-0.9-0.6-2.1-0.5-2.7,0.4
		C338.1,234.2,338.3,235.4,339.2,236L339.2,236z"/>
	<path class="st10" d="M345.2,220.8c-0.8,0.8-4.4,1.5-4.4,1.5s0.9-3.6,1.7-4.3c0.8-0.8,2-0.7,2.8,0C346,218.8,346,220,345.2,220.8z"
		/>
	<path class="st10" d="M347.2,229.8c-1,0.5-4.6,0.2-4.6,0.2s1.9-3.2,2.9-3.6c1-0.5,2.1-0.1,2.6,0.9
		C348.6,228.2,348.2,229.3,347.2,229.8L347.2,229.8z"/>
	<path class="st10" d="M348,238.9c-0.9,0.6-4.5,0.9-4.5,0.9s1.4-3.4,2.2-4.1c0.9-0.6,2.1-0.5,2.7,0.4
		C349.1,237,348.9,238.2,348,238.9z"/>
	<path class="st9" d="M186.4,229.6c0,0,5.5-18.8-1-32.6c-2.8-5.8-3.7-12.3-2.4-18.6c0.6-3,1.5-5.9,2.6-8.7"/>
	<path class="st10" d="M181.5,160.9c0,2.3,4.2,9,4.2,9s4.2-6.7,4.2-9s-1.9-4.2-4.2-4.2S181.5,158.6,181.5,160.9L181.5,160.9
		L181.5,160.9z"/>
	<path class="st10" d="M174.6,173.7c1.3,1.9,8.4,5.3,8.4,5.3s-0.1-7.9-1.4-9.8c-1.3-1.9-3.9-2.4-5.8-1.1
		C174,169.3,173.5,171.8,174.6,173.7L174.6,173.7z"/>
	<path class="st10" d="M174.9,195.4c2.1,1,9.9,0.3,9.9,0.3s-4.1-6.7-6.1-7.8c-2.1-1-4.6-0.2-5.6,1.8
		C172.1,191.9,172.9,194.4,174.9,195.4L174.9,195.4L174.9,195.4z"/>
	<path class="st10" d="M178.9,211.9c1.9,1.4,9.7,2,9.7,2s-2.9-7.3-4.7-8.7c-1.9-1.4-4.5-1-5.8,0.9S177,210.5,178.9,211.9
		L178.9,211.9z"/>
	<path class="st10" d="M191.8,179.4c-1.7,1.6-9.3,3.3-9.3,3.3s1.9-7.6,3.5-9.2c1.7-1.6,4.3-1.6,5.9,0.1S193.4,177.8,191.8,179.4
		L191.8,179.4L191.8,179.4z"/>
	<path class="st10" d="M196.1,198.7c-2.1,1-9.9,0.3-9.9,0.3s4.1-6.7,6.1-7.8c2.1-1,4.6-0.2,5.6,1.8
		C199,195.1,198.2,197.6,196.1,198.7L196.1,198.7L196.1,198.7z"/>
	<path class="st10" d="M197.8,218c-1.9,1.4-9.7,2-9.7,2s2.9-7.3,4.7-8.7c1.9-1.4,4.5-1,5.8,0.9C200,214,199.7,216.6,197.8,218
		L197.8,218z"/>
	<path class="st10" d="M254.4,183.3l-12-1.6c-0.5-0.1-0.9-0.2-0.8-0.4l0,0c0-0.2,0.4-0.2,0.9-0.2l12,1.7c0.3,0,0.6,0.2,0.6,0.3l0,0
		C255,183.3,254.7,183.3,254.4,183.3z"/>
	<path class="st10" d="M254.4,183.5l-12-1.2c-0.5,0-0.9,0-0.9,0.2l0,0c0,0.2,0.4,0.3,0.9,0.4l12.1,1.1c0.3,0,0.6,0,0.6-0.1l0,0
		C255,183.6,254.8,183.5,254.4,183.5z"/>
	<path class="st10" d="M272.5,192.6l12-1.6c0.5-0.1,0.9-0.2,0.8-0.4l0,0c0-0.2-0.4-0.2-0.9-0.2l-12,1.7c-0.3,0-0.6,0.2-0.6,0.3l0,0
		C271.9,192.5,272.2,192.6,272.5,192.6z"/>
	<path class="st10" d="M272.4,192.8l12-1.2c0.5,0,0.9,0,0.9,0.2l0,0c0,0.2-0.4,0.3-0.9,0.4l-12.1,1.1c-0.3,0-0.6,0-0.6-0.1l0,0
		C271.8,192.9,272.1,192.8,272.4,192.8z"/>
	<rect x="229.9" y="205.5" class="st11" width="2.9" height="42"/>
	<rect x="293.8" y="205.5" class="st11" width="2.9" height="42"/>
	<path class="st12" d="M228.7,202h67.7c2.6,0,4.7,2.1,4.7,4.7v0.6l0,0H224l0,0v-0.6C224,204.2,226.1,202,228.7,202z"/>
	<path class="st7" d="M228.5,202h67.7c2.6,0,4.7,2.1,4.7,4.7v0.6l0,0h-77.1l0,0v-0.6C223.8,204.2,225.9,202,228.5,202z"/>
	<path class="st12" d="M228.7,201.1h67.7c2.6,0,4.7,2.1,4.7,4.7v0.6l0,0H224l0,0v-0.6C224,203.2,226.1,201.1,228.7,201.1z"/>
	<circle class="st13" cx="262.6" cy="191.8" r="5.9"/>
	<circle class="st13" cx="262.6" cy="191.8" r="4.6"/>
	<circle class="st13" cx="262.6" cy="191.8" r="3.5"/>
	<circle class="st13" cx="262.6" cy="191.8" r="2"/>
	<circle class="st13" cx="259.1" cy="195" r="5.9"/>
	<circle class="st13" cx="259.1" cy="195" r="4.6"/>
	<circle class="st13" cx="259.1" cy="195" r="3.5"/>
	<circle class="st13" cx="259.1" cy="195" r="2"/>
	<circle class="st13" cx="266" cy="195" r="5.9"/>
	<circle class="st13" cx="266" cy="195" r="4.6"/>
	<circle class="st13" cx="266" cy="195" r="3.5"/>
	<circle class="st13" cx="266" cy="195" r="2"/>
	<path class="st10" d="M250.4,193.2h24.4l0,0v1.1c0,4.8-3.9,8.6-8.6,8.6H259c-4.8,0-8.6-3.9-8.6-8.6V193.2L250.4,193.2z"/>
	<path class="st7" d="M272.6,193.2c-0.1,5.3-4.5,9.5-9.8,9.5H258c0.7,0.2,1.4,0.2,2.2,0.2h4.9c5.4,0,9.8-4.4,9.8-9.8l0,0h-2.3V193.2
		z"/>
	<rect x="231.8" y="237.4" class="st11" width="63.5" height="2.9"/>
	<rect x="205.4" y="227.2" class="st11" width="2.6" height="23.3"/>
	<rect x="225.7" y="227.2" class="st11" width="2.6" height="23.3"/>
	<path class="st14" d="M230.3,223.4c0,1.6-5.3,2.8-11.8,2.8s-11.5-1.3-11.5-2.8c0-1.6,5-2.8,11.5-2.8S230.3,221.8,230.3,223.4z"/>
	<path class="st11" d="M203.4,223.4h26.9l0,0v2.3c0,1.2-1,2.3-2.3,2.3l0,0h-20.8c-2.1,0-3.9-1.7-3.9-3.9v-0.7H203.4z"/>
	<path class="st11" d="M198.8,196.4l0.6-0.1c0.8-0.2,1.6,0.3,1.8,1.1l6.7,29.8l0,0l-0.8,0.2c-1.5,0.3-2.9-0.6-3.3-2.1l-6.1-27.1
		C197.5,197.4,198,196.6,198.8,196.4L198.8,196.4z"/>
	<rect x="317.6" y="227.6" class="st11" width="2.6" height="23.3"/>
	<rect x="297.3" y="227.6" class="st11" width="2.6" height="23.3"/>
	<path class="st14" d="M295.3,223.8c0,1.6,5.3,2.8,11.8,2.8s11.5-1.3,11.5-2.8s-5-2.8-11.5-2.8S295.3,222.2,295.3,223.8z"/>
	<path class="st11" d="M318.3,228.4h-20.8c-1.2,0-2.3-1-2.3-2.3v-2.3l0,0h26.9l0,0v0.7C322.2,226.7,320.4,228.4,318.3,228.4z"/>
	<path class="st11" d="M318.5,227.8l-0.8-0.2l0,0l6.7-29.8c0.2-0.8,1-1.3,1.8-1.1l0.6,0.1c0.8,0.2,1.3,1,1.1,1.8l-6.1,27.1
		C321.4,227.2,320,228.1,318.5,227.8z"/>
	
		<linearGradient id="SVGID_1_" gradientUnits="userSpaceOnUse" x1="447.4303" y1="3474.1497" x2="447.4303" y2="3382.1436" gradientTransform="matrix(1 0 0 1 -148.11 -3223.4302)">
		<stop  offset="0" style="stop-color:#808080;stop-opacity:0.25"/>
		<stop  offset="0.54" style="stop-color:#808080;stop-opacity:0.12"/>
		<stop  offset="1" style="stop-color:#808080;stop-opacity:0.1"/>
	</linearGradient>
	<path class="st15" d="M319.4,214.7l0.8-0.2c0,0-1.3-8.6-1.3-16.4c0-0.2,0-0.4,0-0.7c0-0.5,0-1,0.1-1.4c0-0.6,0-1.2,0-1.7
		c0.1-7.5-2.9-10.6-2.9-10.6s-3.4-4.9-5.5-5.9c-0.2-0.6-0.4-1.3-0.6-2.1c0.1,0,0.1-0.1,0.2-0.1c0.9-0.6,1.7-1.3,2.4-2
		c1.1-1,2.1-2.2,2-3.6c0-0.1,0-0.3,0-0.4c-0.2-1.6-1.9-2.9-2.6-4.5c-0.6-1.3-0.4-2.8-0.9-4.1s-2.3-2.6-3.6-1.9
		c-0.5,0.3-0.8,0.7-1.2,1.1c-1,0.9-2.7,0.9-4.1,0.5s-1.8-2-3.8-2c0.2,0.1,0.3,0.1,0.5,0.2c-0.2,0-0.3,0-0.5,0c0.8,0.3,1.4,1,1.5,1.8
		c0,0.1,0,0.1,0,0.2c-0.8,0.4-1.8,0.2-2.7,0.2c-0.9,0-2,0.5-1.9,1.2c0,0.1,0,0.2,0,0.3c0.1,0.6,0.9,1,1,1.6l0,0
		c-1.7,0.9-3.6,1.4-5.5,1.6c-0.1,0,0,0.1,0.1,0.2h-0.1c-0.4,0,2.1,2,2.4,2.1c1,0.5,2.3,0.8,3.3,1.2h0.1c-0.4,0.9-0.6,1.8-0.6,2.7
		c0,3.3,2.4,6.1,5.6,6.9c0.6,0.7,1.2,1.5,1.8,2.2l0,0c0,0-3.7,4.9-3.6,12.3c0,0.9,0,1.8,0.1,2.8c-2.4-0.1-7.5-0.8-11.4-3.6
		c-5.3-3.9-11.1-2.7-9.9-0.4s7.5,4.2,8.5,4.4c0.1,0,0.3,0.1,0.6,0.1c-1.2,0.2-2.1,0.6-2,1.2c0.1,1.1,5.5,4.4,8.7,4.6
		c2.1,0.1,4.7,0.8,6.7,1.4c0.2,4.4-0.9,5.8-0.9,5.8s0.3,0.2,0.8,0.5l-0.2,0.6c-1.3,0.8-2.9,1.5-4.4,1.9c-1.9,0.4-3.7,1-5.4,1.8
		l-7.3,3.5c-1.3,0.6-2.2,1.9-2.4,3.3c-0.2,1.5,0.3,3.4,2.7,4.8c0.2,1.2,0.9,2.6,2.8,3.9c3.8,2.5,13.7,10,15,11
		c0,1.8-0.2,5.5-2.5,6.1c-2.8,0.7-0.6,3.4,1.7,3.3c0.5,0.2,1.1,0.2,1.7,0.1c2.4-0.6,11.3-3.7,11.9-8.3c0-0.2,0-0.4,0-0.6
		c0-0.8-0.2-1.6-0.6-2.2c0.1,0.2,0.2,0.4,0.2,0.6c-0.7-1.7-2.5-2.7-3.9-3.3l0,0c-0.2-0.1-0.4-0.2-0.6-0.2c0-0.1,0-0.2,0-0.4l-14-9.6
		c0,0,6.1-5,12.4-4.2s7.3-0.4,7.3-0.4s3.2-3.1,3.5-6.6l0.2-0.1C319.5,215.3,319.4,215.1,319.4,214.7z"/>
	<path class="st16" d="M302.4,239.8c0,0,0.6,6.3-2.3,7s-0.2,3.8,2.1,3.2s10.7-3.6,11.2-8.2c0.6-4.6-5.7-6.1-5.7-6.1L302.4,239.8z"/>
	<path class="st17" d="M302.4,239.8c0,0,0.6,6.3-2.3,7s-0.2,3.8,2.1,3.2s10.7-3.6,11.2-8.2c0.6-4.6-5.7-6.1-5.7-6.1L302.4,239.8z"/>
	<path class="st16" d="M303.5,240c0,0,0.6,6.3-2.3,7s-0.2,3.8,2.1,3.2s10.7-3.6,11.2-8.2c0.6-4.6-5.7-6.1-5.7-6.1L303.5,240z"/>
	<path class="st7" d="M309.4,236.2l-5.3,4c0,0,0,0.3,0,0.7c2-0.6,6.4-2,6.5-4.3C310.2,236.4,309.8,236.3,309.4,236.2z"/>
	<rect x="303.8" y="181.4" class="st18" width="2.3" height="1.7"/>
	<path class="st19" d="M303.9,209.1c0,0-3.6,2.9-6.6,3.5c-1.8,0.4-3.5,1-5.1,1.8l-6.9,3.5c-1.3,0.6-2.1,1.9-2.3,3.3
		c-0.2,1.9,0.6,4.5,5.2,6l14.7,12.2l4.6-3.8l-15.6-12l12-7.4L303.9,209.1z"/>
	<path class="st7" d="M303.9,209.1c0,0-3.6,2.9-6.6,3.5c-1.8,0.4-3.5,1-5.1,1.8l-6.9,3.5c-1.3,0.6-2.1,1.9-2.3,3.3
		c-0.2,1.9,0.6,4.5,5.2,6l14.7,12.2l4.6-3.8l-15.6-12l12-7.4L303.9,209.1z"/>
	<path class="st18" d="M301.8,196.3c0,0-7,0.2-12-3.6s-10.5-2.7-9.3-0.4s7,4.2,8,4.4s14.7,4,14.7,4L301.8,196.3z"/>
	<path class="st17" d="M301.8,196.3c0,0-7,0.2-12-3.6s-10.5-2.7-9.3-0.4s7,4.2,8,4.4s14.7,4,14.7,4L301.8,196.3z"/>
	<path class="st19" d="M302.6,207.4l-2.3,6.9c0,0-12.9,7.9-13.9,9c-0.8,0.8-1.9,4,1.9,6.7s14.3,11.1,14.3,11.1s8-1.7,7.4-5
		l-13.1-9.5c0,0,5.7-5,11.6-4.2s6.9-0.4,6.9-0.4s4.6-4.6,3-9C316.8,208.5,302.6,207.4,302.6,207.4z"/>
	<path class="st18" d="M299.7,176.3c0,0,6.5,7,6.1,9.1s5.1-6.1,5.1-6.1s-1.7-4.2-1.3-8.8L299.7,176.3z"/>
	<path class="st7" d="M305.3,182.8c0.4-0.5,0.9-0.9,1.4-1.3c1-0.8,1.9-1.7,2.7-2.7c1.3-1.7,6.3,5.7,6.3,5.7s3,3.4,2.7,11.6
		s0.5,19.1,0.5,19.1l-1.2,0.3c-2,0.7-4.1,0.3-5.8-0.8c-1.5-1.1-3.4-2.2-4.9-2.3c-2.9-0.2-5.4-1.8-5.4-1.8s1.2-3-0.7-12.5
		s3-16.3,3-16.3S304.2,184,305.3,182.8z"/>
	<path class="st20" d="M319.5,214.4l-1.1,0.4l-0.7,0.2c-2,0.7-4.1,0.4-5.8-0.8c-1.5-1-3.4-2.2-4.9-2.3c-2.9-0.2-6.1-2.3-6.1-2.3
		s1.9-2.5,0-12s3-16.3,3-16.3s0.4,2.1,1.6,0.8c0.4-0.5,0.9-0.9,1.4-1.3c1-0.8,1.9-1.7,2.7-2.7c1.3-1.7,6.3,5.7,6.3,5.7
		s3,3.4,2.7,11.6c0,0.9-0.1,1.7-0.1,2.6C318.3,205.9,319.5,214.4,319.5,214.4z"/>
	<path class="st7" d="M308.6,195.8l0.2,4.2c0,0-10.1,0.6-12.2-1.5s5.7,6.2,7.4,6.7c1.6,0.5,5.8,0.9,8,0.9c1.3,0,2.5-0.7,3-1.8
		c0.3-0.6,0.3-1.2,0.2-1.8c-0.4-2.5,0-7.8,0-7.8L308.6,195.8z"/>
	<path class="st18" d="M308.6,195.4l0.2,4.2c0,0-10.1,0.6-12.2-1.5s-9.7-1.6-9.5,0c0.1,1,5.1,4.4,8.2,4.6c3,0.2,7,1.6,8.8,2.1
		c1.6,0.5,5.8,0.9,8,0.9c1.3,0,2.5-0.7,3-1.8c0.3-0.6,0.3-1.2,0.2-1.8c-0.4-2.5,0-7.8,0-7.8L308.6,195.4z"/>
	<path class="st7" d="M310.9,183.2c0,0-4.4,0.6-3.8,7c0.6,6.5,1.3,7,1.3,7s6.5-0.6,7.2-0.8c0.8-0.2,0.4-7.2,0.4-7.2
		S315.9,183,310.9,183.2z"/>
	<path class="st20" d="M310.9,183c0,0-4.4,0.6-3.8,7c0.6,6.5,1.3,7,1.3,7s6.5-0.6,7.2-0.8c0.8-0.2,0.4-7.2,0.4-7.2
		S315.9,182.8,310.9,183z"/>
	<path class="st7" d="M309.3,174.7c-0.3-1.5,0.3-2,0.5-3.9l-9.9,5.7c0,0,1.1,1.2,2.4,2.8c0.6,0.1,1.2,0.2,1.8,0.2
		C306.7,179.6,308.1,176.8,309.3,174.7z"/>
	<circle class="st18" cx="303.9" cy="172.3" r="7"/>
	<path class="st7" d="M305.7,170.2c-1.1,0.7-1.1,2.2-0.4,3.3s1.9,1.8,3,2.5c0.3,0.2,0.7,0.4,1.1,0.4c0.3-0.1,0.6-0.2,0.8-0.4
		c0.8-0.6,1.6-1.3,2.3-2c1-1,2.1-2.3,1.9-3.7c-0.2-1.6-1.8-2.9-2.4-4.4c-0.5-1.3-0.4-2.7-0.9-4.1c-0.5-1.3-2.2-2.5-3.4-1.9
		c-0.5,0.3-0.7,0.7-1.1,1.1c-1,0.8-2.5,0.9-3.8,0.5s-1.7-2-3.5-2c0.9,0.3,1.5,1.3,1.4,2.1c-0.7,0.4-1.7,0.2-2.6,0.2
		s-1.9,0.5-1.8,1.3c0.1,0.6,1.1,1.1,0.9,1.8c-1.6,0.9-3.4,1.4-5.2,1.6c-0.3,0,2,2,2.2,2.1c1,0.5,2.1,0.8,3.1,1.2
		C300,170.6,302.9,170.9,305.7,170.2z"/>
	<path class="st21" d="M305.7,170c-1.1,0.7-1.1,2.2-0.4,3.3s1.9,1.8,3,2.5c0.3,0.2,0.7,0.4,1.1,0.4c0.3-0.1,0.6-0.2,0.8-0.4
		c0.8-0.6,1.6-1.3,2.3-2c1-1,2.1-2.3,1.9-3.7c-0.2-1.6-1.8-2.9-2.4-4.4c-0.5-1.3-0.4-2.7-0.9-4.1s-2.2-2.5-3.4-1.9
		c-0.5,0.3-0.7,0.7-1.1,1.1c-1,0.8-2.5,0.9-3.8,0.5s-1.7-2-3.5-2c0.9,0.3,1.5,1.3,1.4,2.1c-0.7,0.4-1.7,0.2-2.6,0.2
		s-1.9,0.5-1.8,1.3c0.1,0.6,1.1,1.1,0.9,1.8c-1.6,0.9-3.4,1.4-5.2,1.6c-0.3,0,2,2,2.2,2.1c1,0.5,2.1,0.8,3.1,1.2
		C300,170.4,302.9,170.7,305.7,170z"/>
	<path class="st22" d="M314.1,239.2c0.3,0.7,0.4,1.5,0.3,2.2c-0.6,4.6-9,7.6-11.2,8.2c-1.2,0.3-2.5-0.4-3.1-1.2c0.4,1,1.9,2,3.3,1.6
		c2.3-0.6,10.7-3.6,11.2-8.2C314.7,241,314.5,240,314.1,239.2z"/>
	
		<linearGradient id="SVGID_2_" gradientUnits="userSpaceOnUse" x1="371.0725" y1="3470.739" x2="371.0725" y2="3383.2456" gradientTransform="matrix(1 0 0 1 -148.11 -3223.4302)">
		<stop  offset="0" style="stop-color:#808080;stop-opacity:0.25"/>
		<stop  offset="0.54" style="stop-color:#808080;stop-opacity:0.12"/>
		<stop  offset="1" style="stop-color:#808080;stop-opacity:0.1"/>
	</linearGradient>
	<path class="st23" d="M253.5,244.4L253.5,244.4c-0.2-0.4-1.1-1.1-5.3-1.3c-2.9-0.1-3.9-1.7-4.2-3.2c1-0.1,1.7-0.3,2-0.5
		c0,0,0-0.1,0-0.2l0,0c-0.2-1.1-0.3-2.2-0.3-3.3c0-0.9,0.1-1.9,0.3-2.8c0.1-0.6,0.2-1.2,0.1-1.8c0-3.7-1.3-10.1-1.3-10.1l-0.2-5.4
		c0-1.4-0.8-2.6-2-3.2c-0.4-0.2-0.9-0.3-1.4-0.3c0,0-6.8-1.1-12.8-1.6c-0.4-0.3-2-1.3-5.4-0.7l-2-5.9c0-0.1,0-0.1,0-0.2
		c0.1-0.7,0.6-1.9,2.9-1.9l0.5,0.4c0,0,0.1-0.2,0.2-0.4c2.9,0,18.6-0.2,19.4,0c0.9,0.2,8.7-1.5,8.9-1.7c3-3-8.9-1.5-8.9-1.5
		c-1.2,0.2-5,0-8.9-0.4c1.9-2.9,3.7-12.7,3.7-12.7s6.9-3.5,4.9-5.4c-2-2-8,4.3-8,4.3s-2.5,7.2-3.6,9.3c-0.4,0.9-1,1-1.5,0.9
		c0.2-0.2,0.4-0.3,0.4-0.3s-4.9-3.9-5.3-5.4c-0.1-0.2-0.2-0.5-0.3-0.7c-0.2-1.4-0.6-2.7-1.7-3.6c-0.2-0.2-0.4-0.3-0.6-0.5
		c-0.3-0.2-0.6-0.4-0.8-0.6l0,0c0.1-0.7,0.3-1.4,0.5-2c3.6-0.4,6.5-3.4,6.5-7.1c0-0.6-0.1-1.1-0.2-1.6c1.1,0.1,2.2-0.4,2.8-1.3
		c0.7-1.1,0.7-2.6,0.1-3.7c-0.3-0.5-0.6-0.9-1-1.2c-0.6-0.6-1.4-1.1-2.3-1.4c-0.7-0.3-1.6-0.4-2.1-0.9c-0.3-0.3-0.5-0.7-0.7-1.1
		c-0.2-0.4-0.5-0.7-0.9-1c-1.1-1.1-2.6-1.8-4.1-2.1c-1.9-0.4-3.8-0.2-5.8-0.1c-0.7,0-1.6,0.2-1.9,0.8c-0.2,0.5-0.1,1-0.1,1.6
		c-0.1,1.7-2,2.6-3.7,3s-3.6,0.8-4.4,2.2c-0.7,1.3-0.2,2.9,0,4.4c0.4,2.6-0.2,5.3-1.6,7.5c-0.7,1.1-1.7,2.1-2.2,3.3
		c-0.6,1.3-0.8,2.8-0.4,4.3c0.1,0.4,0.3,0.8,0.2,1.3c-0.1,0.4-0.3,0.7-0.5,0.9c-2,2.5-4.9,4-8.1,4.2c0.1,0.4,0.4,0.8,0.7,1.1
		c0.4,0.4,1,0.8,1.5,1.1c1.5,0.8,3.1,1.3,4.7,1.8c1.1,0.3,2.2,0.5,3.4,0.3s2.2-0.8,2.7-1.8c0.3-0.6,0.3-1.2,0.5-1.8
		c0.5-1.2,1.6-2,2.4-3c-0.3,2.6-0.4,5.3-0.4,7.9c0,0.8,0,1.6,0,2.3c0,3-0.2,5.1-2.1,8.8c-0.2,0.4-0.3,0.8-0.3,1.3
		c-0.1,0.5,0.1,1,0.5,1.3c-0.1,0.7-0.2,1.5-0.2,2.3c0,2.7,0.9,6.4,5.8,7.3l8.7-0.4c0,0,12.3-2.4,15.6-0.6c0.6,0.1,1,0.6,1,1.2
		c0,0.2,0,0.4-0.1,0.5c-0.1,0.6-0.1,1.1-0.1,1.7c0,3.7,0.8,12,0.8,12v3.5c-0.6,0.8-1.2,2.1-1.2,3c0,0,0,0,0,0.1v0.1c0,0,0,0,0,0.1
		c0,0,0,0,0,0.1v0.1c0,0,0,0,0,0.1v0.1l0,0l0.1,0.1c1.1,1.3,6.7,3.8,8.5,3.7c1.9-0.1,8.2,0.2,8.5-2.6
		C253.6,244.6,253.5,244.5,253.5,244.4z"/>
	<path class="st24" d="M237.7,239c0,0-2.6,3.2-1.5,4.5s6.5,3.8,8.2,3.7c1.8-0.1,8,0.2,8.2-2.6c0,0,0.4-1.3-5.2-1.5
		c-5.6-0.2-3.9-6-3.9-6L237.7,239z"/>
	<path class="st7" d="M206.9,211.8c0,0-2.6,8.8,5.2,10.3l8.4-0.4c0,0,11.9-2.4,15.1-0.6c0,0,1.3,0.2,0.9,1.9
		c-0.4,1.7,0.6,13.4,0.6,13.4v3.9c0,0,7.3,0,8.2-0.9c0,0-0.6-3.4,0-6.2s-1.1-11.6-1.1-11.6l-0.2-5.3c0-1.3-0.8-2.6-2-3.2
		c-0.4-0.2-0.9-0.3-1.3-0.3c0,0-14.7-2.4-19.8-1.9C215.7,211.2,206.9,211.8,206.9,211.8z"/>
	<path class="st25" d="M206.9,211.6c0,0-2.6,8.8,5.2,10.3l8.4-0.4c0,0,11.9-2.4,15.1-0.6c0,0,1.3,0.2,0.9,1.9
		c-0.4,1.7,0.6,13.4,0.6,13.4v3.9c0,0,7.3,0,8.2-0.9c0,0-0.6-3.4,0-6.2s-1.1-11.6-1.1-11.6L244,216c0-1.3-0.8-2.6-2-3.2
		c-0.4-0.2-0.9-0.3-1.3-0.3c0,0-14.7-2.4-19.8-1.9C215.7,211,206.9,211.6,206.9,211.6z"/>
	<path class="st18" d="M229.1,194.2c0,0,1.7,2.2,2.8,0s3.4-9.3,3.4-9.3s5.8-6.2,7.8-4.3c1.9,1.9-4.7,5.4-4.7,5.4s-2.4,13.1-4.5,13.4
		s-5.4,0-5.4,0l-1.1-2.4L229.1,194.2z"/>
	<path class="st17" d="M229.1,194.2c0,0,1.7,2.2,2.8,0s3.4-9.3,3.4-9.3s5.8-6.2,7.8-4.3c1.9,1.9-4.7,5.4-4.7,5.4s-2.4,13.1-4.5,13.4
		s-5.4,0-5.4,0l-1.1-2.4L229.1,194.2z"/>
	<path class="st26" d="M221.3,183.4c0,0,3.9,4.5,4.3,6c0.4,1.5,5.2,5.4,5.2,5.4s-3.4,2.6-2.8,3.9c0.6,1.3-4.5-4.3-4.5-4.3l-6-8.8
		L221.3,183.4z"/>
	<path class="st7" d="M221.3,183.4c0,0,3.9,4.5,4.3,6c0.4,1.5,5.2,5.4,5.2,5.4s-3.4,2.6-2.8,3.9c0.6,1.3-4.5-4.3-4.5-4.3l-6-8.8
		L221.3,183.4z"/>
	<path class="st18" d="M223.9,178.2c0,0-1.9,6.2-1.9,8.6c0,2.4-8.2-0.6-8-1.9c0.2-1.3,4.7-6,5-8C219.1,175,223.9,178.2,223.9,178.2z
		"/>
	<path class="st7" d="M217.4,182.5c0,0-7.5-1.9-8.6,9.1s0.9,12.3-2.4,19c-3.2,6.7,22,0.9,22,0.9s-1.3-1.5-5.4-0.9l-1.9-5.8
		c0,0-0.6-2.6,3-2.6s1.9-7.5,1.9-7.5s-1.9-6.5-3-7.1C221.9,186.8,220,183,217.4,182.5z"/>
	<path class="st26" d="M217.4,182.1c0,0-7.5-1.9-8.6,9.1s0.9,12.3-2.4,19c-3.2,6.7,22,0.9,22,0.9s-1.3-1.5-5.4-0.9l-1.9-5.8
		c0,0-0.6-2.6,3-2.6s1.9-7.5,1.9-7.5s-1.9-6.5-3-7.1C221.9,186.4,220,182.5,217.4,182.1z"/>
	<path class="st18" d="M225,197.6c0,0,15.7,1.7,18.3,1.3c0,0,11.6-1.4,8.6,1.5c-0.2,0.2-7.8,1.9-8.6,1.7s-19.2,0-19.2,0l-0.2-2.2
		L225,197.6z"/>
	<path class="st7" d="M212.9,192.2l11.4,10.3c0,0,2.2-4.3,2.8-4.3s-7.8-12.7-7.8-12.7s-2.2-2.6-3.4-1.3
		C214.6,185.5,210.7,184.7,212.9,192.2z"/>
	<path class="st26" d="M212.7,191.8l11.4,10.3c0,0,2.2-4.3,2.8-4.3s-7.8-12.7-7.8-12.7s-2.2-2.6-3.4-1.3
		C214.4,185.1,210.5,184.2,212.7,191.8z"/>
	<circle class="st18" cx="221.9" cy="175" r="7.1"/>
	<path class="st7" d="M228.2,173.2c1.2,0.5,2.7-0.1,3.4-1.2c0.7-1.1,0.7-2.6,0.1-3.7s-1.7-2-2.9-2.4c-0.7-0.3-1.6-0.4-2.1-1
		c-0.4-0.3-0.6-0.8-0.8-1.2c-1-1.6-2.8-2.5-4.6-2.9s-3.7-0.2-5.6-0.1c-0.7,0-1.5,0.2-1.8,0.8c-0.2,0.5-0.1,1-0.1,1.5
		c-0.1,1.7-1.9,2.6-3.5,3s-3.5,0.8-4.3,2.2c-0.7,1.3-0.2,2.9,0,4.4c0.4,2.6-0.2,5.2-1.6,7.4c-0.7,1.1-1.6,2.1-2.2,3.3
		c-0.6,1.3-0.8,2.8-0.4,4.2c0.1,0.4,0.3,0.8,0.2,1.3c-0.1,0.3-0.3,0.7-0.5,0.9c-1.9,2.4-4.8,4-7.9,4.2c0.2,0.9,1.1,1.5,2,1.9
		c1.5,0.7,3,1.3,4.6,1.7c1.1,0.3,2.2,0.5,3.3,0.3s2.1-0.8,2.6-1.8c0.3-0.6,0.3-1.2,0.5-1.8c0.5-1.3,1.9-2.1,2.6-3.4
		c0.7-1.2,1-1.3,1.2-2.7s0.6-2.8,1.7-3.6c1.2-0.8,2.8-0.7,4.1,0c1.3,0.6,2.1,0.4,3.2,1.3c1.9,1.6,4,3,6.3,4.1
		c-0.2-1.9-0.6-4-2.1-5.1c-0.4-0.3-1-0.6-1.2-1.1c-0.4-0.8,0.3-1.7,0-2.6c-0.3-0.8-1.4-1.1-1.8-1.9c-0.4-0.6-0.3-1.5,0.1-2.1
		s1-1.1,1.6-1.6c0.5-0.4,1.1-0.8,1.6-1.2c0.5-0.3,0.9-0.7,1.3-1.1c0.2-0.3,0.4-0.9,0.7-1.2C226.3,171.7,227.5,172.9,228.2,173.2z"/>
	<path class="st21" d="M228,173c1.2,0.5,2.7-0.1,3.4-1.2c0.7-1.1,0.7-2.6,0.1-3.7c-0.6-1.2-1.7-2-2.9-2.4c-0.7-0.3-1.6-0.4-2.1-1
		c-0.4-0.3-0.6-0.8-0.8-1.2c-1-1.6-2.8-2.5-4.6-2.9s-3.7-0.2-5.6-0.1c-0.7,0-1.5,0.2-1.8,0.8c-0.2,0.5-0.1,1-0.1,1.5
		c-0.1,1.7-1.9,2.6-3.5,3s-3.5,0.8-4.3,2.2c-0.7,1.3-0.2,2.9,0,4.4c0.4,2.6-0.2,5.2-1.6,7.4c-0.7,1.1-1.6,2.1-2.2,3.3
		c-0.6,1.3-0.8,2.8-0.4,4.2c0.1,0.4,0.3,0.8,0.2,1.3c-0.1,0.3-0.3,0.7-0.5,0.9c-1.9,2.4-4.8,4-7.9,4.2c0.2,0.9,1.1,1.5,2,1.9
		c1.5,0.7,3,1.3,4.6,1.7c1.1,0.3,2.2,0.5,3.3,0.3s2.1-0.8,2.6-1.8c0.3-0.6,0.3-1.2,0.5-1.8c0.5-1.3,1.9-2.1,2.6-3.4
		c0.7-1.2,1-1.3,1.2-2.7s0.6-2.8,1.7-3.6c1.2-0.8,2.8-0.7,4.1,0c1.3,0.6,2.1,0.4,3.2,1.3c1.9,1.6,4,3,6.3,4.1
		c-0.2-1.9-0.6-4-2.1-5.1c-0.4-0.3-1-0.6-1.2-1.1c-0.4-0.8,0.3-1.7,0-2.6s-1.4-1.1-1.8-1.9c-0.4-0.6-0.3-1.5,0.1-2.1s1-1.1,1.6-1.6
		c0.5-0.4,1.1-0.8,1.6-1.2c0.5-0.3,0.9-0.7,1.3-1.1c0.2-0.3,0.4-0.9,0.7-1.2C226.1,171.4,227.3,172.7,228,173z"/>
	<g class="st27">
		<path class="st28" d="M243.2,238.7c0-0.6,0.1-1.1,0.2-1.7h-0.1C243.3,237.6,243.2,238.2,243.2,238.7z"/>
		<path class="st28" d="M244.4,246.7c-1.7,0.1-7.1-2.4-8.2-3.7c-0.1-0.2-0.2-0.4-0.2-0.6c-0.1,0.4,0,0.7,0.2,1
			c1.1,1.3,6.5,3.8,8.2,3.7c1.8-0.1,8,0.2,8.2-2.6c0-0.1,0-0.2,0-0.2C252,246.9,246.1,246.6,244.4,246.7z"/>
	</g>
	<rect x="252.9" y="182.4" class="st29" width="0.2" height="8.8"/>
	<rect x="253.1" y="182.4" class="st29" width="0.2" height="8.8"/>
	<rect x="253.3" y="182.4" class="st29" width="0.2" height="8.8"/>
	<rect x="253.5" y="182.4" class="st29" width="0.2" height="8.8"/>
	<rect x="253.7" y="182.4" class="st29" width="0.2" height="8.8"/>
	<rect x="253.9" y="182.4" class="st29" width="0.2" height="8.8"/>
	<rect x="254.2" y="182.4" class="st29" width="0.2" height="8.8"/>
</g>
<g id="Layer_2">
	<text transform="matrix(1 0 0 1 177.2784 106.4987)" class="st8 st30 st31">Support.</text>
	<text transform="matrix(1 0 0 1 57.9061 130.2263)" class="st8 st32 st33">Once you’ve chosen a sustainable </text>
	<text transform="matrix(1 0 0 1 57.9061 139.8264)" class="st8 st32 st33">cafe from our list, head down </text>
	<text transform="matrix(1 0 0 1 57.9061 149.4262)" class="st8 st32 st33">there and show some love!</text>
	<text transform="matrix(1 0 0 1 56.4858 185.9362)" class="st8 st32 st33">All purchases made turn into </text>
	<text transform="matrix(1 0 0 1 56.4858 195.5361)" class="st8 st32 st33">credits that can be redeemed </text>
	<text transform="matrix(1 0 0 1 56.4858 205.1362)" class="st8 st32 st33">for rewards</text>
</g>
</svg>
