<?xml version="1.0" encoding="utf-8"?>
<!-- Generator: Adobe Illustrator 19.2.0, SVG Export Plug-In . SVG Version: 6.00 Build 0)  -->
<svg version="1.1" id="svg" xmlns="http://www.w3.org/2000/svg" xmlns:xlink="http://www.w3.org/1999/xlink" x="0px" y="0px"
	 viewBox="0 0 400 300" style="enable-background:new 0 0 400 300;" xml:space="preserve">
<style type="text/css">
	.st0{fill:#4AC785;}
	.st1{fill:#C98C75;}
	.st2{fill:#122D39;}
	.st3{fill:#E4F3EB;}
	.st4{fill:#84C4AB;}
	.st5{fill:#FBD38C;}
	.st6{fill:#EEEEEE;}
	.st7{font-family:'Muli-BoldItalic';}
	.st8{font-size:40px;}
	.st9{fill:#333333;}
	.st10{font-family:'Muli-Regular';}
	.st11{font-size:6px;}
	.st12{font-size:8.5px;}
	.st13{font-size:5.7964px;}
</style>
<path class="st0" d="M339.2,235H60.8c-6.6,0-12-5.4-12-12V77c0-6.6,5.4-12,12-12h278.4c6.6,0,12,5.4,12,12V223
	C351.2,229.6,345.8,235,339.2,235z"/>
<g id="svgg">
	<path id="path0" class="st1" d="M109,154.1c-0.2,0.2-0.3,0.4-0.3,0.4c0,0-0.3,1.6-0.6,3.4c-0.8,4.3-1.1,6.7-1.2,9.5
		c-0.1,3.3,0.4,3.6,3,1.9c4.2-2.8,11.4-1.4,12.2,2.4l0.2,0.8l0.3-0.7c0.2-0.4,0.2-0.7,0.2-0.8c-0.1-0.1,0.1-0.4,0.2-0.7
		c0.2-0.3,0.3-0.7,0.3-0.9c0-0.6,0.1-1.3,0.3-1.4c0.1-0.1,0.3-0.8,0.6-1.7c0.6-2.1,0.5-2.3-2.1-2.6c-3.4-0.4-6.1-2.3-8.6-6
		C111.2,154.2,109.8,153.2,109,154.1 M103.8,157.7c-1.5,1-1.7,2.8-0.9,6.1c0.3,1.2,0.3,1.8,0.2,1.8c-0.2,0.1-0.1,0.5,0.2,1.3
		c0.6,1.8,0.5,5.7-0.5,9.5c-0.8,3.5-0.7,3.8,1.6,6c2.7,2.5,6.2,3.8,9.4,3.5c3.2-0.3,3.7-1,4.5-7.1c0.2-1.7,1.8-4.2,2.9-4.7
		c0.6-0.2,0.6-0.3,0.2-0.3c-0.8,0-1.1,0.2-2.3,1.9c-3.3,4.8-7.2,5.2-10.9,1.3c-3.4-3.5-4.4-9.6-3-17.1
		C105.6,157.2,105.4,156.7,103.8,157.7 M127.8,183.4c-3.1,0.4-5.1,1-5.5,1.7c-0.1,0.1-0.5,0.5-1,0.8c-0.7,0.5-0.9,0.6-0.9,1.4
		c0,0.5-1,3.5-2.7,8c-3.2,8.4-3.2,8.3-2.5,9.6c0.9,1.9,2.3,2.2,6.9,1.4c1.5-0.2,1.5-0.3,2.8,3.9c0.7,2.1,1.5,4.6,1.7,5.5
		c0.3,0.9,1.3,4.1,2.2,7.1c3.6,12,5.6,14.7,11,14.7c4.7,0,7.1-2.7,7.5-8.7c0.6-9.2,0.6-10.1-0.8-9.6c-0.3,0.1-1.3,0.2-2.1,0.2h-1.5
		l-0.9-1.3c-0.5-0.7-2.1-2.9-3.4-4.8c-1.4-1.9-2.9-4-3.4-4.5c-0.5-0.6-1.1-1.3-1.4-1.8c-0.3-0.4-1.2-1.6-2-2.7
		c-1.7-2.2-1.7-2.1-0.7-3.4c2.3-3.1,3.5-6.9,2.7-9.3c-0.3-0.8-0.2-1,0.4-3c0.8-2.3,0.8-3,0-4.2C133.1,183,132.3,182.8,127.8,183.4
		 M133,184c1.5,1,1.6,2,0.7,4.6c-1.6,4.6-3.8,5.3-6.6,2.1c-0.6-0.7-1.8-2-2.8-3c-1.7-1.8-1.7-1.8-1.4-2.2
		C124,184.2,131.7,183.1,133,184 M111.7,188.1c-6.2,0.9-8.2,2.5-8.8,7.1c-0.1,1-0.3,1.4-1.1,2.2c-0.5,0.5-2.5,2.8-4.5,4.9
		c-2,2.2-4.5,4.9-5.5,6.1c-3.8,4.4-4.4,4.8-7.6,6.4c-3.8,1.9-5.7,2.4-7.7,2.4h-1.7l0.1,1.1c0.2,1.9,0.7,4.3,1.6,7.3
		c0.4,1.6,1,3.6,1.2,4.6c1.6,6.5,7.6,8.7,13.5,5c2.5-1.6,7-10.5,14.3-28.3c2.6-6.5,2.2-5.9,4.1-6.1c5-0.7,5.9-1.9,4.1-5.1
		c-1.9-3.2-1.7-3.6,2.1-5.4C120.2,188.3,118.1,187.2,111.7,188.1 M122.8,190.6l1.8,2l-1.3,1.5c-2.9,3.2-3.3,5.7-1.3,8.5
		c2.1,2.9,1.9,3.2-1.9,3.6c-5.1,0.5-5.7-0.7-3.5-6.7c0.7-1.9,1.8-4.9,2.5-6.7c1.2-3.1,1.6-4.1,1.7-4.1
		C121,188.7,121.8,189.5,122.8,190.6 M97.4,254.7c-0.1,0.1-0.1,0.3-0.1,0.4c0,0.2,0.1,0.2,0.2,0c0.1-0.1,0.4-0.3,0.6-0.4
		c0.4-0.1,0.4-0.1,0-0.1C97.8,254.6,97.5,254.6,97.4,254.7 M91.4,255.6c0.2,0.1,0.6,0.1,0.8,0c0.2-0.1,0-0.1-0.4-0.1
		C91.4,255.5,91.2,255.5,91.4,255.6"/>
	<path id="path1" class="st2" d="M114.2,136.4c-3.8,0.7-6.1,1.7-7.8,3.5c-0.9,0.9-1.3,1.2-1.9,1.3c-3.1,0.4-5.8,3.8-6.5,8.4
		c-0.6,3.6,0.3,7.4,2.8,12.6c2.1,4.2,2.8,4.8,2.1,1.8c-0.9-4-0.5-5.7,1.4-6.5c1.2-0.5,1.3,0,0.8,2.5c-1.5,7.5-0.4,13.6,3,17.1
		c3.7,3.9,7.6,3.4,10.9-1.3c1.2-1.7,1.5-1.9,2.3-1.9c0.5,0,0.9-0.6,0.9-1.4c0-0.4,0.1-0.5,0.3-0.4c0.2,0.1,0.2,0.1,0.1-0.1
		c-0.1-0.1-0.2-0.2-0.4-0.1s-0.2-0.1-0.2-0.3c0-0.3-0.4-0.9-1-1.4c-2.9-2.8-7.6-3.1-11.1-0.7c-2.6,1.8-3.1,1.5-3-1.9
		c0.1-3.2,1.3-11.4,1.9-13.1c0.6-1.5,2.3-0.3,4.6,3.2c2.5,3.7,5.1,5.6,8.5,6c1.4,0.2,2,0.3,2.3,0.7l0.5,0.5l1-0.5
		c1.9-0.9,3.3-2.5,3.3-3.8c0-1.4,1.3-2.5,3.1-2.7c3.8-0.4,5.4-5.4,2.6-8.3l-1.1-1.1l-1.1,0.2c-3.2,0.7-6.1-1.4-8-5.7
		C122.4,137.7,118.9,135.5,114.2,136.4 M127.6,184c-5.2,0.6-5.7,1.2-3.4,3.6c1,1,2.2,2.3,2.8,3c2.8,3.2,5,2.5,6.6-2.1
		c0.8-2.3,0.8-2.5,0.2-3.5C133,183.5,132.4,183.4,127.6,184 M120.6,189.1c-0.1,0.2-0.8,1.9-1.4,3.7c-0.7,1.8-1.8,4.8-2.5,6.7
		c-2.3,6-1.6,7.2,3.5,6.7c3.8-0.4,4-0.7,1.9-3.6c-2-2.8-1.7-5.2,1.3-8.5l1.3-1.5l-1.8-2C120.8,188.4,120.9,188.5,120.6,189.1"/>
	<path id="path2" class="st3" d="M73.4,88.5c0.1,0.1-0.1,0.1-0.3,0.1c-0.2-0.1-0.4,0-0.4,0.1c0,0.1-0.4,0.2-1,0.1
		c-0.6,0-1.4,0.1-2,0.3c-0.6,0.2-1.3,0.4-1.6,0.4c-0.3,0-0.6,0-0.6,0.1c0,0.1-0.7,0.2-1.5,0.2c-0.8,0-1.6,0.2-1.7,0.3
		s-0.3,0.1-0.4,0.1c-0.1-0.1-0.1,0-0.1,0.1c0,0.2-0.2,0.2-0.5,0.1c-0.3-0.1-0.6,0-0.8,0.2c-0.2,0.2-0.4,0.3-0.6,0.2
		c-0.1,0-0.3,0-0.3,0.1s-0.3,0.2-0.7,0.1c-0.4-0.1-0.7,0-0.7,0.2c0,0.1-0.1,0.2-0.2,0.1c-0.1-0.1-0.2,0-0.2,0.1
		c0,0.1-0.1,0.2-0.3,0.1c-0.2-0.1-0.3,0-0.3,0.1c0,0.1-0.2,0.2-0.4,0.2c-0.6,0-2.8,0.9-3.2,1.2c-0.1,0.1-0.4,0.2-0.5,0.1
		s-0.3,0-0.4,0.2c-0.1,0.2-0.2,0.3-0.3,0.3c-0.4,0-1.3,0.3-1.2,0.5c0.1,0.1-0.2,0.2-0.5,0.2s-0.6,0.1-0.7,0.2c0,0.1-0.2,0.2-0.3,0.1
		c-0.1-0.1-0.4,0-0.7,0.3c-0.2,0.2-0.5,0.4-0.5,0.4c-0.2-0.1-1.6,0.7-1.5,0.9c0.1,0.1-0.1,0.2-0.3,0.2c-0.2,0-0.6,0.1-0.8,0.3
		c-0.2,0.2-0.5,0.3-0.7,0.3c-0.2,0-0.3,0.1-0.2,0.3c0.1,0.2,0.1,0.2-0.1,0.1c-0.2-0.1-1.8,0.8-2.1,1.2c-0.1,0.1-0.2,0.2-0.2,0.1
		c0-0.1-0.2,0-0.3,0.2c-0.2,0.2-0.3,0.3-0.2,0.1c0.1-0.2-0.4,0.1-1.1,0.6c-0.7,0.5-1.2,1-1.2,1.1c0,0.1-0.1,0.1-0.2,0.1
		c-0.1-0.1-0.6,0.3-1.1,0.8c-0.5,0.5-0.8,0.8-0.7,0.6c0.1-0.2-0.1-0.1-0.6,0.3c-0.4,0.3-0.7,0.7-0.7,0.8s-0.1,0.2-0.2,0.2
		c-0.1,0-0.4,0.2-0.5,0.5c-0.1,0.3-0.3,0.5-0.3,0.5c-0.2-0.1-1.1,0.3-1.1,0.4c0,0.1-0.9,1.1-2,2.1c-1.1,1.1-2,2.1-2,2.2
		c0,0.1-0.2,0.3-0.3,0.4c-0.2,0.1-0.3,0.2-0.2,0.4c0.1,0.2,0.1,0.2,0,0.1c-0.2-0.2-1.2,0.7-1.2,1.1c0,0.2-0.1,0.3-0.2,0.3
		c-0.2,0-1.1,1.2-1.2,1.5c0,0.1-0.2,0.4-0.4,0.7c-0.2,0.2-0.5,0.6-0.7,0.8c-0.7,0.8-1.1,1.5-0.9,1.7c0.1,0.1,0.1,0.2,0,0.1
		c-0.2-0.2-1,0.8-1,1.2c0,0.2-0.2,0.4-0.3,0.5c-0.2,0.1-0.3,0.2-0.2,0.3c0.1,0.1,0,0.3-0.2,0.3c-0.2,0.1-0.3,0.2-0.2,0.3
		c0.1,0.1,0,0.2-0.1,0.2c-0.3,0-1.2,1.7-1,1.9c0.1,0.1-0.1,0.3-0.3,0.5c-0.2,0.2-0.4,0.6-0.4,0.8c0,0.2-0.1,0.4-0.3,0.4
		c-0.3-0.1-0.3,0.1-0.4,0.8c0,0.2-0.1,0.3-0.2,0.2c-0.1-0.1-0.2,0-0.2,0.2c0,0.2-0.2,0.8-0.5,1.4c-0.3,0.6-0.5,1.2-0.5,1.4
		c0,0.2-0.1,0.4-0.3,0.4c-0.2,0.1-0.6,1.3-0.5,1.6c0,0.1-0.1,0.2-0.2,0.2c-0.1,0-0.2,0.2-0.1,0.4c0.1,0.2,0,0.5-0.2,0.7
		c-0.2,0.2-0.3,0.4-0.2,0.6c0.1,0.2,0,0.3-0.1,0.3c-0.1,0-0.2,0.1-0.1,0.2c0.1,0.1,0,0.3-0.1,0.3c-0.1,0.1-0.2,0.3-0.1,0.5
		c0.1,0.2,0,0.5-0.2,0.7c-0.2,0.2-0.3,0.4-0.2,0.4c0.1,0,0,0.3-0.2,0.7c-0.2,0.4-0.3,0.8-0.2,1c0.1,0.2,0,0.3-0.1,0.2
		c-0.1-0.1-0.2,0-0.2,0.3c0,0.2-0.1,0.7-0.2,1c-0.1,0.3-0.2,0.9-0.2,1.4c0,0.4,0,0.7-0.1,0.7c-0.2-0.1-0.2,0.1-0.3,1
		c0,0.2-0.1,0.5-0.3,0.7c-0.1,0.2-0.2,0.6-0.2,1c0,0.4-0.1,0.8-0.2,1c-0.1,0.2-0.2,0.6-0.3,1.1c0,0.4-0.2,1.5-0.3,2.4
		c-0.1,0.9-0.3,2.6-0.3,3.8c0,1.2-0.1,2.1-0.2,2.1c-0.1,0-0.1,0.2-0.1,0.3c0.1,0.2,0,0.3-0.1,0.2c-0.3-0.2-0.3,9.4,0,9.9
		c0.1,0.2,0.3,1.2,0.3,2.1c0.1,1,0.2,2.6,0.3,3.7c0.1,1.1,0.2,2.3,0.3,2.6c0,0.4,0.1,0.8,0.2,1c0.1,0.2,0.2,0.5,0.2,0.7
		c0,0.2,0.1,0.4,0.2,0.6c0.1,0.2,0.1,0.3-0.1,0.2c-0.3-0.2-0.3,0-0.1,0.5c0.1,0.2,0.3,0.8,0.4,1.4c0.5,1.8,1.4,4.7,1.6,5
		c0.1,0.2,0.3,0.5,0.3,0.7c0,0.2,0.4,1,0.8,1.8c0.4,0.8,0.7,1.4,0.7,1.5c0,0.1,0.2,0.4,0.4,0.6c0.2,0.2,0.3,0.4,0.3,0.4
		c-0.1,0,0.2,0.5,0.5,1.1c0.4,0.6,0.9,1.7,1.3,2.3c0.6,1.2,1.8,2.8,2.8,3.8c0.3,0.3,0.4,0.5,0.4,0.6c-0.1,0.1,0.4,0.6,1,1.2
		c0.6,0.6,1,1.1,1,1.1c-0.1,0,1,1.3,2.4,2.6c1.4,1.4,2.3,2.1,2.6,2.1c0.1,0,0.1,0,0.1,0.1c-0.1,0.2,0.7,1,1.6,1.6
		c0.3,0.2,0.8,0.6,1.2,0.9c0.4,0.3,0.6,0.4,0.5,0.2c-0.1-0.2,0.1,0,0.4,0.3c0.3,0.4,0.6,0.6,0.6,0.5c0-0.1,0.2,0.1,0.5,0.4
		c0.3,0.3,0.7,0.5,0.9,0.5c0.2,0,0.3,0.1,0.3,0.2c0,0.1,0.2,0.3,0.5,0.4c0.3,0.1,0.7,0.3,0.9,0.6c0.2,0.2,0.6,0.4,0.7,0.3
		c0.2-0.1,0.3,0,0.3,0.1c0,0.1,0.1,0.2,0.3,0.2c0.2,0,0.3,0.1,0.3,0.2s0.1,0.2,0.2,0.1c0.1-0.1,0.2,0,0.2,0.1s0.2,0.2,0.4,0.2
		c0.2,0,0.4,0.1,0.4,0.2c0,0.1,0.1,0.2,0.2,0.2c0.1,0,0.5,0.2,1,0.5c0.5,0.3,0.9,0.5,1,0.4c0.1-0.1,0.3,0,0.5,0.2
		c0.4,0.4,2.6,1.4,3.5,1.5c0.3,0.1,0.7,0.2,0.8,0.3c0.6,0.4,7,3.5,7.2,3.5c0.1,0,0.3,0.1,0.3,0.3s0.1,0.3,0.2,0.3
		c0.1,0,0.4,0.2,0.7,0.4s0.6,0.4,0.8,0.4c0.2,0,0.3,0.1,0.3,0.2s0.1,0.2,0.2,0.1c0.1-0.1,0.3,0.1,0.3,0.3c0.1,0.2,0.3,0.4,0.4,0.4
		c0.1,0,0.2,0.1,0.2,0.2c0,0.1,0.3,0.6,0.8,0.9c0.5,0.3,0.8,0.7,0.7,0.8c-0.1,0.1,0,0.1,0.2,0.1s0.3,0.1,0.3,0.2
		c-0.1,0.1,0,0.4,0.2,0.6c0.2,0.2,0.3,0.3,0.2,0.1c-0.1-0.2-0.1-0.3,0.1-0.1c0.1,0.1,0.2,0.3,0.2,0.5c0,0.2,0,0.6,0.1,0.8
		c0.5,1.3,0.5,1.7,0.6,3.3c0,1.1,0,1.9-0.2,2c-0.1,0.1-0.4,0.8-0.6,1.6c-0.2,0.8-0.6,1.5-0.7,1.7c-0.2,0.1-0.3,0.3-0.2,0.3
		c0.1,0,0,0.2-0.3,0.4s-0.4,0.6-0.4,0.8c0,0.2-0.1,0.3-0.2,0.3c-0.1,0-0.2,0.2-0.2,0.4c0,0.2-0.1,0.3-0.1,0.2
		c-0.2-0.2-1.6,1.2-1.5,1.4c0.1,0.1,0,0.2-0.2,0.2c-0.2,0-0.5,0.2-0.8,0.5c-0.6,0.5-0.7,0.6-1.1,0.6c-0.1,0-0.2,0.1-0.1,0.3
		c0.1,0.1,0.1,0.2-0.1,0.1c-0.1-0.1-0.8,0.1-1.5,0.4c-0.7,0.3-1.4,0.6-1.6,0.5c-0.2,0-0.2,0-0.1,0.2c0.1,0.2,0.1,0.2,0,0.1
		c-0.3-0.2-2,0.3-2,0.5c0,0.1-0.1,0.2-0.2,0.2c-0.5-0.1-1.2,0.1-1.4,0.3c-0.2,0.2-0.4,0.3-0.5,0.2c-0.1,0-0.4,0.1-0.5,0.2
		c-0.2,0.2-0.4,0.3-0.5,0.2c-0.1,0-0.4,0.1-0.6,0.3c-0.2,0.2-0.5,0.3-0.6,0.3c-0.6,0-3.6,2.7-3.3,3c0.1,0.1,0,0.2-0.2,0.3
		c-0.2,0.1-0.6,0.7-1,1.4c-1.1,2.1-0.9,4.3,0.6,5.9c0.4,0.4,0.7,0.8,0.7,0.9c0,0.1,0.1,0.2,0.3,0.2c0.2,0,0.4,0.1,0.5,0.3
		c0.1,0.2,0.1,0.2-0.1,0.1c-0.2-0.1-0.2-0.1-0.1,0.1c0.2,0.3,1.4,1,1.8,1c0.1,0,0.2,0.1,0.2,0.2c0,0.1,0.2,0.3,0.4,0.5
		c0.4,0.2,0.4,0.2,0.3,0c-0.1-0.2,0-0.1,0.3,0.1c0.3,0.2,0.6,0.3,0.7,0.3c0.1-0.1,0.2,0,0.3,0.1c0,0.1,0.2,0.2,0.4,0.3
		c0.2,0,0.5,0.2,0.6,0.3c0.3,0.2,0.9,0.4,1.8,0.3c0.2,0,0.2,0,0.2,0.1c-0.1,0.1,1.8,0.9,2.6,1c0.2,0,0.6,0.1,0.8,0.2
		c0.2,0.1,0.8,0.2,1.5,0.2c0.6,0,1,0.1,1,0.2c-0.1,0.1,1,0.3,2.1,0.2c0.1,0,0.2,0.1,0.1,0.2c-0.1,0.1,0.1,0.2,0.4,0.1
		c0.3-0.1,0.6,0,0.7,0.1c0.1,0.1,0.3,0.2,0.5,0.1c0.2-0.1,0.3,0,0.2,0.1c-0.1,0.2,0.2,0.2,1.1,0.2c0.7,0,1.2,0,1.1,0.1
		c-0.1,0.2,3.2,0.6,4,0.5c0.4-0.1,1,0,1.3,0.1c0.8,0.3,18.3,0.5,18.4,0.1c0.1-0.1,0.1-0.1,0.1,0.1c0,0.2,0.2,0.2,0.7-0.1
		c0.4-0.2,0.8-0.3,1.1-0.3c0.4,0,0.4-0.1,0.2-0.5c-0.2-0.4-0.2-2.9-0.2-9.7c0.1-8.1,0-9.2-0.2-9.1c-0.2,0-0.9,0.3-1.6,0.5
		c-4.9,1.8-9.7-1-10.9-6.3c-0.2-0.8-0.6-2.5-1-3.8c-0.3-1.3-0.7-2.5-0.7-2.8c-0.1-0.4-0.5-0.7-1.3-1.2c-4.5-2.3-7-7.6-7.3-15
		c-0.2-6.5-1-7.3-6.2-6.1c-6,1.4-9.3-0.5-10-5.7c-0.5-3.4-1.8-3.8-5.8-1.8c-9.5,4.8-17.2-7-8.7-13.3c1.9-1.4,4.2-1.7,7.6-0.9
		c3.8,1,4.1,0.8,5.9-1.7c1.8-2.6,3.1-3.4,6.2-3.6c1.8-0.1,1.9-0.1,1.8-0.6c-0.3-0.9-0.4-4.3-0.2-7.2c0.5-7.9-0.7-9.8-8.1-12.6
		c-3.5-1.4-5.1-2.3-7-4.3c-10.7-11.3,1.8-28.8,15.7-22.1c3.2,1.5,5.1,3.9,7.7,9.4c4.8,10.1,6,11.1,16.6,12.7
		c10.5,1.6,15.4,8.4,13.5,18.3c-0.7,3.3-0.6,5,0.1,6.7c0.7,1.6,0.6,1.6,4,0.7c2.9-0.7,2.6-0.5,2.9-2.3c0.5-3.3,0.2-5.7-0.9-7.5
		c-2-3.3-3.6-6.8-4.3-9.8c-1.8-7.1,1.3-14.4,6.4-15.3c0.7-0.1,1.1-0.4,1.9-1.2c1.5-1.6,3.3-2.6,6.7-3.3c5.8-1.4,9.7,0.7,12.3,6.7
		c1.7,3.9,3.7,5.4,7.2,5.4l1,0l1-2.1c0.6-1.1,1-2.3,1-2.5c0-0.2,0.1-0.4,0.2-0.4c0.2,0,0.7-1.5,0.5-1.8c-0.1-0.1,0-0.1,0.1-0.1
		c0.2,0.1,0.2,0,0.1-0.4c-0.1-0.4-0.1-0.6,0.1-0.4c0.3,0.2,0.6-0.8,0.4-1.3c-0.1-0.2,0-0.3,0.1-0.4c0.6-0.2,0.9-10.7,0.2-11.3
		c-0.1-0.1-0.3-0.5-0.3-0.9c0-0.8-0.2-1.3-0.5-1.1c-0.1,0.1-0.2,0-0.1-0.3c0.2-0.6,0-1.1-0.3-1c-0.1,0.1-0.2,0-0.1-0.2
		c0.2-0.4-0.1-1.3-0.4-1.3c-0.1,0-0.2-0.1-0.2-0.1c0-0.1-0.1-0.3-0.2-0.4c-0.1-0.2-0.1-0.3,0.1-0.3c0.2,0,0.1-0.2,0-0.5
		c-0.1-0.3-0.3-0.5-0.4-0.5c-0.1,0-0.1-0.1-0.1-0.2c0.1-0.1,0-0.2-0.1-0.2c-0.1,0-0.2-0.1-0.1-0.2c0.1-0.1-0.1-0.4-0.3-0.7
		s-0.4-0.5-0.4-0.5c0.1-0.2-0.6-1.3-0.7-1.3c-0.1,0-0.2-0.1-0.1-0.1c0.1-0.1-0.2-0.5-0.5-1c-0.4-0.5-0.6-0.9-0.6-1.1
		c0-0.1-0.2-0.3-0.3-0.4s-0.3-0.3-0.3-0.3c0-0.4-0.3-0.8-0.5-0.7c-0.1,0.1-0.2,0-0.1-0.1c0.2-0.2-0.5-1.1-1.9-2.4
		c-0.4-0.4-0.9-1.1-1.1-1.4c-0.4-0.7-1.8-2.2-2.1-2.1c-0.1,0-0.2,0-0.2-0.1c0-0.3-0.3-0.6-0.6-0.6c-0.1,0-0.2-0.1-0.1-0.2
		c0.1-0.3-1.4-1.7-1.7-1.6c-0.1,0.1-0.2,0-0.1-0.1c0.1-0.1-0.1-0.4-0.3-0.6c-0.3-0.3-0.4-0.3-0.3-0.1c0.1,0.2-0.1,0.1-0.4-0.2
		c-1.3-1.2-1.8-1.6-2-1.6c-0.1,0-0.1,0-0.1-0.1c0.1-0.1-0.2-0.5-0.7-0.8c-0.6-0.4-0.7-0.5-0.5-0.2c0.2,0.2,0,0.2-0.3-0.2
		c-1.1-1.1-2.1-1.9-2.3-1.9c-0.1,0-0.4-0.2-0.6-0.4c-0.8-0.7-1.1-0.9-1.2-0.8c-0.1,0.1-0.1,0-0.1-0.1c0-0.3-1.3-1-1.3-0.8
		c0,0.1-0.2,0-0.3-0.3c-0.2-0.2-0.3-0.3-0.3-0.2c0,0.1-0.2,0-0.3-0.2c-0.2-0.2-0.3-0.3-0.3-0.3s-0.2,0-0.3-0.2
		c-0.2-0.2-0.5-0.3-0.6-0.2c-0.1,0.1-0.2,0-0.1-0.1c0.1-0.1,0.1-0.3-0.1-0.3c-0.1,0-0.3,0-0.3,0c-0.1,0-0.3-0.2-0.6-0.4
		c-0.2-0.2-0.5-0.4-0.6-0.3c-0.1,0.1-0.3,0-0.3-0.1c-0.1-0.1-0.2-0.2-0.4-0.1c-0.1,0.1-0.2,0-0.1-0.1c0.2-0.3-3.1-1.8-3.6-1.6
		c-0.1,0-0.2-0.1-0.2-0.2s-0.1-0.2-0.2-0.1c-0.1,0.1-0.2,0-0.3-0.1c0-0.1-0.3-0.2-0.7-0.2s-0.5-0.1-0.5-0.2c0.1-0.1,0-0.2-0.2-0.2
		c-0.2,0-0.4,0-0.5-0.1c-0.1,0-0.3-0.1-0.5-0.2c-0.5-0.3-2.3-0.8-2.5-0.7c-0.1,0.1-0.2,0-0.2-0.1c0-0.1-0.2-0.3-0.3-0.3
		c-0.2-0.1-0.3,0-0.2,0.1c0.2,0.3-0.1,0.3-0.5-0.1c-0.2-0.2-0.6-0.4-0.9-0.4c-0.3,0-0.7-0.1-0.9-0.2c-1.3-0.4-2.7-0.7-4.7-1
		c-0.6-0.1-1.5-0.3-2-0.5c-0.5-0.2-1.4-0.3-2.1-0.3c-0.7,0-1.2,0-1.1-0.1c0.2-0.3-1.6-0.4-7-0.4C75.6,88.3,73.3,88.4,73.4,88.5
		 M53.4,176.3c-1.2,0.6-1.6,0.9-2.4,2.2c-2.1,3.2-2.9,3.4-7,2.4c-3.6-0.9-5.4-0.6-7.5,1.3c-6.5,6,0.5,14.8,8.6,10.7
		c4.3-2.2,6.6-1.3,7.1,2.8c0.5,4.3,3.6,6.1,8.3,4.9c6.1-1.6,7.6-0.3,7.9,6.6c0.2,5.6,0.9,8.2,3.1,11.2c1.2,1.7,3.8,3.8,3.8,3
		c0-0.1-0.2-1.1-0.4-2.3c-0.8-4-0.9-5-1.2-8.8c-0.2-2.7-0.3-4.7-0.2-7.2c0.1-2.3,0.1-3.6-0.1-3.7c-0.1-0.1-0.3-0.8-0.5-1.7
		c-0.3-1.9-0.3-1.9-2.3-3.3c-7.6-5.6-17.6-9.1-26.1-9.1c-2.1,0-2.7-0.2-2.2-0.7c0.4-0.4,5.5-0.3,8.2,0.2c7,1.1,14.1,4.1,20.1,8.3
		c2.1,1.5,2.1,1.5,2.1-1.7c0-3.1,0-3.1-2-3.6c-3.1-0.8-4.8-2.1-6.7-5.6C60.6,176.5,57,174.4,53.4,176.3 M64.3,180.5
		c0,0.3,0.7,1.7,1.7,3.2c1.1,1.7,6.2,4.2,6.2,3c0-1.5-2.4-3.9-5.4-5.4C64.3,180,64.3,180,64.3,180.5 M144.1,192.7
		c-0.4,0.8-0.4,0.8,0.4,3.7c0.9,3.7,1.5,6.4,1.9,9.6c0.1,0.9,0.3,2.3,0.4,3.1c1.2,7.9,1.3,16.2,0.4,22.3c-0.9,6.1-7.6,8.6-12.4,4.8
		l-0.9-0.7l-0.2,0.5c-0.1,0.3-0.3,1.1-0.3,1.9c-0.1,0.8-0.3,2.5-0.6,3.9c-0.7,4.3-0.7,5.5,0,4.7c0.1-0.2,0.4-0.3,0.7-0.2
		c0.2,0.1,0.5,0,0.7-0.2c0.2-0.2,0.4-0.3,0.6-0.3c0.8-0.1,0.8-0.1,0.5-0.3c-0.3-0.2-0.3-0.2,0.1-0.2c0.8,0.1,1.2,0,1.1-0.3
		c-0.1-0.2,0-0.2,0.2-0.1c0.3,0.1,1.5-0.4,1.7-0.8c0.1-0.1,0.4-0.2,0.6-0.3c0.5-0.1,3-1.5,3.3-1.9c0.1-0.1,0.4-0.3,0.8-0.4
		c0.4-0.2,0.6-0.4,0.6-0.5c-0.1-0.1,0-0.2,0.1-0.1c0.1,0.1,0.4,0,0.5-0.1c0.2-0.2,0.7-0.5,1.1-0.7c0.4-0.2,0.8-0.5,0.7-0.6
		c-0.1-0.1,0.1-0.2,0.3-0.2c0.3,0,1.7-0.9,2.1-1.3c0.1-0.1,0.5-0.4,0.9-0.6c0.5-0.3,0.8-0.6,0.7-0.7c-0.1-0.1,0-0.2,0.1-0.1
		c0.1,0.1,0.3,0.1,0.3,0c0-0.1,0.4-0.3,0.7-0.5c0.4-0.2,0.6-0.5,0.6-0.6c0-0.1,0-0.2,0.1-0.1c0.1,0.1,0.3,0,0.5-0.2s0.2-0.3,0.1-0.3
		s0-0.1,0.1-0.3c0.2-0.2,0.4-0.3,0.4-0.2s0.2,0,0.2-0.1c0-0.1,0.1-0.2,0.2-0.2c0.2,0.1,2.9-2.6,2.9-2.9c0-0.1,0.1-0.2,0.2-0.2
		c0.1,0,0.2-0.1,0.1-0.2c-0.1-0.1,0.2-0.3,0.5-0.6c0.4-0.2,0.6-0.5,0.6-0.7c0-0.2,0.1-0.3,0.2-0.3c0.1,0,0.2-0.1,0.2-0.2
		c-0.1-0.3,0.3-0.9,0.5-0.8c0.1,0.1,0.2,0,0.2-0.2c0-0.2,0.1-0.4,0.3-0.4c0.2-0.1,0.3-0.3,0.3-0.6c0-0.3,0.1-0.4,0.2-0.3
		c0.2,0.1,0.5-0.3,0.6-0.9c0-0.2,0.3-0.5,0.6-0.8c0.3-0.3,0.5-0.6,0.5-0.7c0-0.1,0.2-0.5,0.4-0.9c0.2-0.4,0.3-0.7,0.2-0.8
		c-0.1-0.1,0-0.1,0.1-0.1c0.1,0,0.2-0.2,0.1-0.4c-0.1-0.3-0.1-0.3,0.1-0.2c0.2,0.1,0.2,0.1,0.2-0.1c-0.1-0.2,0-0.6,0.2-0.9
		c0.2-0.3,0.3-0.8,0.3-1.1c0-0.3,0.1-0.6,0.2-0.6c0.1,0,0.2-0.3,0.4-0.7c0.2-0.4,0.2-0.6,0-0.5c-0.1,0.1,0-0.1,0.2-0.5
		c0.5-0.8,0.6-7.6,0.1-8.7c-0.2-0.4-0.3-0.8-0.4-1.1c0-0.2-0.2-0.7-0.4-0.9c-0.2-0.3-0.3-0.6-0.2-0.7c0.1-0.1,0-0.3-0.2-0.3
		c-0.2-0.1-0.3-0.2-0.2-0.3c0.1-0.1-0.1-0.4-0.3-0.6c-0.2-0.2-0.4-0.5-0.5-0.7c-0.1-0.6-2.4-3.4-2.7-3.4c-0.1,0-0.2-0.1-0.1-0.1
		c0.1-0.2-0.7-1.1-0.9-0.9c-0.1,0.1-0.2,0-0.3-0.1c-0.1-0.2-0.1-0.2,0.1-0.1c0.2,0.1,0-0.1-0.5-0.5c-0.4-0.4-0.9-0.7-1.1-0.8
		c-0.2-0.1-0.4-0.2-0.4-0.3s-0.3-0.4-0.7-0.7c-0.4-0.3-0.6-0.4-0.5-0.2c0.1,0.2,0,0.1-0.2-0.2c-0.4-0.5-2.4-1.7-2.9-1.9
		c-0.2,0-0.4-0.2-0.6-0.4c-0.1-0.2-0.5-0.3-0.8-0.3c-0.3,0-0.6-0.1-0.6-0.2c0-0.1-0.1-0.1-0.2,0c-0.1,0.1-0.2,0-0.2-0.1
		c0-0.1-0.1-0.2-0.2-0.1c-0.1,0.1-0.2,0-0.2-0.1c0-0.1-0.1-0.2-0.2-0.1c-0.1,0.1-0.2,0-0.2-0.1c0-0.1-0.1-0.2-0.3-0.2
		c-0.5,0-0.9-0.2-1.4-0.6c-0.3-0.3-0.7-0.4-1.1-0.3c-0.4,0.1-0.7,0-0.8-0.1C144.5,192,144.3,192.2,144.1,192.7 M87.9,200.6
		c0,0.4,0.7,4.8,0.8,5c0.2,0.5,0.1-1.9-0.2-3.3C88.2,200.9,87.9,199.9,87.9,200.6 M133.6,201.8c0.1,0.3,0.2,1.4,0.4,2.5
		c0.2,1.7,0.6,3.5,0.6,2.8c0-0.7-0.7-5.5-0.9-5.7C133.5,201.3,133.5,201.4,133.6,201.8 M88.8,206.9c0,0.6,0.1,1.2,0.2,1.4
		c0.3,0.4,0.3-0.4,0-1.6l-0.2-0.9L88.8,206.9 M164,213.3c0,0.5-0.1,0.1-0.1-0.8s0-1.3,0.1-0.8C164,212.1,164,212.8,164,213.3"/>
	<path id="path3" class="st4" d="M48.3,126.8c-7.1,2.1-11.5,10.4-9.1,17.4c1.6,4.8,4.7,7.7,10.3,9.9c7.4,2.9,8.7,4.8,8.1,12.6
		c-0.2,3-0.1,6.3,0.2,7.2c0.1,0.4,0,0.5-1.8,0.6c-3.1,0.2-4.4,1-6.2,3.6c-1.7,2.6-2.1,2.7-5.9,1.7c-3.3-0.8-5.6-0.6-7.6,0.9
		c-8.5,6.3-0.8,18.1,8.7,13.3c4-2,5.3-1.6,5.8,1.8c0.7,5.2,4.1,7,10,5.7c5.2-1.2,6-0.4,6.2,6.1c0.2,6.3,1.4,9.6,4.7,13
		c1.4,1.5,4.2,3.2,3.7,2.3c-0.1-0.2-0.2-0.6-0.2-0.9c0-0.3-0.1-0.5-0.4-0.5c-0.6,0-2.7-1.8-3.7-3.2c-2.2-3.1-2.9-5.7-3.1-11.2
		c-0.3-6.9-1.8-8.2-7.9-6.6c-4.7,1.2-7.8-0.6-8.3-4.9c-0.5-4-2.8-4.9-7.1-2.8c-8.1,4-15.1-4.8-8.6-10.7c2.1-1.9,3.9-2.2,7.5-1.3
		c4.1,1,4.9,0.8,7-2.4c3.4-5.1,8.9-3.5,12.9,3.7c2,3.5,3.6,4.9,6.7,5.6c2,0.5,2,0.5,2,3.6c0,3.3,0.1,3.2-2.1,1.7
		c-5.9-4.2-13.1-7.2-20.1-8.3c-2.7-0.4-7.8-0.5-8.2-0.2c-0.5,0.5,0.1,0.7,2.2,0.7c8.6,0,18.4,3.4,26.1,9.1c1.9,1.4,1.9,1.3,2.3,3.4
		c0.4,2.2,0.7,2,1.2-0.9c1.2-6.3,2.7-9.3,6.3-12c4-3.1,9.8-6.1,15.2-7.9c1.5-0.5,1.5-0.6,0.8-2.2c-0.7-1.7-0.8-3.4-0.1-6.7
		c2-9.9-3-16.7-13.5-18.3c-10.6-1.6-11.8-2.6-16.6-12.7C61.8,128,55.9,124.5,48.3,126.8 M115.2,135.8c-4.8,0.8-7.1,1.7-9,3.7
		c-0.8,0.9-1.2,1.1-1.9,1.2c-6,1-8.6,10-5.3,18.4c0.8,1.9,3.1,6.4,3.7,7.2l0.5,0.6l-0.2-0.6c-0.1-0.3-0.6-1.3-1-2.1
		c-3.4-6-4.6-10.8-3.9-14.9c0.8-4.5,3.4-7.9,6.5-8.3c0.6-0.1,1.1-0.4,1.9-1.3c1.7-1.8,4.4-3,8.4-3.6c4.3-0.7,7.8,1.7,9.9,6.5
		c1.7,4,4.2,6,7.3,5.9c1.1,0,1.6-0.4,0.5-0.4c-3.6-0.1-5.5-1.5-7.2-5.4C123,137.8,119.2,135.1,115.2,135.8 M66.7,181.3
		c3,1.6,5.4,4,5.4,5.4c0,1.2-5.1-1.2-6.2-3C63.6,179.9,63.7,179.7,66.7,181.3 M163.9,212.5c0,0.9,0,1.3,0.1,0.8c0-0.5,0-1.2,0-1.6
		C163.9,211.2,163.9,211.6,163.9,212.5 M68.7,255.6c0.2,0.1,0.6,0.1,0.8,0c0.2-0.1,0-0.1-0.4-0.1C68.7,255.5,68.5,255.5,68.7,255.6
		 M90,255.6c0.3,0.1,0.7,0.1,0.9,0c0.2-0.1,0-0.1-0.5-0.1C89.9,255.5,89.7,255.5,90,255.6 M75.7,256c2.3,0,5.9,0,8.1,0
		c2.2,0,0.3-0.1-4.1-0.1C75.3,256,73.5,256,75.7,256"/>
	<path id="path4" class="st5" d="M103.5,170.2c0,1.3,0,1.8,0.1,1.1c0-0.7,0-1.8,0-2.4C103.5,168.3,103.5,168.9,103.5,170.2
		 M103.2,173.3c-0.1,1.7-0.1,1.7-3.8,2.5c-1.2,0.3-2.5,0.6-2.8,0.8c-0.4,0.2-1.6,0.6-2.8,1.1c-2.7,1-6.9,2.9-7.3,3.4
		c-0.2,0.2-0.5,0.4-0.7,0.4c-1.4,0-8.5,5.6-8.5,6.7c0,0.1-0.2,0.5-0.5,0.8c-0.9,1.1-2,4.1-2.3,6.4c-0.1,0.7-0.3,1.9-0.5,2.7
		c-0.9,4.2-0.6,13,0.7,19.5c0.2,0.9,0.2,0.9,0.2,0.3l0-0.7h1.7c2,0,3.9-0.6,7.7-2.4c3.2-1.6,3.8-2,7.6-6.4c1-1.2,3.5-3.9,5.5-6.1
		c2-2.2,4-4.4,4.5-4.9c0.7-0.8,0.9-1.2,1.1-2.2c0.6-4.6,2.6-6.2,8.9-7.1c6.5-0.9,8.4,0.2,4,2.3c-3.8,1.8-4,2.2-2.1,5.4
		c1.8,3.2,0.9,4.4-4.1,5.1c-1.8,0.3-1.4-0.3-4.1,6.1c-5.8,14.1-10.2,23.3-12.7,26.6c-1,1.3-1.8,1.9-3.9,2.7
		c-0.8,0.3-1.3,0.6-1.1,0.6c0.2,0,0.8-0.2,1.3-0.4c1.4-0.6,1.3-1,1.2,9c-0.1,7.6-0.1,9.3,0.2,9.6c0.3,0.4,3.1,0.7,3.4,0.4
		c0.1-0.1,0.6-0.1,1.2-0.1c0.6,0,1.1,0,1.1-0.2c0-0.1,0.2-0.2,0.5-0.2c0.3,0,0.6-0.1,0.6-0.2c0.1-0.2,0.3-0.3,0.6-0.3
		c0.5,0,0.5,0,0,0.2l-0.5,0.2l0.6,0c0.3,0,0.7-0.1,0.8-0.2c0.2-0.2,0.3-0.2,0.4,0c0.1,0.2,0.3,0.2,0.5,0c0.2-0.1,0.9-0.2,1.6-0.3
		c0.7,0,1.4-0.1,1.5-0.2c0.2-0.1,0.8-0.2,1.3-0.2c0.5,0,0.9-0.1,0.9-0.2c0-0.1,1.4-0.3,2.6-0.2c0.4,0,0.9-0.2,1.2-0.4
		c0.3-0.3,0.4-0.3,0.3-0.1c-0.2,0.3-0.1,0.3,0.1,0.1c0.2-0.1,0.7-0.2,1.1-0.2c0.4,0,0.8-0.1,0.8-0.2c0-0.1,0.4-0.2,0.7-0.1
		c0.4,0.1,0.9-0.1,1.2-0.3c0.4-0.2,0.6-0.3,0.6-0.1c0.1,0.2,0.3,0.1,0.9-0.1c0.5-0.2,1.1-0.3,1.3-0.3c0.3,0.1,0.5,0,0.5,0
		s0.3-0.2,0.8-0.4c0.5-0.1,0.8-0.2,0.8,0c0,0.1,0.2,0.1,0.5-0.1c0.3-0.2,0.7-0.3,0.9-0.4c1,0,1.3-0.1,1.3-0.3
		c-0.1-0.1,0-0.2,0.2-0.2c0.5,0,0.6-0.1,1-0.3c0.2-0.1,0.3-0.1,0.1,0.1c-0.1,0.2-0.1,0.2,0.3,0c0.2-0.1,0.7-0.3,1-0.3
		c0.3-0.1,0.7-0.2,0.8-0.4c0.1-0.2,0.2-0.2,0.2-0.1c0,0.1,0.2,0.1,0.3-0.1c0.2-0.2,0.4-0.2,0.5-0.1c0.1,0.1,0,0.1-0.2,0.1
		s-0.2,0.1-0.1,0.1c0.1,0.1,0.4,0,0.6-0.3c0.3-0.2,0.4-0.3,0.3-0.1c-0.1,0.2,0,0.2,0.2,0.1c0.2-0.1,0.3-0.2,0.3-0.3
		c0-0.1,0.2-0.1,0.4-0.1c0.2,0,0.4,0,0.4-0.1c0-0.1,0.2-0.2,0.4-0.2c0.2,0,0.7-0.2,1-0.3c0.3-0.2,0.6-0.3,0.8-0.2
		c0.2,0.1,0.2,0.1,0.1-0.1c-0.1-0.2-0.1-0.3,0.2-0.2c0.2,0.1,0.4,0,0.5-0.1c0.1-0.1,0.2-0.2,0.3-0.1c0.1,0.1,0.3,0,0.4-0.2
		s0.3-0.3,0.4-0.3c1-0.1,1.2-0.4,1.3-1.6c0.1-0.7,0.3-2.4,0.5-3.9c0.2-1.4,0.5-3.3,0.6-4c0.1-0.8,0.2-1.6,0.3-1.9l0.2-0.5l0.9,0.7
		c3,2.4,7.3,2.3,10-0.2c1.1-1,2.2-2.8,2.2-3.5c0-0.2-0.2,0.3-0.5,1c-1.8,4.5-7.8,5.7-11.9,2.3c-2.3-1.9-3.1-3.6-5.8-12.7
		c-0.9-3-1.9-6.2-2.2-7.1c-0.3-0.9-1.1-3.4-1.7-5.5c-1.3-4.2-1.3-4.1-2.8-3.9c-4.6,0.7-6,0.4-6.9-1.4c-0.7-1.3-0.7-1.2,2.5-9.6
		c1.7-4.5,2.7-7.5,2.7-8c0-0.7,0.1-0.9,0.9-1.4c0.5-0.3,0.9-0.6,1-0.8c1-1.6,10-2.7,11.3-1.4c1.4,1.4,1.5,2.3,0.5,5
		c-0.7,1.9-0.7,2.1-0.4,2.9c0.8,2.3-0.3,6.2-2.7,9.3c-1,1.3-1,1.2,0.7,3.4c0.8,1,1.7,2.2,2,2.7c0.3,0.4,0.9,1.2,1.4,1.8
		c0.5,0.6,2,2.6,3.4,4.5c1.4,1.9,2.9,4.1,3.4,4.8l0.9,1.3h1.5c0.8,0,1.8-0.1,2.1-0.2c0.9-0.4,1.2,0,1.3,2c0,1,0.1,0.1,0-1.9
		c0-3.3-0.3-6-1-10.4c-0.1-0.8-0.3-2.2-0.4-3.1c-0.4-3.2-1-5.9-1.9-9.6c-0.7-2.7-0.7-3-0.4-3.5c0.2-0.4,0.3-0.8,0.1-1.3
		c-0.1-0.4-0.1-0.7,0-0.8c0.1-0.1,0-0.1-0.1,0c-0.2,0.1-0.3,0-0.3-0.4c0-0.3-0.1-0.6-0.2-0.6c-0.1,0-0.2-0.3-0.3-0.5
		c0-0.2-0.2-0.5-0.4-0.7c-0.2-0.1-0.3-0.3-0.2-0.4c0.1-0.3-0.7-2.1-0.9-1.9c-0.1,0.1-0.2,0-0.2-0.1c0.1-0.5-0.1-0.7-0.6-1.3
		c-0.3-0.3-0.4-0.5-0.2-0.3l0.4,0.3l-0.4-0.5c-0.2-0.3-0.5-0.6-0.6-0.8c-0.7-0.9-1-1.2-1.3-1.1c-0.1,0.1-0.2,0.1-0.1,0
		c0.1-0.1-0.1-0.4-0.3-0.5c-0.3-0.2-0.7-0.5-0.9-0.8c-0.2-0.3-0.5-0.5-0.7-0.5c-0.1,0-0.5-0.2-0.9-0.6c-0.4-0.3-0.8-0.5-0.9-0.5
		c-0.1,0.1-0.3-0.1-0.4-0.3c-0.1-0.2-0.3-0.4-0.5-0.4c-0.2,0-0.3-0.1-0.3-0.2c0-0.1-0.2-0.2-0.4-0.1c-0.3,0.1-0.4,0-0.4-0.2
		c0-0.2-0.1-0.3-0.2-0.3c-0.5,0.1-0.9-0.1-0.8-0.2c0.1-0.2-0.5-0.5-1-0.5c-0.1,0-0.3-0.2-0.5-0.4c-0.2-0.2-0.5-0.3-0.6-0.3
		c-0.1,0.1-0.2,0-0.3-0.1c-0.1-0.1-0.3-0.2-0.6-0.1c-0.2,0-0.4,0-0.4-0.1s-0.1-0.2-0.3-0.1c-0.2,0.1-0.4,0-0.5-0.1
		c-0.1-0.2,0-0.2,0.2-0.1c0.2,0.1,0.1,0-0.1-0.2c-0.2-0.2-0.6-0.3-0.9-0.3c-0.3,0-0.5-0.1-0.5-0.2c0-0.1-0.2-0.3-0.4-0.3
		c-1-0.1-1.1-0.1-1.1-0.3c0-0.1-0.2-0.1-0.3,0.1c-0.3,0.2-0.3,0.2-0.3,0c0-0.2-0.1-0.3-0.3-0.2c-0.2,0-0.5,0-0.7-0.2
		c-0.2-0.2-0.3-0.2-0.3,0c0,0.1-0.1,0.2-0.2,0.1c-0.1-0.1-0.2-0.2-0.1-0.3c0.2-0.3-1.4,0-2,0.3c-0.9,0.6-2.3,3.1-2.5,4.5
		c-0.9,6.1-1.3,6.8-4.5,7.1c-3.2,0.3-6.7-1.1-9.4-3.5c-2.3-2.1-2.4-2.5-1.6-6c0.4-1.6,0.6-3,0.6-3.3
		C103.2,172.7,103.2,172.7,103.2,173.3 M88.4,202.2c0.3,1.4,0.4,3.9,0.2,3.3c-0.1-0.2-0.8-4.6-0.8-5
		C87.9,199.9,88.2,200.9,88.4,202.2 M134.2,204.3c0.4,2.9,0.4,3.3,0.1,2.5c-0.1-0.3-0.3-1.4-0.4-2.5c-0.1-1.1-0.3-2.2-0.4-2.5
		c-0.1-0.4-0.1-0.5,0.1-0.3C133.8,201.5,134,202.8,134.2,204.3 M89.2,208.1c0,0.4,0,0.5-0.2,0.2c-0.1-0.2-0.2-0.8-0.2-1.4l0-1.1
		l0.2,0.9C89.1,207.1,89.2,207.8,89.2,208.1 M147.5,225.4c0,0.6,0,0.8,0.1,0.5c0.1-0.3,0-0.8,0-1.1
		C147.6,224.6,147.5,224.8,147.5,225.4 M147.3,228.7c0,1.1,0,1.5,0.1,1c0-0.5,0-1.4,0-2C147.4,227.2,147.3,227.6,147.3,228.7
		 M77.1,228.5c0.1,0.2,0.3,1.1,0.4,1.9c0.8,3.6,4.1,6.8,6.8,6.7c0.4,0,0.3-0.1-0.3-0.2c-3.3-0.6-5.5-3-6.3-6.5
		c-0.2-0.9-0.4-1.8-0.6-2C77,228.1,77,228.2,77.1,228.5 M86.4,237c0.2,0.1,0.6,0.1,0.8,0c0.2-0.1,0-0.1-0.4-0.1
		C86.4,236.9,86.2,237,86.4,237"/>
</g>
<g id="Layer_2">
	<text transform="matrix(1 0 0 1 168.2784 106.4987)" class="st6 st7 st8">Discover.</text>
	<text transform="matrix(1 0 0 1 145.9061 132.2264)"><tspan x="0" y="0" class="st9 st10 st11">Have you ever wanted to show your support for eco-friendly eateries, </tspan><tspan x="116.3" y="7.2" class="st9 st10 st11">but couldn&apos;t figure out how?</tspan></text>
	<text transform="matrix(1 0 0 1 136.4858 164.9362)"><tspan x="0" y="0" class="st6 st10 st12">CafeCo provides users with nearby local cafes that </tspan><tspan x="0" y="10.2" class="st6 st10 st12">practice sustainability throughout their business.</tspan></text>
	<text transform="matrix(1 0 0 1 162.209 200.6071)"><tspan x="0" y="0" class="st9 st10 st13">Allowing you to find a convenient way to support environmentally </tspan><tspan x="36.8" y="7" class="st9 st10 st13">friendly businesses and get rewarded in the process.</tspan></text>
</g>
</svg>
