<?xml version="1.0" encoding="utf-8"?>
<!-- Generator: Adobe Illustrator 19.2.0, SVG Export Plug-In . SVG Version: 6.00 Build 0)  -->
<svg version="1.1" id="svg" xmlns="http://www.w3.org/2000/svg" xmlns:xlink="http://www.w3.org/1999/xlink" x="0px" y="0px"
	 viewBox="0 0 400 300" style="enable-background:new 0 0 400 300;" xml:space="preserve">
<style type="text/css">
	.st0{fill:#F8C960;}
	.st1{display:none;}
	.st2{display:inline;fill:#C98C75;}
	.st3{display:inline;fill:#122D39;}
	.st4{display:inline;fill:#E4F3EB;}
	.st5{display:inline;fill:#84C4AB;}
	.st6{display:inline;fill:#FBD38C;}
	.st7{fill:#EEEEEE;}
	.st8{font-family:'Muli-BoldItalic';}
	.st9{font-size:36px;}
	.st10{enable-background:new    ;}
	.st11{fill:#333333;}
	.st12{font-family:'Muli-Regular';}
	.st13{font-size:6px;}
	.st14{font-size:8.5px;}
	.st15{font-size:5.7964px;}
	.st16{fill:#38D39F;}
	.st17{fill:#FFFFFF;stroke:#3F3D56;stroke-miterlimit:10;}
	.st18{fill:none;stroke:#3F3D56;stroke-miterlimit:10;}
	.st19{fill:#F2F2F2;}
	.st20{fill:#FF6584;}
	.st21{fill:#FBBEBE;}
	.st22{fill:#3F3D56;}
	.st23{opacity:0.1;enable-background:new    ;}
	.st24{display:none;fill:none;stroke:#3F3D56;stroke-miterlimit:10;}
	.st25{fill:#57B894;}
</style>
<path class="st0" d="M339.2,235H60.8c-6.6,0-12-5.4-12-12V77c0-6.6,5.4-12,12-12h278.4c6.6,0,12,5.4,12,12v146
	C351.2,229.6,345.8,235,339.2,235z"/>
<g id="svgg" class="st1">
	<path id="path0" class="st2" d="M109,154.1c-0.2,0.2-0.3,0.4-0.3,0.4s-0.3,1.6-0.6,3.4c-0.8,4.3-1.1,6.7-1.2,9.5
		c-0.1,3.3,0.4,3.6,3,1.9c4.2-2.8,11.4-1.4,12.2,2.4l0.2,0.8l0.3-0.7c0.2-0.4,0.2-0.7,0.2-0.8c-0.1-0.1,0.1-0.4,0.2-0.7
		c0.2-0.3,0.3-0.7,0.3-0.9c0-0.6,0.1-1.3,0.3-1.4c0.1-0.1,0.3-0.8,0.6-1.7c0.6-2.1,0.5-2.3-2.1-2.6c-3.4-0.4-6.1-2.3-8.6-6
		C111.2,154.2,109.8,153.2,109,154.1 M103.8,157.7c-1.5,1-1.7,2.8-0.9,6.1c0.3,1.2,0.3,1.8,0.2,1.8c-0.2,0.1-0.1,0.5,0.2,1.3
		c0.6,1.8,0.5,5.7-0.5,9.5c-0.8,3.5-0.7,3.8,1.6,6c2.7,2.5,6.2,3.8,9.4,3.5c3.2-0.3,3.7-1,4.5-7.1c0.2-1.7,1.8-4.2,2.9-4.7
		c0.6-0.2,0.6-0.3,0.2-0.3c-0.8,0-1.1,0.2-2.3,1.9c-3.3,4.8-7.2,5.2-10.9,1.3c-3.4-3.5-4.4-9.6-3-17.1
		C105.6,157.2,105.4,156.7,103.8,157.7 M127.8,183.4c-3.1,0.4-5.1,1-5.5,1.7c-0.1,0.1-0.5,0.5-1,0.8c-0.7,0.5-0.9,0.6-0.9,1.4
		c0,0.5-1,3.5-2.7,8c-3.2,8.4-3.2,8.3-2.5,9.6c0.9,1.9,2.3,2.2,6.9,1.4c1.5-0.2,1.5-0.3,2.8,3.9c0.7,2.1,1.5,4.6,1.7,5.5
		c0.3,0.9,1.3,4.1,2.2,7.1c3.6,12,5.6,14.7,11,14.7c4.7,0,7.1-2.7,7.5-8.7c0.6-9.2,0.6-10.1-0.8-9.6c-0.3,0.1-1.3,0.2-2.1,0.2h-1.5
		l-0.9-1.3c-0.5-0.7-2.1-2.9-3.4-4.8c-1.4-1.9-2.9-4-3.4-4.5c-0.5-0.6-1.1-1.3-1.4-1.8c-0.3-0.4-1.2-1.6-2-2.7
		c-1.7-2.2-1.7-2.1-0.7-3.4c2.3-3.1,3.5-6.9,2.7-9.3c-0.3-0.8-0.2-1,0.4-3c0.8-2.3,0.8-3,0-4.2C133.1,183,132.3,182.8,127.8,183.4
		 M133,184c1.5,1,1.6,2,0.7,4.6c-1.6,4.6-3.8,5.3-6.6,2.1c-0.6-0.7-1.8-2-2.8-3c-1.7-1.8-1.7-1.8-1.4-2.2
		C124,184.2,131.7,183.1,133,184 M111.7,188.1c-6.2,0.9-8.2,2.5-8.8,7.1c-0.1,1-0.3,1.4-1.1,2.2c-0.5,0.5-2.5,2.8-4.5,4.9
		c-2,2.2-4.5,4.9-5.5,6.1c-3.8,4.4-4.4,4.8-7.6,6.4c-3.8,1.9-5.7,2.4-7.7,2.4h-1.7l0.1,1.1c0.2,1.9,0.7,4.3,1.6,7.3
		c0.4,1.6,1,3.6,1.2,4.6c1.6,6.5,7.6,8.7,13.5,5c2.5-1.6,7-10.5,14.3-28.3c2.6-6.5,2.2-5.9,4.1-6.1c5-0.7,5.9-1.9,4.1-5.1
		c-1.9-3.2-1.7-3.6,2.1-5.4C120.2,188.3,118.1,187.2,111.7,188.1 M122.8,190.6l1.8,2l-1.3,1.5c-2.9,3.2-3.3,5.7-1.3,8.5
		c2.1,2.9,1.9,3.2-1.9,3.6c-5.1,0.5-5.7-0.7-3.5-6.7c0.7-1.9,1.8-4.9,2.5-6.7c1.2-3.1,1.6-4.1,1.7-4.1
		C121,188.7,121.8,189.5,122.8,190.6 M97.4,254.7c-0.1,0.1-0.1,0.3-0.1,0.4c0,0.2,0.1,0.2,0.2,0c0.1-0.1,0.4-0.3,0.6-0.4
		c0.4-0.1,0.4-0.1,0-0.1C97.8,254.6,97.5,254.6,97.4,254.7 M91.4,255.6c0.2,0.1,0.6,0.1,0.8,0c0.2-0.1,0-0.1-0.4-0.1
		S91.2,255.5,91.4,255.6"/>
	<path id="path1" class="st3" d="M114.2,136.4c-3.8,0.7-6.1,1.7-7.8,3.5c-0.9,0.9-1.3,1.2-1.9,1.3c-3.1,0.4-5.8,3.8-6.5,8.4
		c-0.6,3.6,0.3,7.4,2.8,12.6c2.1,4.2,2.8,4.8,2.1,1.8c-0.9-4-0.5-5.7,1.4-6.5c1.2-0.5,1.3,0,0.8,2.5c-1.5,7.5-0.4,13.6,3,17.1
		c3.7,3.9,7.6,3.4,10.9-1.3c1.2-1.7,1.5-1.9,2.3-1.9c0.5,0,0.9-0.6,0.9-1.4c0-0.4,0.1-0.5,0.3-0.4c0.2,0.1,0.2,0.1,0.1-0.1
		c-0.1-0.1-0.2-0.2-0.4-0.1s-0.2-0.1-0.2-0.3c0-0.3-0.4-0.9-1-1.4c-2.9-2.8-7.6-3.1-11.1-0.7c-2.6,1.8-3.1,1.5-3-1.9
		c0.1-3.2,1.3-11.4,1.9-13.1c0.6-1.5,2.3-0.3,4.6,3.2c2.5,3.7,5.1,5.6,8.5,6c1.4,0.2,2,0.3,2.3,0.7l0.5,0.5l1-0.5
		c1.9-0.9,3.3-2.5,3.3-3.8c0-1.4,1.3-2.5,3.1-2.7c3.8-0.4,5.4-5.4,2.6-8.3l-1.1-1.1l-1.1,0.2c-3.2,0.7-6.1-1.4-8-5.7
		C122.4,137.7,118.9,135.5,114.2,136.4 M127.6,184c-5.2,0.6-5.7,1.2-3.4,3.6c1,1,2.2,2.3,2.8,3c2.8,3.2,5,2.5,6.6-2.1
		c0.8-2.3,0.8-2.5,0.2-3.5C133,183.5,132.4,183.4,127.6,184 M120.6,189.1c-0.1,0.2-0.8,1.9-1.4,3.7c-0.7,1.8-1.8,4.8-2.5,6.7
		c-2.3,6-1.6,7.2,3.5,6.7c3.8-0.4,4-0.7,1.9-3.6c-2-2.8-1.7-5.2,1.3-8.5l1.3-1.5l-1.8-2C120.8,188.4,120.9,188.5,120.6,189.1"/>
	<path id="path2" class="st4" d="M73.4,88.5c0.1,0.1-0.1,0.1-0.3,0.1c-0.2-0.1-0.4,0-0.4,0.1s-0.4,0.2-1,0.1c-0.6,0-1.4,0.1-2,0.3
		c-0.6,0.2-1.3,0.4-1.6,0.4c-0.3,0-0.6,0-0.6,0.1s-0.7,0.2-1.5,0.2s-1.6,0.2-1.7,0.3s-0.3,0.1-0.4,0.1c-0.1-0.1-0.1,0-0.1,0.1
		c0,0.2-0.2,0.2-0.5,0.1s-0.6,0-0.8,0.2s-0.4,0.3-0.6,0.2c-0.1,0-0.3,0-0.3,0.1s-0.3,0.2-0.7,0.1s-0.7,0-0.7,0.2
		c0,0.1-0.1,0.2-0.2,0.1c-0.1-0.1-0.2,0-0.2,0.1s-0.1,0.2-0.3,0.1s-0.3,0-0.3,0.1s-0.2,0.2-0.4,0.2c-0.6,0-2.8,0.9-3.2,1.2
		c-0.1,0.1-0.4,0.2-0.5,0.1s-0.3,0-0.4,0.2c-0.1,0.2-0.2,0.3-0.3,0.3c-0.4,0-1.3,0.3-1.2,0.5c0.1,0.1-0.2,0.2-0.5,0.2
		s-0.6,0.1-0.7,0.2c0,0.1-0.2,0.2-0.3,0.1s-0.4,0-0.7,0.3c-0.2,0.2-0.5,0.4-0.5,0.4c-0.2-0.1-1.6,0.7-1.5,0.9
		c0.1,0.1-0.1,0.2-0.3,0.2s-0.6,0.1-0.8,0.3c-0.2,0.2-0.5,0.3-0.7,0.3s-0.3,0.1-0.2,0.3c0.1,0.2,0.1,0.2-0.1,0.1
		c-0.2-0.1-1.8,0.8-2.1,1.2c-0.1,0.1-0.2,0.2-0.2,0.1s-0.2,0-0.3,0.2c-0.2,0.2-0.3,0.3-0.2,0.1c0.1-0.2-0.4,0.1-1.1,0.6
		c-0.7,0.5-1.2,1-1.2,1.1s-0.1,0.1-0.2,0.1c-0.1-0.1-0.6,0.3-1.1,0.8s-0.8,0.8-0.7,0.6c0.1-0.2-0.1-0.1-0.6,0.3
		c-0.4,0.3-0.7,0.7-0.7,0.8s-0.1,0.2-0.2,0.2c-0.1,0-0.4,0.2-0.5,0.5s-0.3,0.5-0.3,0.5c-0.2-0.1-1.1,0.3-1.1,0.4s-0.9,1.1-2,2.1
		c-1.1,1.1-2,2.1-2,2.2s-0.2,0.3-0.3,0.4c-0.2,0.1-0.3,0.2-0.2,0.4c0.1,0.2,0.1,0.2,0,0.1c-0.2-0.2-1.2,0.7-1.2,1.1
		c0,0.2-0.1,0.3-0.2,0.3c-0.2,0-1.1,1.2-1.2,1.5c0,0.1-0.2,0.4-0.4,0.7c-0.2,0.2-0.5,0.6-0.7,0.8c-0.7,0.8-1.1,1.5-0.9,1.7
		c0.1,0.1,0.1,0.2,0,0.1c-0.2-0.2-1,0.8-1,1.2c0,0.2-0.2,0.4-0.3,0.5c-0.2,0.1-0.3,0.2-0.2,0.3c0.1,0.1,0,0.3-0.2,0.3
		c-0.2,0.1-0.3,0.2-0.2,0.3c0.1,0.1,0,0.2-0.1,0.2c-0.3,0-1.2,1.7-1,1.9c0.1,0.1-0.1,0.3-0.3,0.5c-0.2,0.2-0.4,0.6-0.4,0.8
		c0,0.2-0.1,0.4-0.3,0.4c-0.3-0.1-0.3,0.1-0.4,0.8c0,0.2-0.1,0.3-0.2,0.2c-0.1-0.1-0.2,0-0.2,0.2s-0.2,0.8-0.5,1.4s-0.5,1.2-0.5,1.4
		c0,0.2-0.1,0.4-0.3,0.4c-0.2,0.1-0.6,1.3-0.5,1.6c0,0.1-0.1,0.2-0.2,0.2s-0.2,0.2-0.1,0.4s0,0.5-0.2,0.7s-0.3,0.4-0.2,0.6
		c0.1,0.2,0,0.3-0.1,0.3s-0.2,0.1-0.1,0.2c0.1,0.1,0,0.3-0.1,0.3c-0.1,0.1-0.2,0.3-0.1,0.5s0,0.5-0.2,0.7s-0.3,0.4-0.2,0.4
		c0.1,0,0,0.3-0.2,0.7s-0.3,0.8-0.2,1c0.1,0.2,0,0.3-0.1,0.2s-0.2,0-0.2,0.3c0,0.2-0.1,0.7-0.2,1s-0.2,0.9-0.2,1.4
		c0,0.4,0,0.7-0.1,0.7c-0.2-0.1-0.2,0.1-0.3,1c0,0.2-0.1,0.5-0.3,0.7c-0.1,0.2-0.2,0.6-0.2,1s-0.1,0.8-0.2,1s-0.2,0.6-0.3,1.1
		c0,0.4-0.2,1.5-0.3,2.4c-0.1,0.9-0.3,2.6-0.3,3.8s-0.1,2.1-0.2,2.1c-0.1,0-0.1,0.2-0.1,0.3c0.1,0.2,0,0.3-0.1,0.2
		c-0.3-0.2-0.3,9.4,0,9.9c0.1,0.2,0.3,1.2,0.3,2.1c0.1,1,0.2,2.6,0.3,3.7c0.1,1.1,0.2,2.3,0.3,2.6c0,0.4,0.1,0.8,0.2,1
		s0.2,0.5,0.2,0.7s0.1,0.4,0.2,0.6c0.1,0.2,0.1,0.3-0.1,0.2c-0.3-0.2-0.3,0-0.1,0.5c0.1,0.2,0.3,0.8,0.4,1.4c0.5,1.8,1.4,4.7,1.6,5
		c0.1,0.2,0.3,0.5,0.3,0.7s0.4,1,0.8,1.8s0.7,1.4,0.7,1.5s0.2,0.4,0.4,0.6c0.2,0.2,0.3,0.4,0.3,0.4c-0.1,0,0.2,0.5,0.5,1.1
		c0.4,0.6,0.9,1.7,1.3,2.3c0.6,1.2,1.8,2.8,2.8,3.8c0.3,0.3,0.4,0.5,0.4,0.6c-0.1,0.1,0.4,0.6,1,1.2c0.6,0.6,1,1.1,1,1.1
		c-0.1,0,1,1.3,2.4,2.6c1.4,1.4,2.3,2.1,2.6,2.1c0.1,0,0.1,0,0.1,0.1c-0.1,0.2,0.7,1,1.6,1.6c0.3,0.2,0.8,0.6,1.2,0.9
		c0.4,0.3,0.6,0.4,0.5,0.2s0.1,0,0.4,0.3c0.3,0.4,0.6,0.6,0.6,0.5s0.2,0.1,0.5,0.4c0.3,0.3,0.7,0.5,0.9,0.5s0.3,0.1,0.3,0.2
		c0,0.1,0.2,0.3,0.5,0.4c0.3,0.1,0.7,0.3,0.9,0.6c0.2,0.2,0.6,0.4,0.7,0.3c0.2-0.1,0.3,0,0.3,0.1s0.1,0.2,0.3,0.2s0.3,0.1,0.3,0.2
		s0.1,0.2,0.2,0.1c0.1-0.1,0.2,0,0.2,0.1s0.2,0.2,0.4,0.2s0.4,0.1,0.4,0.2c0,0.1,0.1,0.2,0.2,0.2c0.1,0,0.5,0.2,1,0.5s0.9,0.5,1,0.4
		s0.3,0,0.5,0.2c0.4,0.4,2.6,1.4,3.5,1.5c0.3,0.1,0.7,0.2,0.8,0.3c0.6,0.4,7,3.5,7.2,3.5c0.1,0,0.3,0.1,0.3,0.3s0.1,0.3,0.2,0.3
		c0.1,0,0.4,0.2,0.7,0.4s0.6,0.4,0.8,0.4s0.3,0.1,0.3,0.2s0.1,0.2,0.2,0.1c0.1-0.1,0.3,0.1,0.3,0.3c0.1,0.2,0.3,0.4,0.4,0.4
		c0.1,0,0.2,0.1,0.2,0.2c0,0.1,0.3,0.6,0.8,0.9c0.5,0.3,0.8,0.7,0.7,0.8s0,0.1,0.2,0.1s0.3,0.1,0.3,0.2c-0.1,0.1,0,0.4,0.2,0.6
		c0.2,0.2,0.3,0.3,0.2,0.1s-0.1-0.3,0.1-0.1c0.1,0.1,0.2,0.3,0.2,0.5s0,0.6,0.1,0.8c0.5,1.3,0.5,1.7,0.6,3.3c0,1.1,0,1.9-0.2,2
		c-0.1,0.1-0.4,0.8-0.6,1.6c-0.2,0.8-0.6,1.5-0.7,1.7c-0.2,0.1-0.3,0.3-0.2,0.3s0,0.2-0.3,0.4s-0.4,0.6-0.4,0.8s-0.1,0.3-0.2,0.3
		c-0.1,0-0.2,0.2-0.2,0.4s-0.1,0.3-0.1,0.2c-0.2-0.2-1.6,1.2-1.5,1.4c0.1,0.1,0,0.2-0.2,0.2s-0.5,0.2-0.8,0.5
		c-0.6,0.5-0.7,0.6-1.1,0.6c-0.1,0-0.2,0.1-0.1,0.3c0.1,0.1,0.1,0.2-0.1,0.1c-0.1-0.1-0.8,0.1-1.5,0.4c-0.7,0.3-1.4,0.6-1.6,0.5
		c-0.2,0-0.2,0-0.1,0.2c0.1,0.2,0.1,0.2,0,0.1c-0.3-0.2-2,0.3-2,0.5c0,0.1-0.1,0.2-0.2,0.2c-0.5-0.1-1.2,0.1-1.4,0.3
		s-0.4,0.3-0.5,0.2c-0.1,0-0.4,0.1-0.5,0.2c-0.2,0.2-0.4,0.3-0.5,0.2c-0.1,0-0.4,0.1-0.6,0.3c-0.2,0.2-0.5,0.3-0.6,0.3
		c-0.6,0-3.6,2.7-3.3,3c0.1,0.1,0,0.2-0.2,0.3s-0.6,0.7-1,1.4c-1.1,2.1-0.9,4.3,0.6,5.9c0.4,0.4,0.7,0.8,0.7,0.9
		c0,0.1,0.1,0.2,0.3,0.2s0.4,0.1,0.5,0.3s0.1,0.2-0.1,0.1c-0.2-0.1-0.2-0.1-0.1,0.1c0.2,0.3,1.4,1,1.8,1c0.1,0,0.2,0.1,0.2,0.2
		c0,0.1,0.2,0.3,0.4,0.5c0.4,0.2,0.4,0.2,0.3,0c-0.1-0.2,0-0.1,0.3,0.1c0.3,0.2,0.6,0.3,0.7,0.3c0.1-0.1,0.2,0,0.3,0.1
		c0,0.1,0.2,0.2,0.4,0.3c0.2,0,0.5,0.2,0.6,0.3c0.3,0.2,0.9,0.4,1.8,0.3c0.2,0,0.2,0,0.2,0.1c-0.1,0.1,1.8,0.9,2.6,1
		c0.2,0,0.6,0.1,0.8,0.2c0.2,0.1,0.8,0.2,1.5,0.2c0.6,0,1,0.1,1,0.2c-0.1,0.1,1,0.3,2.1,0.2c0.1,0,0.2,0.1,0.1,0.2
		c-0.1,0.1,0.1,0.2,0.4,0.1c0.3-0.1,0.6,0,0.7,0.1c0.1,0.1,0.3,0.2,0.5,0.1c0.2-0.1,0.3,0,0.2,0.1c-0.1,0.2,0.2,0.2,1.1,0.2
		c0.7,0,1.2,0,1.1,0.1c-0.1,0.2,3.2,0.6,4,0.5c0.4-0.1,1,0,1.3,0.1c0.8,0.3,18.3,0.5,18.4,0.1c0.1-0.1,0.1-0.1,0.1,0.1
		s0.2,0.2,0.7-0.1c0.4-0.2,0.8-0.3,1.1-0.3c0.4,0,0.4-0.1,0.2-0.5c-0.2-0.4-0.2-2.9-0.2-9.7c0.1-8.1,0-9.2-0.2-9.1
		c-0.2,0-0.9,0.3-1.6,0.5c-4.9,1.8-9.7-1-10.9-6.3c-0.2-0.8-0.6-2.5-1-3.8c-0.3-1.3-0.7-2.5-0.7-2.8c-0.1-0.4-0.5-0.7-1.3-1.2
		c-4.5-2.3-7-7.6-7.3-15c-0.2-6.5-1-7.3-6.2-6.1c-6,1.4-9.3-0.5-10-5.7c-0.5-3.4-1.8-3.8-5.8-1.8c-9.5,4.8-17.2-7-8.7-13.3
		c1.9-1.4,4.2-1.7,7.6-0.9c3.8,1,4.1,0.8,5.9-1.7c1.8-2.6,3.1-3.4,6.2-3.6c1.8-0.1,1.9-0.1,1.8-0.6c-0.3-0.9-0.4-4.3-0.2-7.2
		c0.5-7.9-0.7-9.8-8.1-12.6c-3.5-1.4-5.1-2.3-7-4.3c-10.7-11.3,1.8-28.8,15.7-22.1c3.2,1.5,5.1,3.9,7.7,9.4
		c4.8,10.1,6,11.1,16.6,12.7c10.5,1.6,15.4,8.4,13.5,18.3c-0.7,3.3-0.6,5,0.1,6.7c0.7,1.6,0.6,1.6,4,0.7c2.9-0.7,2.6-0.5,2.9-2.3
		c0.5-3.3,0.2-5.7-0.9-7.5c-2-3.3-3.6-6.8-4.3-9.8c-1.8-7.1,1.3-14.4,6.4-15.3c0.7-0.1,1.1-0.4,1.9-1.2c1.5-1.6,3.3-2.6,6.7-3.3
		c5.8-1.4,9.7,0.7,12.3,6.7c1.7,3.9,3.7,5.4,7.2,5.4h1l1-2.1c0.6-1.1,1-2.3,1-2.5s0.1-0.4,0.2-0.4c0.2,0,0.7-1.5,0.5-1.8
		c-0.1-0.1,0-0.1,0.1-0.1c0.2,0.1,0.2,0,0.1-0.4c-0.1-0.4-0.1-0.6,0.1-0.4c0.3,0.2,0.6-0.8,0.4-1.3c-0.1-0.2,0-0.3,0.1-0.4
		c0.6-0.2,0.9-10.7,0.2-11.3c-0.1-0.1-0.3-0.5-0.3-0.9c0-0.8-0.2-1.3-0.5-1.1c-0.1,0.1-0.2,0-0.1-0.3c0.2-0.6,0-1.1-0.3-1
		c-0.1,0.1-0.2,0-0.1-0.2c0.2-0.4-0.1-1.3-0.4-1.3c-0.1,0-0.2-0.1-0.2-0.1c0-0.1-0.1-0.3-0.2-0.4c-0.1-0.2-0.1-0.3,0.1-0.3
		c0.2,0,0.1-0.2,0-0.5s-0.3-0.5-0.4-0.5c-0.1,0-0.1-0.1-0.1-0.2c0.1-0.1,0-0.2-0.1-0.2s-0.2-0.1-0.1-0.2c0.1-0.1-0.1-0.4-0.3-0.7
		s-0.4-0.5-0.4-0.5c0.1-0.2-0.6-1.3-0.7-1.3c-0.1,0-0.2-0.1-0.1-0.1c0.1-0.1-0.2-0.5-0.5-1c-0.4-0.5-0.6-0.9-0.6-1.1
		c0-0.1-0.2-0.3-0.3-0.4s-0.3-0.3-0.3-0.3c0-0.4-0.3-0.8-0.5-0.7c-0.1,0.1-0.2,0-0.1-0.1c0.2-0.2-0.5-1.1-1.9-2.4
		c-0.4-0.4-0.9-1.1-1.1-1.4c-0.4-0.7-1.8-2.2-2.1-2.1c-0.1,0-0.2,0-0.2-0.1c0-0.3-0.3-0.6-0.6-0.6c-0.1,0-0.2-0.1-0.1-0.2
		c0.1-0.3-1.4-1.7-1.7-1.6c-0.1,0.1-0.2,0-0.1-0.1s-0.1-0.4-0.3-0.6c-0.3-0.3-0.4-0.3-0.3-0.1c0.1,0.2-0.1,0.1-0.4-0.2
		c-1.3-1.2-1.8-1.6-2-1.6c-0.1,0-0.1,0-0.1-0.1c0.1-0.1-0.2-0.5-0.7-0.8c-0.6-0.4-0.7-0.5-0.5-0.2c0.2,0.2,0,0.2-0.3-0.2
		c-1.1-1.1-2.1-1.9-2.3-1.9c-0.1,0-0.4-0.2-0.6-0.4c-0.8-0.7-1.1-0.9-1.2-0.8s-0.1,0-0.1-0.1c0-0.3-1.3-1-1.3-0.8
		c0,0.1-0.2,0-0.3-0.3c-0.2-0.2-0.3-0.3-0.3-0.2c0,0.1-0.2,0-0.3-0.2c-0.2-0.2-0.3-0.3-0.3-0.3s-0.2,0-0.3-0.2
		c-0.2-0.2-0.5-0.3-0.6-0.2c-0.1,0.1-0.2,0-0.1-0.1s0.1-0.3-0.1-0.3c-0.1,0-0.3,0-0.3,0c-0.1,0-0.3-0.2-0.6-0.4
		c-0.2-0.2-0.5-0.4-0.6-0.3s-0.3,0-0.3-0.1c-0.1-0.1-0.2-0.2-0.4-0.1c-0.1,0.1-0.2,0-0.1-0.1c0.2-0.3-3.1-1.8-3.6-1.6
		c-0.1,0-0.2-0.1-0.2-0.2s-0.1-0.2-0.2-0.1s-0.2,0-0.3-0.1c0-0.1-0.3-0.2-0.7-0.2s-0.5-0.1-0.5-0.2c0.1-0.1,0-0.2-0.2-0.2
		s-0.4,0-0.5-0.1c-0.1,0-0.3-0.1-0.5-0.2c-0.5-0.3-2.3-0.8-2.5-0.7c-0.1,0.1-0.2,0-0.2-0.1s-0.2-0.3-0.3-0.3c-0.2-0.1-0.3,0-0.2,0.1
		c0.2,0.3-0.1,0.3-0.5-0.1c-0.2-0.2-0.6-0.4-0.9-0.4s-0.7-0.1-0.9-0.2c-1.3-0.4-2.7-0.7-4.7-1c-0.6-0.1-1.5-0.3-2-0.5
		s-1.4-0.3-2.1-0.3s-1.2,0-1.1-0.1c0.2-0.3-1.6-0.4-7-0.4C75.6,88.3,73.3,88.4,73.4,88.5 M53.4,176.3c-1.2,0.6-1.6,0.9-2.4,2.2
		c-2.1,3.2-2.9,3.4-7,2.4c-3.6-0.9-5.4-0.6-7.5,1.3c-6.5,6,0.5,14.8,8.6,10.7c4.3-2.2,6.6-1.3,7.1,2.8c0.5,4.3,3.6,6.1,8.3,4.9
		c6.1-1.6,7.6-0.3,7.9,6.6c0.2,5.6,0.9,8.2,3.1,11.2c1.2,1.7,3.8,3.8,3.8,3c0-0.1-0.2-1.1-0.4-2.3c-0.8-4-0.9-5-1.2-8.8
		c-0.2-2.7-0.3-4.7-0.2-7.2c0.1-2.3,0.1-3.6-0.1-3.7c-0.1-0.1-0.3-0.8-0.5-1.7c-0.3-1.9-0.3-1.9-2.3-3.3c-7.6-5.6-17.6-9.1-26.1-9.1
		c-2.1,0-2.7-0.2-2.2-0.7c0.4-0.4,5.5-0.3,8.2,0.2c7,1.1,14.1,4.1,20.1,8.3c2.1,1.5,2.1,1.5,2.1-1.7c0-3.1,0-3.1-2-3.6
		c-3.1-0.8-4.8-2.1-6.7-5.6C60.6,176.5,57,174.4,53.4,176.3 M64.3,180.5c0,0.3,0.7,1.7,1.7,3.2c1.1,1.7,6.2,4.2,6.2,3
		c0-1.5-2.4-3.9-5.4-5.4C64.3,180,64.3,180,64.3,180.5 M144.1,192.7c-0.4,0.8-0.4,0.8,0.4,3.7c0.9,3.7,1.5,6.4,1.9,9.6
		c0.1,0.9,0.3,2.3,0.4,3.1c1.2,7.9,1.3,16.2,0.4,22.3c-0.9,6.1-7.6,8.6-12.4,4.8l-0.9-0.7l-0.2,0.5c-0.1,0.3-0.3,1.1-0.3,1.9
		c-0.1,0.8-0.3,2.5-0.6,3.9c-0.7,4.3-0.7,5.5,0,4.7c0.1-0.2,0.4-0.3,0.7-0.2c0.2,0.1,0.5,0,0.7-0.2s0.4-0.3,0.6-0.3
		c0.8-0.1,0.8-0.1,0.5-0.3s-0.3-0.2,0.1-0.2c0.8,0.1,1.2,0,1.1-0.3c-0.1-0.2,0-0.2,0.2-0.1c0.3,0.1,1.5-0.4,1.7-0.8
		c0.1-0.1,0.4-0.2,0.6-0.3c0.5-0.1,3-1.5,3.3-1.9c0.1-0.1,0.4-0.3,0.8-0.4c0.4-0.2,0.6-0.4,0.6-0.5c-0.1-0.1,0-0.2,0.1-0.1
		c0.1,0.1,0.4,0,0.5-0.1c0.2-0.2,0.7-0.5,1.1-0.7c0.4-0.2,0.8-0.5,0.7-0.6s0.1-0.2,0.3-0.2c0.3,0,1.7-0.9,2.1-1.3
		c0.1-0.1,0.5-0.4,0.9-0.6c0.5-0.3,0.8-0.6,0.7-0.7c-0.1-0.1,0-0.2,0.1-0.1c0.1,0.1,0.3,0.1,0.3,0s0.4-0.3,0.7-0.5
		c0.4-0.2,0.6-0.5,0.6-0.6s0-0.2,0.1-0.1c0.1,0.1,0.3,0,0.5-0.2s0.2-0.3,0.1-0.3s0-0.1,0.1-0.3c0.2-0.2,0.4-0.3,0.4-0.2
		s0.2,0,0.2-0.1s0.1-0.2,0.2-0.2c0.2,0.1,2.9-2.6,2.9-2.9c0-0.1,0.1-0.2,0.2-0.2c0.1,0,0.2-0.1,0.1-0.2c-0.1-0.1,0.2-0.3,0.5-0.6
		c0.4-0.2,0.6-0.5,0.6-0.7s0.1-0.3,0.2-0.3c0.1,0,0.2-0.1,0.2-0.2c-0.1-0.3,0.3-0.9,0.5-0.8c0.1,0.1,0.2,0,0.2-0.2s0.1-0.4,0.3-0.4
		c0.2-0.1,0.3-0.3,0.3-0.6s0.1-0.4,0.2-0.3c0.2,0.1,0.5-0.3,0.6-0.9c0-0.2,0.3-0.5,0.6-0.8s0.5-0.6,0.5-0.7c0-0.1,0.2-0.5,0.4-0.9
		s0.3-0.7,0.2-0.8s0-0.1,0.1-0.1s0.2-0.2,0.1-0.4c-0.1-0.3-0.1-0.3,0.1-0.2c0.2,0.1,0.2,0.1,0.2-0.1c-0.1-0.2,0-0.6,0.2-0.9
		c0.2-0.3,0.3-0.8,0.3-1.1s0.1-0.6,0.2-0.6c0.1,0,0.2-0.3,0.4-0.7s0.2-0.6,0-0.5c-0.1,0.1,0-0.1,0.2-0.5c0.5-0.8,0.6-7.6,0.1-8.7
		c-0.2-0.4-0.3-0.8-0.4-1.1c0-0.2-0.2-0.7-0.4-0.9c-0.2-0.3-0.3-0.6-0.2-0.7c0.1-0.1,0-0.3-0.2-0.3c-0.2-0.1-0.3-0.2-0.2-0.3
		s-0.1-0.4-0.3-0.6c-0.2-0.2-0.4-0.5-0.5-0.7c-0.1-0.6-2.4-3.4-2.7-3.4c-0.1,0-0.2-0.1-0.1-0.1c0.1-0.2-0.7-1.1-0.9-0.9
		c-0.1,0.1-0.2,0-0.3-0.1c-0.1-0.2-0.1-0.2,0.1-0.1c0.2,0.1,0-0.1-0.5-0.5c-0.4-0.4-0.9-0.7-1.1-0.8c-0.2-0.1-0.4-0.2-0.4-0.3
		s-0.3-0.4-0.7-0.7s-0.6-0.4-0.5-0.2s0,0.1-0.2-0.2c-0.4-0.5-2.4-1.7-2.9-1.9c-0.2,0-0.4-0.2-0.6-0.4c-0.1-0.2-0.5-0.3-0.8-0.3
		s-0.6-0.1-0.6-0.2c0-0.1-0.1-0.1-0.2,0c-0.1,0.1-0.2,0-0.2-0.1s-0.1-0.2-0.2-0.1c-0.1,0.1-0.2,0-0.2-0.1s-0.1-0.2-0.2-0.1
		c-0.1,0.1-0.2,0-0.2-0.1s-0.1-0.2-0.3-0.2c-0.5,0-0.9-0.2-1.4-0.6c-0.3-0.3-0.7-0.4-1.1-0.3c-0.4,0.1-0.7,0-0.8-0.1
		C144.5,192,144.3,192.2,144.1,192.7 M87.9,200.6c0,0.4,0.7,4.8,0.8,5c0.2,0.5,0.1-1.9-0.2-3.3C88.2,200.9,87.9,199.9,87.9,200.6
		 M133.6,201.8c0.1,0.3,0.2,1.4,0.4,2.5c0.2,1.7,0.6,3.5,0.6,2.8s-0.7-5.5-0.9-5.7C133.5,201.3,133.5,201.4,133.6,201.8 M88.8,206.9
		c0,0.6,0.1,1.2,0.2,1.4c0.3,0.4,0.3-0.4,0-1.6l-0.2-0.9V206.9 M164,213.3c0,0.5-0.1,0.1-0.1-0.8s0-1.3,0.1-0.8
		C164,212.1,164,212.8,164,213.3"/>
	<path id="path3" class="st5" d="M48.3,126.8c-7.1,2.1-11.5,10.4-9.1,17.4c1.6,4.8,4.7,7.7,10.3,9.9c7.4,2.9,8.7,4.8,8.1,12.6
		c-0.2,3-0.1,6.3,0.2,7.2c0.1,0.4,0,0.5-1.8,0.6c-3.1,0.2-4.4,1-6.2,3.6c-1.7,2.6-2.1,2.7-5.9,1.7c-3.3-0.8-5.6-0.6-7.6,0.9
		c-8.5,6.3-0.8,18.1,8.7,13.3c4-2,5.3-1.6,5.8,1.8c0.7,5.2,4.1,7,10,5.7c5.2-1.2,6-0.4,6.2,6.1c0.2,6.3,1.4,9.6,4.7,13
		c1.4,1.5,4.2,3.2,3.7,2.3c-0.1-0.2-0.2-0.6-0.2-0.9c0-0.3-0.1-0.5-0.4-0.5c-0.6,0-2.7-1.8-3.7-3.2c-2.2-3.1-2.9-5.7-3.1-11.2
		c-0.3-6.9-1.8-8.2-7.9-6.6c-4.7,1.2-7.8-0.6-8.3-4.9c-0.5-4-2.8-4.9-7.1-2.8c-8.1,4-15.1-4.8-8.6-10.7c2.1-1.9,3.9-2.2,7.5-1.3
		c4.1,1,4.9,0.8,7-2.4c3.4-5.1,8.9-3.5,12.9,3.7c2,3.5,3.6,4.9,6.7,5.6c2,0.5,2,0.5,2,3.6c0,3.3,0.1,3.2-2.1,1.7
		c-5.9-4.2-13.1-7.2-20.1-8.3c-2.7-0.4-7.8-0.5-8.2-0.2c-0.5,0.5,0.1,0.7,2.2,0.7c8.6,0,18.4,3.4,26.1,9.1c1.9,1.4,1.9,1.3,2.3,3.4
		c0.4,2.2,0.7,2,1.2-0.9c1.2-6.3,2.7-9.3,6.3-12c4-3.1,9.8-6.1,15.2-7.9c1.5-0.5,1.5-0.6,0.8-2.2c-0.7-1.7-0.8-3.4-0.1-6.7
		c2-9.9-3-16.7-13.5-18.3c-10.6-1.6-11.8-2.6-16.6-12.7C61.8,128,55.9,124.5,48.3,126.8 M115.2,135.8c-4.8,0.8-7.1,1.7-9,3.7
		c-0.8,0.9-1.2,1.1-1.9,1.2c-6,1-8.6,10-5.3,18.4c0.8,1.9,3.1,6.4,3.7,7.2l0.5,0.6l-0.2-0.6c-0.1-0.3-0.6-1.3-1-2.1
		c-3.4-6-4.6-10.8-3.9-14.9c0.8-4.5,3.4-7.9,6.5-8.3c0.6-0.1,1.1-0.4,1.9-1.3c1.7-1.8,4.4-3,8.4-3.6c4.3-0.7,7.8,1.7,9.9,6.5
		c1.7,4,4.2,6,7.3,5.9c1.1,0,1.6-0.4,0.5-0.4c-3.6-0.1-5.5-1.5-7.2-5.4C123,137.8,119.2,135.1,115.2,135.8 M66.7,181.3
		c3,1.6,5.4,4,5.4,5.4c0,1.2-5.1-1.2-6.2-3C63.6,179.9,63.7,179.7,66.7,181.3 M163.9,212.5c0,0.9,0,1.3,0.1,0.8c0-0.5,0-1.2,0-1.6
		C163.9,211.2,163.9,211.6,163.9,212.5 M68.7,255.6c0.2,0.1,0.6,0.1,0.8,0c0.2-0.1,0-0.1-0.4-0.1S68.5,255.5,68.7,255.6 M90,255.6
		c0.3,0.1,0.7,0.1,0.9,0c0.2-0.1,0-0.1-0.5-0.1S89.7,255.5,90,255.6 M75.7,256c2.3,0,5.9,0,8.1,0s0.3-0.1-4.1-0.1
		C75.3,256,73.5,256,75.7,256"/>
	<path id="path4" class="st6" d="M103.5,170.2c0,1.3,0,1.8,0.1,1.1c0-0.7,0-1.8,0-2.4C103.5,168.3,103.5,168.9,103.5,170.2
		 M103.2,173.3c-0.1,1.7-0.1,1.7-3.8,2.5c-1.2,0.3-2.5,0.6-2.8,0.8c-0.4,0.2-1.6,0.6-2.8,1.1c-2.7,1-6.9,2.9-7.3,3.4
		c-0.2,0.2-0.5,0.4-0.7,0.4c-1.4,0-8.5,5.6-8.5,6.7c0,0.1-0.2,0.5-0.5,0.8c-0.9,1.1-2,4.1-2.3,6.4c-0.1,0.7-0.3,1.9-0.5,2.7
		c-0.9,4.2-0.6,13,0.7,19.5c0.2,0.9,0.2,0.9,0.2,0.3v-0.7h1.7c2,0,3.9-0.6,7.7-2.4c3.2-1.6,3.8-2,7.6-6.4c1-1.2,3.5-3.9,5.5-6.1
		c2-2.2,4-4.4,4.5-4.9c0.7-0.8,0.9-1.2,1.1-2.2c0.6-4.6,2.6-6.2,8.9-7.1c6.5-0.9,8.4,0.2,4,2.3c-3.8,1.8-4,2.2-2.1,5.4
		c1.8,3.2,0.9,4.4-4.1,5.1c-1.8,0.3-1.4-0.3-4.1,6.1c-5.8,14.1-10.2,23.3-12.7,26.6c-1,1.3-1.8,1.9-3.9,2.7
		c-0.8,0.3-1.3,0.6-1.1,0.6c0.2,0,0.8-0.2,1.3-0.4c1.4-0.6,1.3-1,1.2,9c-0.1,7.6-0.1,9.3,0.2,9.6c0.3,0.4,3.1,0.7,3.4,0.4
		c0.1-0.1,0.6-0.1,1.2-0.1s1.1,0,1.1-0.2c0-0.1,0.2-0.2,0.5-0.2s0.6-0.1,0.6-0.2c0.1-0.2,0.3-0.3,0.6-0.3c0.5,0,0.5,0,0,0.2
		l-0.5,0.2h0.6c0.3,0,0.7-0.1,0.8-0.2c0.2-0.2,0.3-0.2,0.4,0s0.3,0.2,0.5,0c0.2-0.1,0.9-0.2,1.6-0.3c0.7,0,1.4-0.1,1.5-0.2
		c0.2-0.1,0.8-0.2,1.3-0.2s0.9-0.1,0.9-0.2c0-0.1,1.4-0.3,2.6-0.2c0.4,0,0.9-0.2,1.2-0.4c0.3-0.3,0.4-0.3,0.3-0.1
		c-0.2,0.3-0.1,0.3,0.1,0.1c0.2-0.1,0.7-0.2,1.1-0.2s0.8-0.1,0.8-0.2c0-0.1,0.4-0.2,0.7-0.1c0.4,0.1,0.9-0.1,1.2-0.3
		c0.4-0.2,0.6-0.3,0.6-0.1c0.1,0.2,0.3,0.1,0.9-0.1c0.5-0.2,1.1-0.3,1.3-0.3c0.3,0.1,0.5,0,0.5,0s0.3-0.2,0.8-0.4
		c0.5-0.1,0.8-0.2,0.8,0c0,0.1,0.2,0.1,0.5-0.1c0.3-0.2,0.7-0.3,0.9-0.4c1,0,1.3-0.1,1.3-0.3c-0.1-0.1,0-0.2,0.2-0.2
		c0.5,0,0.6-0.1,1-0.3c0.2-0.1,0.3-0.1,0.1,0.1c-0.1,0.2-0.1,0.2,0.3,0c0.2-0.1,0.7-0.3,1-0.3c0.3-0.1,0.7-0.2,0.8-0.4
		c0.1-0.2,0.2-0.2,0.2-0.1c0,0.1,0.2,0.1,0.3-0.1c0.2-0.2,0.4-0.2,0.5-0.1c0.1,0.1,0,0.1-0.2,0.1s-0.2,0.1-0.1,0.1
		c0.1,0.1,0.4,0,0.6-0.3c0.3-0.2,0.4-0.3,0.3-0.1s0,0.2,0.2,0.1c0.2-0.1,0.3-0.2,0.3-0.3s0.2-0.1,0.4-0.1c0.2,0,0.4,0,0.4-0.1
		s0.2-0.2,0.4-0.2c0.2,0,0.7-0.2,1-0.3c0.3-0.2,0.6-0.3,0.8-0.2s0.2,0.1,0.1-0.1c-0.1-0.2-0.1-0.3,0.2-0.2c0.2,0.1,0.4,0,0.5-0.1
		s0.2-0.2,0.3-0.1c0.1,0.1,0.3,0,0.4-0.2s0.3-0.3,0.4-0.3c1-0.1,1.2-0.4,1.3-1.6c0.1-0.7,0.3-2.4,0.5-3.9c0.2-1.4,0.5-3.3,0.6-4
		c0.1-0.8,0.2-1.6,0.3-1.9l0.2-0.5l0.9,0.7c3,2.4,7.3,2.3,10-0.2c1.1-1,2.2-2.8,2.2-3.5c0-0.2-0.2,0.3-0.5,1
		c-1.8,4.5-7.8,5.7-11.9,2.3c-2.3-1.9-3.1-3.6-5.8-12.7c-0.9-3-1.9-6.2-2.2-7.1c-0.3-0.9-1.1-3.4-1.7-5.5c-1.3-4.2-1.3-4.1-2.8-3.9
		c-4.6,0.7-6,0.4-6.9-1.4c-0.7-1.3-0.7-1.2,2.5-9.6c1.7-4.5,2.7-7.5,2.7-8c0-0.7,0.1-0.9,0.9-1.4c0.5-0.3,0.9-0.6,1-0.8
		c1-1.6,10-2.7,11.3-1.4c1.4,1.4,1.5,2.3,0.5,5c-0.7,1.9-0.7,2.1-0.4,2.9c0.8,2.3-0.3,6.2-2.7,9.3c-1,1.3-1,1.2,0.7,3.4
		c0.8,1,1.7,2.2,2,2.7c0.3,0.4,0.9,1.2,1.4,1.8s2,2.6,3.4,4.5s2.9,4.1,3.4,4.8l0.9,1.3h1.5c0.8,0,1.8-0.1,2.1-0.2
		c0.9-0.4,1.2,0,1.3,2c0,1,0.1,0.1,0-1.9c0-3.3-0.3-6-1-10.4c-0.1-0.8-0.3-2.2-0.4-3.1c-0.4-3.2-1-5.9-1.9-9.6
		c-0.7-2.7-0.7-3-0.4-3.5c0.2-0.4,0.3-0.8,0.1-1.3c-0.1-0.4-0.1-0.7,0-0.8s0-0.1-0.1,0c-0.2,0.1-0.3,0-0.3-0.4
		c0-0.3-0.1-0.6-0.2-0.6c-0.1,0-0.2-0.3-0.3-0.5c0-0.2-0.2-0.5-0.4-0.7c-0.2-0.1-0.3-0.3-0.2-0.4c0.1-0.3-0.7-2.1-0.9-1.9
		c-0.1,0.1-0.2,0-0.2-0.1c0.1-0.5-0.1-0.7-0.6-1.3c-0.3-0.3-0.4-0.5-0.2-0.3l0.4,0.3l-0.4-0.5c-0.2-0.3-0.5-0.6-0.6-0.8
		c-0.7-0.9-1-1.2-1.3-1.1c-0.1,0.1-0.2,0.1-0.1,0c0.1-0.1-0.1-0.4-0.3-0.5c-0.3-0.2-0.7-0.5-0.9-0.8s-0.5-0.5-0.7-0.5
		c-0.1,0-0.5-0.2-0.9-0.6c-0.4-0.3-0.8-0.5-0.9-0.5c-0.1,0.1-0.3-0.1-0.4-0.3c-0.1-0.2-0.3-0.4-0.5-0.4s-0.3-0.1-0.3-0.2
		c0-0.1-0.2-0.2-0.4-0.1c-0.3,0.1-0.4,0-0.4-0.2s-0.1-0.3-0.2-0.3c-0.5,0.1-0.9-0.1-0.8-0.2c0.1-0.2-0.5-0.5-1-0.5
		c-0.1,0-0.3-0.2-0.5-0.4s-0.5-0.3-0.6-0.3c-0.1,0.1-0.2,0-0.3-0.1s-0.3-0.2-0.6-0.1c-0.2,0-0.4,0-0.4-0.1s-0.1-0.2-0.3-0.1
		c-0.2,0.1-0.4,0-0.5-0.1c-0.1-0.2,0-0.2,0.2-0.1c0.2,0.1,0.1,0-0.1-0.2c-0.2-0.2-0.6-0.3-0.9-0.3s-0.5-0.1-0.5-0.2
		c0-0.1-0.2-0.3-0.4-0.3c-1-0.1-1.1-0.1-1.1-0.3c0-0.1-0.2-0.1-0.3,0.1c-0.3,0.2-0.3,0.2-0.3,0s-0.1-0.3-0.3-0.2
		c-0.2,0-0.5,0-0.7-0.2s-0.3-0.2-0.3,0c0,0.1-0.1,0.2-0.2,0.1c-0.1-0.1-0.2-0.2-0.1-0.3c0.2-0.3-1.4,0-2,0.3
		c-0.9,0.6-2.3,3.1-2.5,4.5c-0.9,6.1-1.3,6.8-4.5,7.1s-6.7-1.1-9.4-3.5c-2.3-2.1-2.4-2.5-1.6-6c0.4-1.6,0.6-3,0.6-3.3
		C103.2,172.7,103.2,172.7,103.2,173.3 M88.4,202.2c0.3,1.4,0.4,3.9,0.2,3.3c-0.1-0.2-0.8-4.6-0.8-5
		C87.9,199.9,88.2,200.9,88.4,202.2 M134.2,204.3c0.4,2.9,0.4,3.3,0.1,2.5c-0.1-0.3-0.3-1.4-0.4-2.5c-0.1-1.1-0.3-2.2-0.4-2.5
		c-0.1-0.4-0.1-0.5,0.1-0.3C133.8,201.5,134,202.8,134.2,204.3 M89.2,208.1c0,0.4,0,0.5-0.2,0.2c-0.1-0.2-0.2-0.8-0.2-1.4v-1.1
		l0.2,0.9C89.1,207.1,89.2,207.8,89.2,208.1 M147.5,225.4c0,0.6,0,0.8,0.1,0.5s0-0.8,0-1.1C147.6,224.6,147.5,224.8,147.5,225.4
		 M147.3,228.7c0,1.1,0,1.5,0.1,1c0-0.5,0-1.4,0-2C147.4,227.2,147.3,227.6,147.3,228.7 M77.1,228.5c0.1,0.2,0.3,1.1,0.4,1.9
		c0.8,3.6,4.1,6.8,6.8,6.7c0.4,0,0.3-0.1-0.3-0.2c-3.3-0.6-5.5-3-6.3-6.5c-0.2-0.9-0.4-1.8-0.6-2C77,228.1,77,228.2,77.1,228.5
		 M86.4,237c0.2,0.1,0.6,0.1,0.8,0c0.2-0.1,0-0.1-0.4-0.1S86.2,237,86.4,237"/>
</g>
<g id="Layer_2">
	<text transform="matrix(1 0 0 1 191.2784 106.4987)" class="st7 st8 st9">Redeem.</text>
	<text transform="matrix(1 0 0 1 189.9061 132.2263)" class="st10"><tspan x="0" y="0" class="st11 st12 st13">Hold on your reciept and use the code given to redeem </tspan><tspan x="0" y="7.2" class="st11 st12 st13">a treat.</tspan></text>
	<text transform="matrix(1 0 0 1 182.4858 165.9362)" class="st10"><tspan x="0" y="0" class="st7 st12 st14">Claim your credits and convert them into </tspan><tspan x="0" y="10.2" class="st7 st12 st14">rewards that can give you freebies like a </tspan><tspan x="0" y="20.4" class="st7 st12 st14">free drink at your favorite eatery.</tspan></text>
	<text transform="matrix(1 0 0 1 182.209 207.6071)" class="st10"><tspan x="0" y="0" class="st11 st12 st15">We list featured cafes each week, allowing you to support</tspan><tspan x="0" y="7" class="st11 st12 st15">different eateries each time</tspan></text>
</g>
<g id="Layer_2_1_">
	<path class="st16" d="M96.5,105.1h36.7c0.7,0,1.2,0.6,1.2,1.3v3.1c0,0.7-0.5,1.3-1.2,1.3H96.5c-0.7,0-1.2-0.6-1.2-1.3v-3.1
		C95.3,105.7,95.9,105.1,96.5,105.1z"/>
	<path class="st17" d="M91.6,95.2h82.3c0.5,0,1,0.6,1,1.3V219c0,0.7-0.4,1.3-1,1.3H91.6c-0.5,0-1-0.6-1-1.3V96.5
		C90.6,95.8,91,95.2,91.6,95.2z"/>
	<path class="st18" d="M96.5,103.5h30.8c0.5,0,1,0.6,1,1.3v3.1c0,0.7-0.4,1.3-1,1.3H96.5c-0.5,0-1-0.6-1-1.3v-3.1
		C95.5,104.1,95.9,103.5,96.5,103.5z"/>
	<path class="st19" d="M99.9,124.2h63.8c0.5,0,1,0.6,1,1.3v0.3c0,0.7-0.4,1.3-1,1.3H99.9c-0.5,0-1-0.6-1-1.3v-0.3
		C98.9,124.8,99.3,124.2,99.9,124.2z"/>
	<path class="st19" d="M99.9,133.2h63.8c0.5,0,1,0.6,1,1.3v0.3c0,0.7-0.4,1.3-1,1.3H99.9c-0.5,0-1-0.6-1-1.3v-0.3
		C99,133.7,99.4,133.2,99.9,133.2z"/>
	<path class="st19" d="M100,142.1h63.8c0.5,0,1,0.6,1,1.3v0.3c0,0.7-0.4,1.3-1,1.3H100c-0.5,0-1-0.6-1-1.3v-0.3
		C99.1,142.7,99.5,142.1,100,142.1z"/>
	<path class="st18" d="M100.8,123h63.8c0.5,0,1,0.6,1,1.3v0.3c0,0.7-0.4,1.3-1,1.3h-63.8c-0.5,0-1-0.6-1-1.3v-0.3
		C99.8,123.6,100.2,123,100.8,123z"/>
	<path class="st18" d="M100.9,132h63.8c0.5,0,1,0.6,1,1.3v0.3c0,0.7-0.4,1.3-1,1.3h-63.8c-0.5,0-1-0.6-1-1.3v-0.3
		C99.9,132.6,100.3,132,100.9,132z"/>
	<path class="st18" d="M101,140.9h63.8c0.5,0,1,0.6,1,1.3v0.3c0,0.7-0.4,1.3-1,1.3H101c-0.5,0-1-0.6-1-1.3v-0.3
		C100,141.5,100.4,140.9,101,140.9z"/>
	<path class="st19" d="M145.2,167.8h-26.5c-0.6,0-1.1,0.5-1.1,1.1c0,0,0,0,0,0v3.8c0,0.6,0.5,1.1,1.1,1.1l0,0h1.4v19.5
		c0,0.6,0.5,1.1,1.1,1.1l0,0h20c0.6,0,1.1-0.5,1.1-1.1l0,0v-19.5h3c0.6,0,1.1-0.5,1.1-1.1l0,0v-3.8
		C146.3,168.3,145.8,167.8,145.2,167.8L145.2,167.8z"/>
	<path class="st18" d="M122.3,172.7h22.1l0,0v18.6c0,1.2-0.9,2.2-2.1,2.2l0,0h-18c-1.1,0-2.1-1-2.1-2.2l0,0L122.3,172.7L122.3,172.7
		z"/>
	<path class="st18" d="M120.8,166.6h25.3c0.9,0,1.7,0.8,1.7,1.8v2.5c0,1-0.7,1.8-1.7,1.8h-25.3c-0.9,0-1.7-0.8-1.7-1.8v-2.5
		C119.2,167.4,119.9,166.6,120.8,166.6z"/>
	<rect x="129.5" y="167.4" class="st16" width="5.3" height="26.1"/>
	<rect x="131.3" y="166.6" class="st18" width="4.3" height="26.8"/>
	<path class="st16" d="M131.5,160.5c1.5,2.8,1.1,6,1.1,6s-2.8-1.2-4.3-4c-1.5-2.8-2-5.4-1.1-6S130,157.8,131.5,160.5z"/>
	<path class="st16" d="M135,160.5c-1.5,2.8-1.1,6-1.1,6s2.8-1.2,4.3-4c1.5-2.8,2-5.4,1.1-6C138.4,156,136.4,157.8,135,160.5z"/>
	<path class="st18" d="M132.1,160.5c1.5,2.8,1.1,6,1.1,6s-2.8-1.2-4.3-4c-1.5-2.8-2-5.4-1.1-6S130.7,157.8,132.1,160.5z"/>
	<path class="st18" d="M134.3,160.5c-1.5,2.8-1.1,6-1.1,6s2.8-1.2,4.3-4c1.5-2.8,2-5.4,1.1-6S135.8,157.8,134.3,160.5z"/>
	<path class="st20" d="M54.3,111.5c0,0,4.4,8.9,3.7,13.7c-0.7,4.8-1.4,8.9,0,11.2c1.4,2.3-7.5-0.4-7.5-0.4v-13.3L54.3,111.5z"/>
	<path class="st21" d="M63.7,135.6c0,0-10.6,12.9-14,9.6c-3.3-3.2-6.4-10.9-3.9-13.4c1.3-1.3,1.4-3.9,1.2-6
		c-0.1-1.1-0.3-2.1-0.5-3.2c0,0,5.3-1.7,5.4,1.7c0,0.4,0.1,0.8,0.3,1.2c1,1.9,4.3,0.9,4.3,0.9L63.7,135.6z"/>
	<path class="st21" d="M55.8,127l0.7-0.6c2.8-0.2,5.6,0.3,8.2,1.3c4.2,1.7,11.6,3.2,13.7,2.7c2.1-0.6,7.2-1.7,7.2-1.7
		s5.6-2.5,6.8,0.6c1.2,3-7.5,3-7.5,3s-6.2,2.8-10.6,2.4s-10.1,1.8-12.7-0.5S55.8,127,55.8,127z"/>
	<path class="st21" d="M35,199.8h-4.7l-1.8,3.8l2.3,2.7c0,0,4.4-0.6,5.6-2.1C37.6,202.6,35,199.8,35,199.8z"/>
	<path class="st22" d="M34.2,199.8c0,0,2-1,0.7-2.1s-2.3-2.7-4.2-1.1c-1.9,1.5-11.4,9.3-9.7,12c1.8,2.7,2.3,2.1,3.2,1.5
		c0.9-0.6,3.7-2.9,6-2.9s1.4-3.2,0.5-4.2C29.9,202,33.5,199.8,34.2,199.8z"/>
	<path class="st21" d="M52.5,224.1l-1.9,3.6l1.9,2.3h5.4c0,0-1.8-3.8-1.1-5.5C57.6,222.8,52.5,224.1,52.5,224.1z"/>
	<path class="st22" d="M57.9,226.8c0,0-1.9,2.3-3.2,1.9s-3.4-2.5-3.4-2.5s-3.1,3.3-1.7,4.8c1.4,1.5,7,4.4,8.6,5.5
		c1.6,1.1,6.8,0.4,6.7-1c-0.2-1.3-2.8-2.9-4-4.6C59.7,229.3,57.9,226.8,57.9,226.8z"/>
	<path class="st22" d="M67.2,164.4c0,0,3.9,13.1-1.4,28.6c0,0-4.7,22.7-6.5,27.2c-1.8,4.6-1.8,6.5-1.8,6.5s-6.7,0.2-6.1-1.3
		c0,0,2.3-7.4,2.3-10.3c0-2.9,3.7-18.3,3.7-18.3l1.2-32.9L67.2,164.4z"/>
	<path class="st23" d="M67.2,164.4c0,0,3.9,13.1-1.4,28.6c0,0-4.7,22.7-6.5,27.2c-1.8,4.6-1.8,6.5-1.8,6.5s-6.7,0.2-6.1-1.3
		c0,0,2.3-7.4,2.3-10.3c0-2.9,3.7-18.3,3.7-18.3l1.2-32.9L67.2,164.4z"/>
	<path class="st22" d="M66.4,165.3c0,0,0,6.1-3.7,8.8c0,0,2.8,21.3-0.7,25.3c-3.5,4-9.3,2.3-9.3,2.3s-9.7,0.6-16.8,3.6
		c0,0-5.6-1.7-1.1-6.1c0,0,5.6-1.5,7.4-2.9c1.8-1.3,9.8-4,11.9-2.9c0,0-0.2-3.2-0.9-5.5c-0.6-2.1-1.8-8.4-1.8-8.4s-4.9-10.1,0-15.4
		S66.4,165.3,66.4,165.3z"/>
	<path class="st23" d="M52.3,125.5c-1.6,0.9-3.5,1-5.2,0.3c-0.1-1.1-0.3-2.1-0.5-3.2c0,0,5.3-1.7,5.4,1.7
		C52,124.8,52.1,125.2,52.3,125.5z"/>
	<ellipse class="st21" cx="49.3" cy="118.7" rx="6.5" ry="7"/>
	<path class="st16" d="M49,144.9c0,0,7.4,5.7,4,11.8c-3.3,6.1-2.3,9.5-2.3,9.5s6.3,0,8.4,1.5c2.1,1.5,8.8-1.1,8.8-1.1
		s1.1-7.6-0.4-11.2c-1.4-3.6-2.1-9.3-1.6-10.5c0.5-1.1,1.9-6.5-1.4-9.5l-1.9-1.1c0,0,1.2,5.5-6.9,2.1
		C55.8,136.4,54.1,147.6,49,144.9z"/>
	<polygon class="st16" points="55.9,126.6 56.1,126.8 62.8,134.4 63,134.6 63,134.6 63.1,135.1 63.4,136 62.3,134.7 55.9,127 
		55.6,126.7 	"/>
	<path class="st16" d="M56.4,136.9c0,0-5.5-5.1-9.3-3.8s1.9,12.7,3,12.8l0.5,0c0,0-7.2-9.5-3.2-12.4c0,0,5.1,0.6,9,4L56.4,136.9z"/>
	<path class="st21" d="M53,135.8l12.8,4.4l21.2,1.3c0,0,6.1,0.2,5.1,3.2s-6.7,0.8-6.7,0.8l-18.3,0.4c0,0-15.1-1.7-16.3-2.7
		C49.7,142.3,51.6,135.2,53,135.8z"/>
	<path class="st20" d="M47.4,124.6c0,0-0.7-1.5,0.7-3.2c0.7-0.9,1.3-2.7,1.8-4.3c0.4-1.5,1.8-2.5,3.3-2.2c1.3,0.2,2.6,0.3,3-0.3
		c0.9-1.1-0.2-7.2-7-5.9s-11.2-1.7-11.2,5.5c0,7.2,4.2,9.3,1.2,16.6c-3,7.2-8.8,8-5.4,12.8c3.3,4.8,12.1,6.1,12.6,4.4
		c0.5-1.7-2.1-8.4-0.4-11c1.8-2.7,4.7-5.5,3.9-7.2C49,127.8,47.4,124.6,47.4,124.6z"/>
	<line class="st24" x1="50.6" y1="237.1" x2="119.2" y2="237.1"/>
	<path class="st25" d="M170.4,134.1c2,0.9,4.1-0.4,4.9-2.9s-0.3-5.4-2.3-6.3c-0.7-0.3-1.4-0.4-2.1-0.2l0.1,2.5l-0.9-2.2
		c-0.9,0.6-1.6,1.5-1.9,2.8c-0.1,0.4-0.2,0.9-0.2,1.3C167.8,131.3,168.8,133.3,170.4,134.1z"/>
	<path class="st18" d="M175,163.4c-0.3-2.1,1.1-4,2.5-5.3c1.4-1.2,3-2.5,3.5-4.5c0.7-3-1.4-5.8-2.9-8.2c-1.2-1.8-2.2-3.7-3-5.8
		c-0.3-0.8-0.6-1.7-0.7-2.6c-0.1-1.3,0.2-2.7,0.5-3.9c1.1-4.2,2.3-8.5,3.6-12.6"/>
	<path class="st18" d="M170.5,133.4c2,0.9,4.1-0.4,4.9-2.9c0.7-2.5-0.3-5.4-2.3-6.3c-0.7-0.3-1.4-0.4-2.1-0.2l0.1,2.5l-0.9-2.2
		c-0.9,0.6-1.6,1.5-1.9,2.8c-0.1,0.4-0.2,0.9-0.2,1.3C167.9,130.7,169,132.7,170.5,133.4z"/>
	<path class="st25" d="M174.5,119.5c0.4-1.6,1.5-2.7,2.7-3.1l0.3,2.4l0.6-2.5c2.1,0,3.8,2.3,3.7,5c0,2.7-1.8,4.9-3.9,4.8
		c-2.1,0-3.8-2.3-3.7-5C174.3,120.6,174.4,120,174.5,119.5z"/>
	<path class="st18" d="M174.7,118.6c0.4-1.6,1.5-2.7,2.7-3.1l0.3,2.4l0.6-2.5c2.1,0,3.8,2.3,3.7,5c0,2.7-1.8,4.9-3.9,4.8
		c-2.1,0-3.8-2.3-3.7-5C174.5,119.7,174.6,119.1,174.7,118.6z"/>
	<path class="st25" d="M177.3,145.4c2,0.9,4.1-0.4,4.9-2.9c0.6-2.1,0-4.5-1.5-5.8l-0.4,1.9l-0.3-2.4c0,0,0,0,0,0
		c-2-0.9-4.1,0.4-4.9,2.9C174.3,141.7,175.4,144.5,177.3,145.4C177.3,145.4,177.3,145.4,177.3,145.4L177.3,145.4z"/>
	<path class="st18" d="M177.5,144.5c2,0.9,4.1-0.4,4.9-2.9c0.6-2.1,0-4.5-1.5-5.8l-0.4,1.9l-0.3-2.4c0,0,0,0,0,0
		c-2-0.9-4.1,0.4-4.9,2.9C174.5,140.8,175.5,143.6,177.5,144.5C177.5,144.5,177.5,144.5,177.5,144.5L177.5,144.5z"/>
	<path class="st25" d="M173.4,153.5c0.4,2.7,2.3,4.4,4.4,4s3.4-3,3.1-5.7c-0.4-2.7-2.3-4.4-4.4-4c-0.9,0.2-1.8,0.9-2.3,1.8l1.7,3.3
		l-2.3-1.7C173.3,152,173.3,152.8,173.4,153.5z"/>
	<path class="st18" d="M173.5,152.9c0.4,2.7,2.3,4.4,4.4,4c2.1-0.5,3.4-3,3.1-5.7c-0.4-2.7-2.3-4.4-4.4-4c-0.9,0.2-1.8,0.9-2.3,1.8
		l1.7,3.3l-2.3-1.7C173.5,151.3,173.4,152.1,173.5,152.9z"/>
</g>
</svg>
