<?xml version="1.0" encoding="utf-8"?>
<!-- Generator: Adobe Illustrator 19.2.0, SVG Export Plug-In . SVG Version: 6.00 Build 0)  -->
<svg version="1.1"
	 id="svg5456" inkscape:version="0.92.4 (5da689c313, 2019-01-14)" sodipodi:docname="leaf-opaque.svg" xmlns:cc="http://creativecommons.org/ns#" xmlns:dc="http://purl.org/dc/elements/1.1/" xmlns:inkscape="http://www.inkscape.org/namespaces/inkscape" xmlns:rdf="http://www.w3.org/1999/02/22-rdf-syntax-ns#" xmlns:sodipodi="http://sodipodi.sourceforge.net/DTD/sodipodi-0.dtd" xmlns:svg="http://www.w3.org/2000/svg"
	 xmlns="http://www.w3.org/2000/svg" xmlns:xlink="http://www.w3.org/1999/xlink" x="0px" y="0px" viewBox="0 0 262 259.7"
	 style="enable-background:new 0 0 262 259.7;" xml:space="preserve">
<style type="text/css">
	.st0{fill:#45B549;}
	.st1{fill:#009549;}
</style>
<path id="path5458" inkscape:connector-curvature="0" class="st0" d="M124.6,66.3c84.8-9.3,112.4-63,112.5-63
	c1.4-2.7,4.7-3.7,7.4-2.3c1.3,0.7,2.3,1.9,2.7,3.4C275.4,100,260,166,227.7,205.1c-12.5,15.2-28.6,27.2-46.8,34.9
	c-16.8,7.1-34.9,10.2-53.1,9c-34.8-2.4-66.5-21-81.2-54.3c-3.8-8.5-6.2-17.5-7.2-26.8c-2.1-18.5,1.6-37.3,10.4-53.7
	c9.5-17.5,24.5-31.4,42.8-39.4C102.7,70.4,113.5,67.5,124.6,66.3L124.6,66.3z"/>
<path id="path5460" inkscape:connector-curvature="0" sodipodi:nodetypes="sccccsccccccccccccccccs" class="st1" d="M242.1,0
	c-3-0.1-5.5,2.3-5.6,5.3c0,0.2-4,54-55.1,111.3l-3.3-33.4c0-0.1,0-0.2,0-0.4c-0.4-3-3.1-5.1-6.1-4.7c-3,0.4-5.1,3.1-4.7,6.1
	l4.4,43.1c-16.5,16.6-34.9,31.3-54.7,43.8l-0.7,0.5c-37.9,24.2-89.9,40.8-115.7,79.7c-1,1.9-0.9,5.2,2.2,7.1
	c3.1,1.8,6.6,1.4,7.8-0.1c25.1-35.4,76.5-55.4,110.1-76.7l48,9c2.7,0.3,5.2-1.5,5.9-4.2c0.7-2.9-1.1-5.9-4-6.6l-36.8-6.8
	c17-11.7,32.7-25,47.1-39.8l0.6-0.6c61.2-63.5,66-126.2,66-126.5c0-0.2,0.1-0.4,0.1-0.7C247.5,2.6,245.1,0.1,242.1,0z"/>
</svg>
