<?xml version="1.0" encoding="utf-8"?>
<!-- Generator: Adobe Illustrator 19.2.0, SVG Export Plug-In . SVG Version: 6.00 Build 0)  -->
<svg version="1.1"
	 id="svg4868" inkscape:version="0.92.4 (5da689c313, 2019-01-14)" sodipodi:docname="Location.svg" xmlns:cc="http://creativecommons.org/ns#" xmlns:dc="http://purl.org/dc/elements/1.1/" xmlns:inkscape="http://www.inkscape.org/namespaces/inkscape" xmlns:rdf="http://www.w3.org/1999/02/22-rdf-syntax-ns#" xmlns:sodipodi="http://sodipodi.sourceforge.net/DTD/sodipodi-0.dtd" xmlns:svg="http://www.w3.org/2000/svg"
	 xmlns="http://www.w3.org/2000/svg" xmlns:xlink="http://www.w3.org/1999/xlink" x="0px" y="0px" viewBox="0 0 344.8 512"
	 style="enable-background:new 0 0 344.8 512;" xml:space="preserve">
<style type="text/css">
	.st0{fill:#1AB975;}
	.st1{fill:#4AC785;}
	.st2{fill:#EF5439;}
	.st3{fill:#B9B9BE;}
	.st4{fill:#D2D2D7;}
	.st5{fill:#EBEBF0;}
</style>
<sodipodi:namedview  bordercolor="#666666" borderopacity="1.0" fit-margin-bottom="0" fit-margin-left="0" fit-margin-right="0" fit-margin-top="0" id="base" inkscape:current-layer="g4905" inkscape:cx="-231.53121" inkscape:cy="298.47617" inkscape:document-units="mm" inkscape:pageopacity="0.0" inkscape:pageshadow="2" inkscape:window-height="1013" inkscape:window-maximized="1" inkscape:window-width="1920" inkscape:window-x="-9" inkscape:window-y="-9" inkscape:zoom="0.35" pagecolor="#ffffff" showgrid="false">
	</sodipodi:namedview>
<g id="layer1" transform="translate(-42.738465,-47.182941)" inkscape:groupmode="layer" inkscape:label="Layer 1">
	<g id="g4905" transform="matrix(0.35277735,0,0,0.35277735,42.738053,47.182941)">
		<path id="path4870" inkscape:connector-curvature="0" class="st0" d="M908.1,738.7l-339.9,664.1c-32.8,64.5-125.6,65.1-159,0
			L69.3,738.7C-123,417.5,106.9,0,488.7,0c16.2,0,32.2,0.7,47.8,2.2C888.8,35.3,1092.7,430.5,908.1,738.7z"/>
		<path id="path4872" inkscape:connector-curvature="0" class="st1" d="M908.1,738.7l-339.9,664.1c-7.7,15.2-18.8,26.9-31.7,35
			c-12.8-8.1-23.8-19.7-31.6-35L165,738.7C-19.1,431.2,183.8,35.3,536.5,2.2C888.8,35.3,1092.7,430.5,908.1,738.7z"/>
		<path id="path4874" inkscape:connector-curvature="0" class="st2" d="M882,489.6c0,217.2-176,393.2-393.2,393.2
			c-217.2,0-393.2-176-393.2-393.2c0-217.2,176-393.2,393.2-393.2C705.9,96.3,882,272.4,882,489.6z"/>
		<path id="path4876" inkscape:connector-curvature="0" class="st3" d="M699.9,555.1v266.3c-1.7,1.1-3.4,2.1-5.1,3.2
			c-29.5,18.2-60.5,32-92.2,41.6v-311H699.9z"/>
		<path id="path4878" inkscape:connector-curvature="0" class="st3" d="M375,465v401c-34.1-10.3-66.9-25.2-97.4-44.5V465H375z"/>
		<path id="path4880" inkscape:connector-curvature="0" class="st4" d="M443.2,483.8c0,69.7-34.9,128.6-82.8,147.9
			c-10.8,4.4-22.2,6.7-34.1,6.7c-64.5,0-116.8-69.2-116.8-154.6s52.3-192.1,116.8-192.1c11.8,0,23.3,3.6,34.1,10
			C408.3,330.1,443.2,414.1,443.2,483.8z"/>
		<path id="path4882" inkscape:connector-curvature="0" class="st5" d="M443.2,483.8c0,69.7-34.9,128.6-82.8,147.9
			c-47.9-19.3-82.8-78.2-82.8-147.9s34.8-153.6,82.8-182.1C408.3,330.1,443.2,414.1,443.2,483.8z"/>
		<path id="path4884" inkscape:connector-curvature="0" class="st4" d="M768,291.6v211.9v27c0,36.2-16.4,68.5-42.3,90c0,0,0,0,0,0
			c-20.2,16.8-46.2,26.8-74.6,26.8c-64.7,0-116.9-52.5-116.9-116.9V291.6c0-12.5,10.3-22.6,22.9-22.2c4,0.1,7.7,1.4,10.9,3.4
			c6.4,4.1,10.6,11.6,10.6,19.7v185.9c0,6.9,2.8,13.2,7.3,17.8c4.6,4.5,10.8,7.4,17.8,7.4c13.9,0,25.1-11.3,25.1-25.1V291.6
			c0-12.5,10.3-22.6,22.9-22.2c12.1,0.4,21.5,11,21.5,23.1v185.9c0,6.9,2.8,13.2,7.3,17.8c4.5,4.5,10.8,7.4,17.7,7.4
			c13.9,0,25.1-11.3,25.1-25.1V292.5c0-12.1,9.4-22.7,21.5-23.1C757.7,269.1,768,279.1,768,291.6L768,291.6z"/>
		<path id="path4886" inkscape:connector-curvature="0" class="st5" d="M768,291.6v211.9v27c0,36.2-16.4,68.5-42.3,90c0,0,0,0,0,0
			c-6.3,1.3-12.8,2-19.4,2c-84.2,0-152.5-110.1-152.5-245.9c0-37,5.1-72.2,14.2-103.7c6.4,4.1,10.6,11.6,10.6,19.7v185.9
			c0,6.9,2.8,13.2,7.3,17.8c4.6,4.5,10.8,7.4,17.8,7.4c13.9,0,25.1-11.3,25.1-25.1V291.6c0-12.5,10.3-22.6,22.9-22.2
			c12.1,0.4,21.5,11,21.5,23.1v185.9c0,6.9,2.8,13.2,7.3,17.8c4.5,4.5,10.8,7.4,17.7,7.4c13.9,0,25.1-11.3,25.1-25.1V292.5
			c0-12.1,9.4-22.7,21.5-23.1C757.7,269.1,768,279.1,768,291.6L768,291.6z"/>
	</g>
</g>
</svg>
