<?xml version="1.0" encoding="utf-8"?>
<!-- Generator: Adobe Illustrator 19.2.0, SVG Export Plug-In . SVG Version: 6.00 Build 0)  -->
<svg version="1.1"
	 id="svg8" inkscape:export-filename="C:\Users\Ena\Documents\cafecologo.png" inkscape:export-xdpi="96" inkscape:export-ydpi="96" inkscape:version="0.92.4 (5da689c313, 2019-01-14)" sodipodi:docname="cafecologo.svg" xmlns:cc="http://creativecommons.org/ns#" xmlns:dc="http://purl.org/dc/elements/1.1/" xmlns:inkscape="http://www.inkscape.org/namespaces/inkscape" xmlns:rdf="http://www.w3.org/1999/02/22-rdf-syntax-ns#" xmlns:sodipodi="http://sodipodi.sourceforge.net/DTD/sodipodi-0.dtd" xmlns:svg="http://www.w3.org/2000/svg"
	 xmlns="http://www.w3.org/2000/svg" xmlns:xlink="http://www.w3.org/1999/xlink" x="0px" y="0px" viewBox="0 0 251.1 88.3"
	 style="enable-background:new 0 0 251.1 88.3;" xml:space="preserve">
<style type="text/css">
	.st0{fill:#333333;}
	.st1{fill:#333333;stroke:#333333;stroke-width:2;stroke-opacity:0.995;}
</style>
<path id="flowRoot44" inkscape:connector-curvature="0" class="st0" d="M100.2,6.4c-2.1,0-4.4,2-6.8,5.9c-3.8,5.8-6.6,11.3-8.6,16.6
	c-0.6,1.3-2.1,2.5-4.5,3.4c-2.4,0.8-3.7,1.8-3.7,3c0.6,0.8,1.1,1.2,1.4,1.2h0.2c0.8,0,2-0.3,3.8-0.9c-0.1,0.7-0.3,1.4-0.4,2
	c-0.2,0-0.5,0.1-0.8,0.2c-4.6,4.4-8.7,6.6-12.5,6.6c-3.9,0-6.7-1.8-8.2-5.5c-0.9-4.1-1.4-6.5-1.7-7.1c-1-2.1-2.7-3.2-5.2-3.2
	l-1.7-0.1c-3.7,0.1-6.9,1.4-9.7,4c-1.7,1.9-3.1,3.7-4,5.5c-0.2,0.1-0.5,0.3-0.8,0.5c-3.3,3.5-5.6,5.7-6.7,6.6
	c-8,5.6-14.4,8.5-19.2,8.5c-1.3-0.1-2.3-0.2-2.9-0.5c-3.1-0.9-4.7-3.5-4.7-7.9V45c0-2.3,0.8-4.8,2.5-7.6c4.2-5.4,7.8-8,10.8-8
	c0.9,0,1.6,0.3,2,1c0.4,2,1,3,1.7,3h0.8c0.9-0.6,1.4-1.4,1.4-2.4c0-2.8-1.9-4.4-5.8-5c-2,0-4,0.7-6.2,2.1C3.7,32.5,0,38.4,0,45.7
	v0.5c0,0.7,0.1,1.5,0.3,2.4c1.9,5.8,5.5,8.7,10.9,8.7c4.4,0,9.1-1.4,14.1-4.2c4.6-2.4,8.1-4.7,10.7-7.1c0.4-0.4,0.7-0.6,1-1
	c0.1,0.3,0.1,0.5,0.2,0.8c1.5,3.2,3.6,4.8,6.5,4.8h0.1c3.7,0,7.1-2.1,10.3-6.3c1.4-2.5,2.1-3.8,2-3.8l0.2,0.2
	c2.5,5.1,6.5,7.6,12.1,7.6h0.5c0.5,0,1.2,0,2.1-0.1c3.6-0.9,6.7-2.3,9.2-4.2c-1.8,9.8-2.8,16.6-2.8,20.2v0.4c0,0.4,0,0.8,0.1,1.3
	c-0.3,1.4-0.5,2.5-0.5,3.4v1.1c0,0.9,0.3,3,0.9,6.4c1.8,7.8,4.8,11.6,8.8,11.6c0.5-0.1,0.8-0.1,1.1-0.1c2.9-1,5-3.1,6.5-6.1
	c1.8-5.9,2.7-10.2,2.7-13v-0.8c0-1.7-0.1-3.9-0.2-6.6l0,0L96.6,61v-0.9c-0.9-5.2-1.8-9.5-3-12.8c-1.5-2.6-2.3-4.1-2.5-4.8h0.1
	c5.1,0.5,8.8,0.8,11.1,0.8c0.8,0,1.6,0,2.2-0.1c1.7-0.3,3.1-0.7,4.3-1c0.3,2.5,0.7,3.8,1.2,3.8c1.3,2.1,3,4.1,5.3,5.9
	c3.8,1.4,6.6,2.1,8.4,2.1c1.8-0.2,2.9-0.2,3.3-0.2c3.6,0,8.8-1.5,15.4-4.5c2-1.5,3.7-2.8,5.2-4.1c0,0.2,0,0.3,0,0.5v0.5
	c0,0.7,0.1,1.5,0.3,2.4c1.9,5.8,5.5,8.7,10.9,8.7c4.4,0,9.1-1.4,14.1-4.2c2.5-1.3,4.7-2.6,6.6-3.9c-0.1,0.5-0.1,1-0.1,1.6v0.6
	c0,0.7,0.1,1.3,0.2,1.9c1.1,3.2,3,4.8,5.9,4.8h1.1c3.2,0,6.2-1.6,8.9-4.8c1-1.5,1.7-2.3,2.1-2.3c0.3,0,0.8,0,1.3,0.1
	c8.1,0,15.7-2.4,22.9-7.1c3.5-2.3,5.4-4,5.5-5c0-0.8-0.4-1.4-1.2-1.8h-0.4c-0.7,0-1.6,0.3-2.7,1c-7.9,6-15,9-21.6,9h-1.9
	c-0.4,0-0.6-0.1-0.6-0.4c0.3-1.4,0.5-2.7,0.5-3.8c0-0.9-0.2-1.9-0.6-2.8c-1-2.5-3.2-3.7-6.6-3.7c-1.2,0-2.8,0.3-4.6,0.9
	c-0.1,0.1-0.2,0.1-0.3,0.2h-0.1c-0.7,0-1.4,0.3-2.1,0.8c-3.3,3.5-5.6,5.7-6.7,6.6c-8,5.6-14.4,8.5-19.2,8.5
	c-1.3-0.1-2.3-0.2-2.9-0.5c-3.1-0.9-4.7-3.5-4.7-7.9V45c0-2.3,0.8-4.8,2.5-7.6c4.2-5.4,7.8-8,10.8-8c0.9,0,1.6,0.3,2,1
	c0.4,2,1,3,1.7,3h0.8c0.9-0.6,1.4-1.4,1.4-2.4c0-2.8-1.9-4.4-5.8-5c-2,0-4,0.7-6.2,2.1c-4.3,2.6-7.4,5.7-9.1,9.3
	c-0.5,0.5-1,1.2-1.6,2.1c-7,7-14.6,10.6-22.9,10.6H124c-2.5,0-4.8-0.5-6.6-1.5c-1.9-1.1-3.2-3-4.1-5.9v-0.1c0-0.1,0.1-0.2,0.2-0.3
	c5.4-1.7,8.7-2.8,9.7-3.3c4.4-2.8,6.8-5.6,7.2-8.2c0-1.9-1.5-3.1-4.6-3.5h-0.6c-1.3,0-2.7,0.4-4.2,1.2c-2.1,0.5-5,2.4-8.6,5.7
	c-0.8,1.2-1.5,2.3-2,3.3c-3.2,1.4-5.7,2.2-7.4,2.2h-2.5c-9.3-0.7-13.9-1.5-13.9-2.4c0.2-1.9,1-3.7,2.2-5.3c2.6-1.8,4.7-3.4,6.3-4.9
	c4.4-4.5,6.6-7.3,6.6-8.4c1.6-2.1,2.4-4.7,2.4-7.8v-0.6c0-2.5-1-3.8-2.9-3.8L100.2,6.4z M96.8,61.8l0.1,0.7h0.2L96.8,61.8z
	 M99.8,10.7L99.8,10.7c0,2.9-1.3,6.1-3.9,9.6c-1.7,2.3-3.6,4.2-5.5,5.8c0.5-1.3,2.4-4.7,5.7-10.2C97.2,13.8,98.4,12,99.8,10.7
	L99.8,10.7z M125.1,30.8h0.3c0.2,0,0.3,0.1,0.3,0.2c0,0.8-1.6,2.3-4.8,4.7c-3,1.4-5.1,2.2-6.4,2.3c0.1-0.3,0.5-0.9,1.3-1.8
	C117.9,33.6,121,31.9,125.1,30.8z M54.5,32.2V33c0,0.8-0.4,2.2-1.3,4.3c-3.1,6.4-6.1,9.5-9,9.5h-0.6c-1.8-0.5-2.7-1.9-2.7-4
	c0-1.3,0.5-2.6,1.5-4.1c2.5-4.4,5.9-6.6,10.3-6.5C53.9,32.3,54.5,32.2,54.5,32.2L54.5,32.2z M193.1,40.4c1.5,0,2.2,0.9,2.2,2.8
	c-0.3,2.1-0.5,3.2-0.6,3.2h-0.1c-0.3,0-0.8-0.2-1.4-0.5c-1.7-1-2.6-1.9-2.6-2.9C190.6,41.4,191.4,40.6,193.1,40.4z M84.6,41.7
	C84.7,41.7,84.7,41.7,84.6,41.7C84.7,41.7,84.6,41.7,84.6,41.7z M84.7,41.7c1.7,1,3.6,4.1,5.8,9.4c0.9,2.6,1.5,6,2,10.1l0,0
	c0,0.7,0,1.2,0.1,1.3c0.1,2.3,0.1,3.9,0.1,4.6c0,0.7,0,2.2-0.1,4.4c-0.1,0.2-0.1,0.6-0.1,1.3l0,0c-0.5,3.4-1,5.8-1.6,7.1
	c-1.6,3-2.9,4.4-3.8,4.4h-0.5c-0.5,0-1.5-1.3-2.8-3.9c-1.5-5-2.3-8.1-2.3-9.4h0.2c-0.1-1.4-0.2-2.3-0.2-2.7v-0.6l0.2-2.3l0,0
	c0.2-1,0.2-2.3,0.2-4C83.3,48.4,84.3,41.7,84.7,41.7L84.7,41.7z M186.3,43.5c0.7,2.2,1.9,3.8,3.6,4.9c1.9,0.9,2.8,1.4,2.8,1.5
	l-0.1,0.4c-2.1,2.9-4.2,4.4-6.3,4.4c-0.5,0-0.8-0.1-1-0.2c-1.4-0.6-2.1-1.8-2.1-3.6c0.2-1.4,0.2-2.1,0.2-2.2
	c0.9-2.3,1.6-3.8,2.1-4.6C185.9,43.9,186.2,43.7,186.3,43.5z"/>
<path id="path52-8" inkscape:connector-curvature="0" sodipodi:nodetypes="cccccccccccccccccccccccccscccccccccccccccccc" class="st1" d="
	M242.6,1.3c-0.1-0.2-0.3-0.4-0.6-0.4l0,0c-0.5-0.1-1,0.2-1.1,0.7l0,0c0,0-2.2,10-15.6,15.2c-1.8,0.7-3.4,1.6-4.9,2.8
	c-2.6,2.1-4.5,5-5.3,8.3c-0.7,3.1-0.5,6.3,0.6,9.2c0.8,2.1,2.1,4.1,3.8,5.6c1.4,1.2,1.4,1.2,1.4,1.2c3.6,2.6,8.3,3.4,12.8,2.6
	c3-0.6,5.9-1.9,8.3-3.8c2.6-2,4.7-4.7,6.1-7.7C251.8,27.1,251.4,15.7,242.6,1.3z M220.9,41.4L220.9,41.4c-0.5-0.4-0.9-0.9-1.3-1.4
	c-0.9-1.1-1.6-2.3-2.1-3.6c-1-2.6-1.2-5.4-0.6-8.1c0.7-2.9,2.3-5.4,4.7-7.3c1.3-1.1,2.8-1.9,4.4-2.5c8.9-3.4,13.2-8.9,15.2-12.6
	c-0.2,5.8-1.7,11.5-4.4,16.7l-2-5.3c-0.2-0.5-0.7-0.7-1.2-0.6c-0.5,0.2-0.7,0.7-0.6,1.2c0,0,0,0,0,0.1l2.6,6.8
	C232.6,30,227.9,35.8,220.9,41.4z M246.5,34.2L246.5,34.2c-1.3,2.8-3.2,5.2-5.6,7.1c-2.2,1.7-4.8,2.9-7.5,3.4
	c-3.8,0.8-7.8,0.1-11-2.1c2.6-2.1,5-4.4,7.3-6.8l8.2-0.6c0.5-0.1,0.9-0.5,0.8-1c-0.1-0.5-0.5-0.9-1-0.8l-6.3,0.5
	c2.3-2.7,4.3-5.5,6-8.6c0,0,0.1-0.1,0.1-0.2C242,17,242.9,9.9,243,5.6C249.5,17.8,249.6,27.5,246.5,34.2z"/>
</svg>
