<svg xmlns="http://www.w3.org/2000/svg" width="326.041" height="238.5" viewBox="0 0 326.041 238.5"><defs><style>.a{fill:#38d39f;}.b{fill:none;stroke:#3f3d56;stroke-miterlimit:10;}.c{fill:#f2f2f2;}.d{fill:#ff6584;}.e{fill:#fbbebe;}.f{fill:#3f3d56;}.g{opacity:0.1;}.h{fill:#57b894;}</style></defs><g transform="translate(0 0.5)"><rect class="a" width="70.954" height="9.461" rx="4.73" transform="translate(135.23 16.556)"/><rect class="b" width="182.116" height="209.315" rx="5.421" transform="translate(126.558)"/><rect class="b" width="70.954" height="9.461" rx="4.73" transform="translate(137.201 13.797)"/><rect class="c" width="142.303" height="4.73" rx="2.365" transform="translate(144.494 48.485)"/><rect class="c" width="142.303" height="4.73" rx="2.365" transform="translate(144.691 63.465)"/><rect class="c" width="142.303" height="4.73" rx="2.365" transform="translate(144.888 78.444)"/><rect class="b" width="142.303" height="4.73" rx="2.365" transform="translate(146.465 46.515)"/><rect class="b" width="142.303" height="4.73" rx="2.365" transform="translate(146.662 61.494)"/><rect class="b" width="142.303" height="4.73" rx="2.365" transform="translate(146.859 76.473)"/><path class="c" d="M719.769,456.75h-48.2a1.918,1.918,0,0,0-1.918,1.918v6.413A1.918,1.918,0,0,0,671.572,467h2.615v32.573a1.918,1.918,0,0,0,1.918,1.918h36.371a1.918,1.918,0,0,0,1.918-1.918V467h5.374a1.918,1.918,0,0,0,1.918-1.918v-6.413A1.918,1.918,0,0,0,719.769,456.75Z" transform="translate(-479.434 -335.339)"/><path class="b" d="M504.057,329.5h40.207v31.163a3.723,3.723,0,0,1-3.723,3.723H507.78a3.723,3.723,0,0,1-3.723-3.723V329.5Z" transform="translate(-305.362 -199.811)"/><rect class="b" width="52.033" height="10.249" rx="5.124" transform="translate(192.979 119.44)"/><rect class="a" width="9.658" height="43.755" transform="translate(211.703 120.82)"/><rect class="b" width="7.884" height="44.938" transform="translate(215.054 119.44)"/><path class="a" d="M720.346,415.478a17.63,17.63,0,0,1,1.971,10.03,17.63,17.63,0,0,1-7.76-6.654c-2.687-4.607-3.57-9.1-1.971-10.03S717.659,410.871,720.346,415.478Z" transform="translate(-504.96 -306.202)"/><path class="a" d="M746.336,415.478a17.63,17.63,0,0,0-1.971,10.03,17.63,17.63,0,0,0,7.76-6.654c2.687-4.607,3.57-9.1,1.971-10.03S749.023,410.871,746.336,415.478Z" transform="translate(-524.643 -306.202)"/><path class="b" d="M723.346,415.478a17.63,17.63,0,0,1,1.971,10.03,17.63,17.63,0,0,1-7.76-6.654c-2.687-4.607-3.57-9.1-1.971-10.03S720.659,410.871,723.346,415.478Z" transform="translate(-506.778 -306.202)"/><path class="b" d="M743.336,415.478a17.63,17.63,0,0,0-1.971,10.03,17.63,17.63,0,0,0,7.76-6.654c2.687-4.607,3.57-9.1,1.971-10.03S746.023,410.871,743.336,415.478Z" transform="translate(-522.825 -306.202)"/><path class="d" d="M330.509,217.842s7.967,14.977,6.692,22.944-2.549,14.977,0,18.8-13.7-.637-13.7-.637V236.643Z" transform="translate(-269.73 -190.607)"/><path class="e" d="M332.1,285.7s-19.279,21.51-25.334,16.093-11.631-18.323-7.17-22.466c2.409-2.237,2.588-6.517,2.243-9.984a33.6,33.6,0,0,0-.969-5.312s9.56-2.868,9.879,2.868a4.369,4.369,0,0,0,.519,1.928c1.826,3.241,7.766,1.577,7.766,1.577Z" transform="translate(-254.273 -218.154)"/><path class="e" d="M348.155,282.179l1.275-.956a38.14,38.14,0,0,1,14.977,2.231c7.648,2.868,21.032,5.417,24.856,4.461s13.065-2.868,13.065-2.868,10.2-4.143,12.428.956-13.7,5.1-13.7,5.1-11.313,4.621-19.279,3.983-18.323,3.027-23.1-.8S348.155,282.179,348.155,282.179Z" transform="translate(-284.667 -228.972)"/><path class="e" d="M233.835,592.537h-8.6l-3.187,6.373,4.143,4.461s7.967-.956,10.2-3.505S233.835,592.537,233.835,592.537Z" transform="translate(-208.268 -417.6)"/><path class="f" d="M211.343,582.563s3.551-1.593,1.32-3.505-4.143-4.461-7.648-1.912S184.3,592.76,187.489,597.222s4.143,3.505,5.736,2.549,6.692-4.78,10.835-4.78,2.549-5.417.956-7.011S210.023,582.563,211.343,582.563Z" transform="translate(-187.097 -407.626)"/><path class="e" d="M327.408,694.742,323.9,700.8l3.505,3.824h9.879s-3.187-6.373-1.912-9.241S327.408,694.742,327.408,694.742Z" transform="translate(-269.975 -479.016)"/><path class="f" d="M333.826,705.692s-3.505,3.824-5.736,3.187-6.108-4.253-6.108-4.253-5.682,5.527-3.133,8.076,12.747,7.329,15.615,9.241,12.428.637,12.109-1.593-5.1-4.78-7.329-7.648S333.826,705.692,333.826,705.692Z" transform="translate(-266.515 -485.505)"/><path class="f" d="M356.542,440.7s7.011,21.988-2.549,47.8c0,0-8.6,37.921-11.791,45.569s-3.187,10.835-3.187,10.835-12.109.319-11.153-2.231c0,0,4.143-12.428,4.143-17.208s6.692-30.592,6.692-30.592l2.231-55.13Z" transform="translate(-272.341 -325.039)"/><path class="g" d="M356.542,440.7s7.011,21.988-2.549,47.8c0,0-8.6,37.921-11.791,45.569s-3.187,10.835-3.187,10.835-12.109.319-11.153-2.231c0,0,4.143-12.428,4.143-17.208s6.692-30.592,6.692-30.592l2.231-55.13Z" transform="translate(-272.341 -325.039)"/><path class="f" d="M303.52,437.862s0,10.2-6.692,14.659c0,0,5.1,35.691-1.275,42.383s-16.889,3.824-16.889,3.824-17.527.956-30.592,6.055c0,0-10.2-2.868-1.912-10.2,0,0,10.2-2.549,13.384-4.78s17.845-6.692,21.669-4.78a43.569,43.569,0,0,0-1.593-9.241c-1.149-3.447-3.187-14.021-3.187-14.021s-8.923-16.889,0-25.812S303.52,437.862,303.52,437.862Z" transform="translate(-220.912 -320.603)"/><path class="g" d="M315.707,268.827a11.816,11.816,0,0,1-9.429.516,33.6,33.6,0,0,0-.969-5.312s9.56-2.868,9.879,2.868A4.37,4.37,0,0,0,315.707,268.827Z" transform="translate(-258.711 -218.154)"/><circle class="e" cx="11.791" cy="11.791" r="11.791" transform="translate(39.906 27.395)"/><path class="a" d="M316.627,332.385s13.384,9.56,7.329,19.757-4.143,15.933-4.143,15.933,11.472,0,15.3,2.549,15.933-1.912,15.933-1.912,1.912-12.747-.637-18.8-3.824-15.615-2.868-17.527,3.505-10.835-2.549-15.933l-3.447-1.852s2.172,9.181-12.486,3.445C329.055,318.044,325.868,336.846,316.627,332.385Z" transform="translate(-265.567 -249.223)"/><path class="a" d="M160.552,133.65l.331.347,12.078,12.648.373.389.022.073.242.755.484,1.527-1.9-2.11-11.714-12.97-.516-.57Z" transform="translate(-96.899 -81.163)"/><path class="a" d="M321,315.415s-9.934-8.617-16.945-6.387,3.4,21.19,5.523,21.43l.85-.079s-13.065-15.933-5.736-20.713c0,0,9.241.956,16.252,6.692Z" transform="translate(-256.501 -245.625)"/><path class="e" d="M328.251,320.828l23.263,7.329,38.558,2.231s11.153.319,9.241,5.417S387.2,337.08,387.2,337.08l-33.141.637s-27.405-2.868-29.636-4.461S325.7,319.872,328.251,320.828Z" transform="translate(-269.862 -252.963)"/><path class="d" d="M268.35,231.591s-1.275-2.549,1.275-5.417c1.3-1.46,2.431-4.572,3.23-7.276a5.338,5.338,0,0,1,5.972-3.759c2.281.368,4.687.486,5.457-.438,1.593-1.912-.319-12.109-12.747-9.879s-20.395-2.868-20.395,9.241,7.648,15.615,2.231,27.724-15.933,13.384-9.879,21.351,21.988,10.2,22.944,7.329-3.824-14.021-.637-18.483,8.6-9.241,7.011-12.109S268.35,231.591,268.35,231.591Z" transform="translate(-220.159 -182.528)"/><line class="b" x2="124.564" transform="translate(10.469 237.5)"/><path class="h" d="M937.569,289.225a8.2,8.2,0,1,0,1.093-15.734l.205,4.223-2-3.619a8.173,8.173,0,0,0-4.211,4.621,8.044,8.044,0,0,0-.472,2.219,8.2,8.2,0,0,0,5.383,8.29Z" transform="translate(-638.466 -224.21)"/><path class="b" d="M968.577,327.365c-.705-3.591,2.351-6.775,5.369-8.844s6.546-4.1,7.576-7.615c1.48-5.047-2.929-9.669-6.361-13.655a49.39,49.39,0,0,1-6.513-9.68,13.325,13.325,0,0,1-1.558-4.4,15.191,15.191,0,0,1,1.172-6.6q3.618-10.664,7.737-21.148" transform="translate(-659.588 -213.373)"/><path class="b" d="M938.427,286.467a8.2,8.2,0,1,0,1.093-15.734l.205,4.223-2-3.619a8.173,8.173,0,0,0-4.211,4.621,8.048,8.048,0,0,0-.472,2.219A8.2,8.2,0,0,0,938.427,286.467Z" transform="translate(-638.986 -222.539)"/><path class="h" d="M967.651,243.417a8.2,8.2,0,0,1,5.905-5.2l.675,4.014,1.252-4.216a8.2,8.2,0,1,1-7.833,5.4Z" transform="translate(-659.666 -202.826)"/><path class="b" d="M968.794,239.74a8.194,8.194,0,0,1,5.9-5.2l.676,4.014,1.252-4.216a8.2,8.2,0,1,1-7.833,5.4Z" transform="translate(-660.358 -200.598)"/><path class="h" d="M975.689,337.276a8.2,8.2,0,0,0,7.261-14.594l-.962,3.24-.682-4.062-.021-.008a8.2,8.2,0,0,0-5.6,15.424Z" transform="translate(-661.557 -253.318)"/><path class="b" d="M976.68,333.551a8.2,8.2,0,0,0,7.261-14.594l-.962,3.24-.682-4.062-.021-.008a8.2,8.2,0,1,0-5.6,15.424Z" transform="translate(-662.157 -251.061)"/><path class="h" d="M962.141,381.517a8.2,8.2,0,1,0,1.581-6.424l3.655,5.5-4.994-2.92a8.125,8.125,0,0,0-.242,3.843Z" transform="translate(-656.549 -283.935)"/><path class="b" d="M963,378.76a8.2,8.2,0,1,0,1.581-6.424l3.655,5.5-4.994-2.92A8.127,8.127,0,0,0,963,378.76Z" transform="translate(-657.069 -282.265)"/></g></svg>