<svg xmlns="http://www.w3.org/2000/svg" xmlns:xlink="http://www.w3.org/1999/xlink" width="746.887" height="565.403" viewBox="0 0 746.887 565.403"><defs><style>.a,.c{fill:#4ac785;}.a,.e,.o{opacity:0.1;}.b,.d{fill:none;stroke-miterlimit:10;}.b{stroke:#535461;stroke-width:2px;}.d{stroke:#4ac785;}.f{fill:#a8a8a8;}.g{opacity:0.2;}.h{fill:#ffd037;}.i{fill:url(#a);}.j{fill:#8c8296;}.k{fill:#e7c4c3;}.l{fill:#ffc7d1;}.m{fill:#ffe09c;}.n{fill:#ad5975;}.p{fill:url(#b);}.q{fill:#ffbcc8;}.r{fill:#40243e;}.s{fill:#dfd5e3;}.t{fill:#ff808e;}.u,.v{opacity:0.05;}</style><linearGradient id="a" x1="0.5" y1="1" x2="0.5" gradientUnits="objectBoundingBox"><stop offset="0" stop-color="gray" stop-opacity="0.251"/><stop offset="0.54" stop-color="gray" stop-opacity="0.122"/><stop offset="1" stop-color="gray" stop-opacity="0.102"/></linearGradient><linearGradient id="b" x1="0.5" y1="1" x2="0.5" y2="0" xlink:href="#a"/></defs><g transform="translate(0.002 0.05)"><path class="a" d="M216.271,149.264c-4,4.688-5.543,11.28-7.266,17.477-13.875,49.941-48.066,90.112-87,118.8-16.49,12.161-36.565,28.467-32.957,50.245,1.943,11.7,10.465,20.318,16.8,29.849,13.284,19.958,17.592,47.086,11.261,70.978-7.2,27.184-27.327,52.55-21.1,80.037,3.841,16.92,16.884,28.961,29.423,39.31q29.342,24.2,60.554,45.345c13.948,9.447,28.787,18.64,45.043,19.838,14.313,1.057,28.335-4.195,41.925-9.376,11.874-4.533,24.048-9.249,33.636-18.33,6.258-5.929,11.246-13.578,18.2-18.428,16.329-11.393,37.3-4.173,56.026.705a201.488,201.488,0,0,0,133.508-11.8c64.49-29.257,113.645-90.7,176.726-123.662,27.122-14.177,56.625-22.976,81.739-41.235a149.544,149.544,0,0,0,35.929-37.534c18.987-28.277,29.255-64.33,26.29-99.622s-19.579-69.3-45.671-89.223c-27.933-21.326-63.212-25.309-94.994-38.112-32.818-13.226-62.015-35.954-94.519-50.146A199.536,199.536,0,0,0,433.1,88.022c-35.374,17.237-71.231,57.541-110.629,60.573C294.41,150.731,238.186,123.589,216.271,149.264Z" transform="translate(-88.62 -55.932)"/><path class="b" d="M365.7,356.336s-27.052-12.471-36.31-33.836a45.135,45.135,0,0,0-18.915-21.383,75.91,75.91,0,0,0-12.645-5.727" transform="translate(-140.915 -116.584)"/><path class="c" d="M279.639,270.78c2.635,2.312,6.108,13.76,6.108,13.76s-11.818-1.907-14.448-4.213a6.357,6.357,0,1,1,8.345-9.547Z" transform="translate(-136.399 -112.354)"/><path class="c" d="M315.61,276.882c.959,3.369-2.352,14.875-2.352,14.875s-8.882-8.027-9.824-11.4a6.357,6.357,0,1,1,12.194-3.467Z" transform="translate(-145.736 -112.933)"/><path class="c" d="M358.408,313.447c-.844,3.392-9.512,11.651-9.512,11.651s-3.618-11.414-2.745-14.806a6.357,6.357,0,0,1,12.286,3.155Z" transform="translate(-157.198 -122.98)"/><path class="c" d="M383.975,350.532c-.283,3.467-7.432,13.1-7.432,13.1s-5.5-10.639-5.2-14.13a6.357,6.357,0,0,1,12.639,1.034Z" transform="translate(-163.934 -134.139)"/><path class="c" d="M301.1,315.215c3.467-.283,13.1-7.432,13.1-7.432s-10.639-5.49-14.13-5.2a6.357,6.357,0,1,0,1.034,12.639Z" transform="translate(-142.836 -122.467)"/><path class="c" d="M331.04,357.6c3.248-1.318,10.269-11.009,10.269-11.009s-11.8-2.057-15.026-.74a6.357,6.357,0,0,0,4.768,11.749Z" transform="translate(-150.614 -135.115)"/><path class="c" d="M367.177,394.158c3.421-.751,11.986-9.119,11.986-9.119s-11.275-4.045-14.7-3.271a6.357,6.357,0,0,0,2.716,12.39Z" transform="translate(-160.396 -145.802)"/><path class="a" d="M279.639,270.78c2.635,2.312,6.108,13.76,6.108,13.76s-11.818-1.907-14.448-4.213a6.357,6.357,0,1,1,8.345-9.547Z" transform="translate(-136.399 -112.354)"/><path class="a" d="M315.61,276.882c.959,3.369-2.352,14.875-2.352,14.875s-8.882-8.027-9.824-11.4a6.357,6.357,0,1,1,12.194-3.467Z" transform="translate(-145.736 -112.933)"/><path class="a" d="M358.408,313.447c-.844,3.392-9.512,11.651-9.512,11.651s-3.618-11.414-2.745-14.806a6.357,6.357,0,0,1,12.286,3.155Z" transform="translate(-157.198 -122.98)"/><path class="a" d="M383.975,350.532c-.283,3.467-7.432,13.1-7.432,13.1s-5.5-10.639-5.2-14.13a6.357,6.357,0,0,1,12.639,1.034Z" transform="translate(-163.934 -134.139)"/><path class="a" d="M301.1,315.215c3.467-.283,13.1-7.432,13.1-7.432s-10.639-5.49-14.13-5.2a6.357,6.357,0,1,0,1.034,12.639Z" transform="translate(-142.836 -122.467)"/><path class="a" d="M331.04,357.6c3.248-1.318,10.269-11.009,10.269-11.009s-11.8-2.057-15.026-.74a6.357,6.357,0,0,0,4.768,11.749Z" transform="translate(-150.614 -135.115)"/><path class="a" d="M367.177,394.158c3.421-.751,11.986-9.119,11.986-9.119s-11.275-4.045-14.7-3.271a6.357,6.357,0,0,0,2.716,12.39Z" transform="translate(-160.396 -145.802)"/><path class="d" d="M804.608,597.2s10.113,19.851,1.872,30.71.751,40.453.751,40.453" transform="translate(-280.06 -198.956)"/><path class="c" d="M806.9,581.435a11.7,11.7,0,0,1-2.809,6.935,9.966,9.966,0,0,1,0-13.87A11.7,11.7,0,0,1,806.9,581.435Z" transform="translate(-279.804 -202.465)"/><path class="d" d="M811.121,597.2s-10.113,19.851-1.872,30.71-.751,40.453-.751,40.453" transform="translate(-280.868 -198.956)"/><path class="c" d="M809.67,581.435a11.7,11.7,0,0,0,2.809,6.935,9.966,9.966,0,0,0,0-13.87A11.7,11.7,0,0,0,809.67,581.435Z" transform="translate(-282.055 -202.465)"/><path class="e" d="M809.67,581.435a11.7,11.7,0,0,0,2.809,6.935,9.966,9.966,0,0,0,0-13.87A11.7,11.7,0,0,0,809.67,581.435Z" transform="translate(-282.055 -202.465)"/><path class="d" d="M820.828,597.2s10.113,19.851,1.872,30.71.751,40.453.751,40.453" transform="translate(-284.407 -198.956)"/><path class="c" d="M823.067,581.435a11.7,11.7,0,0,1-2.809,6.935,9.966,9.966,0,0,1,0-13.87A11.7,11.7,0,0,1,823.067,581.435Z" transform="translate(-284.142 -202.465)"/><path class="c" d="M819.451,608.935a11.676,11.676,0,0,1-6.831,3.046,9.95,9.95,0,0,1,9.611-9.98A11.763,11.763,0,0,1,819.451,608.935Z" transform="translate(-282.081 -211.168)"/><path class="c" d="M819.911,632.655a11.677,11.677,0,0,1-6.831,3.046,9.95,9.95,0,0,1,9.611-9.98A11.657,11.657,0,0,1,819.911,632.655Z" transform="translate(-282.204 -218.18)"/><path class="c" d="M795.133,648.282a11.671,11.671,0,0,1,2.421,7.074,9.953,9.953,0,0,1-9.085-10.466A11.673,11.673,0,0,1,795.133,648.282Z" transform="translate(-275.726 -223.765)"/><path class="c" d="M798.648,599.071a11.674,11.674,0,0,1,4.224,6.172,9.948,9.948,0,0,1-11.552-7.657A11.643,11.643,0,0,1,798.648,599.071Z" transform="translate(-276.025 -210.164)"/><path class="e" d="M798.648,599.071a11.674,11.674,0,0,1,4.224,6.172,9.948,9.948,0,0,1-11.552-7.657A11.643,11.643,0,0,1,798.648,599.071Z" transform="translate(-276.025 -210.164)"/><path class="d" d="M827.321,597.2s-10.113,19.851-1.872,30.71-.751,40.453-.751,40.453" transform="translate(-285.209 -198.956)"/><path class="c" d="M825.87,581.435a11.7,11.7,0,0,0,2.809,6.935,9.966,9.966,0,0,0,0-13.87A11.7,11.7,0,0,0,825.87,581.435Z" transform="translate(-286.4 -202.465)"/><path class="e" d="M825.87,581.435a11.7,11.7,0,0,0,2.809,6.935,9.966,9.966,0,0,0,0-13.87A11.7,11.7,0,0,0,825.87,581.435Z" transform="translate(-286.4 -202.465)"/><path class="c" d="M825.16,612.365a11.835,11.835,0,0,0-2.89,6.935,11.661,11.661,0,0,0,6.866-2.965,11.835,11.835,0,0,0,2.89-6.935A11.7,11.7,0,0,0,825.16,612.365Z" transform="translate(-284.631 -213.368)"/><path class="e" d="M825.16,612.365a11.835,11.835,0,0,0-2.89,6.935,11.661,11.661,0,0,0,6.866-2.965,11.835,11.835,0,0,0,2.89-6.935A11.7,11.7,0,0,0,825.16,612.365Z" transform="translate(-284.631 -213.368)"/><path class="c" d="M834.27,645.175a11.835,11.835,0,0,0-2.89,6.935,11.661,11.661,0,0,0,6.866-2.965,11.834,11.834,0,0,0,2.89-6.935A11.665,11.665,0,0,0,834.27,645.175Z" transform="translate(-287.065 -223.067)"/><path class="d" d="M823,632.954s6.085-9.593,14.633-9.824" transform="translate(-283.864 -217.439)"/><path class="d" d="M804.083,622.934S798,613.341,789.45,613.11" transform="translate(-274.944 -214.477)"/><path class="d" d="M813.4,646.624s6.085-9.593,14.633-9.824" transform="translate(-281.311 -221.48)"/><circle class="c" cx="1.578" cy="1.578" r="1.578" transform="translate(553.039 402.666)"/><circle class="c" cx="1.578" cy="1.578" r="1.578" transform="translate(510.563 395.781)"/><path class="d" d="M810.463,652.094s-6.085-9.593-14.633-9.824" transform="translate(-276.64 -223.097)"/><circle class="c" cx="1.578" cy="1.578" r="1.578" transform="translate(515.227 416.268)"/><circle class="c" cx="1.578" cy="1.578" r="1.578" transform="translate(546.547 412.432)"/><path class="f" d="M837.314,689.865s-14.667-2.936-18.58-6.848-21.515-10.755-23.475-5.866-26.4,21.515-9.778,24.451,39.118,3.912,44.008,1.953S837.314,689.865,837.314,689.865Z" transform="translate(-263.662 -229.395)"/><path class="g" d="M785.486,710.231c16.626,2.936,39.118,3.912,44.008,1.953,3.722-1.491,6.311-8.669,7.334-11.974l.491.1s-2.936,11.737-7.825,13.691-27.381.977-44.008-1.953c-4.8-.849-6.172-2.837-5.652-5.351C780.239,708.341,781.915,709.6,785.486,710.231Z" transform="translate(-263.666 -223.071)"/><path class="c" d="M208.2,653s4.843,6.357-2.236,15.892-12.91,17.626-10.553,23.607c0,0,10.68-17.759,19.371-18.008S217.765,663.691,208.2,653Z" transform="translate(-133.472 -220.933)"/><path class="e" d="M208.4,653a7.843,7.843,0,0,1,.988,1.988c8.484,9.963,13,19.262,4.849,19.5-7.594.22-16.7,13.795-18.886,17.227a7.357,7.357,0,0,0,.26.78s10.68-17.759,19.371-18.008S217.963,663.691,208.4,653Z" transform="translate(-133.671 -220.934)"/><path class="h" d="M232.666,665.965c0,2.231-.249,4.045-.578,4.045s-.578-1.809-.578-4.045.312-1.156.618-1.156S232.666,663.729,232.666,665.965Z" transform="translate(-148.934 -230.424)"/><path class="h" d="M236.071,670.475c-1.959,1.069-3.664,1.734-3.808,1.439s1.318-1.358,3.277-2.421,1.185-.289,1.335,0S238.025,669.406,236.071,670.475Z" transform="translate(-149.248 -232.139)"/><path class="c" d="M165.731,653s-4.843,6.357,2.237,15.892,12.91,17.626,10.553,23.607c0,0-10.68-17.759-19.371-18.008S156.167,663.691,165.731,653Z" transform="translate(-116.581 -220.933)"/><path class="e" d="M165.731,653a7.843,7.843,0,0,0-.988,1.988c-8.484,9.963-13,19.262-4.849,19.5,7.594.22,16.7,13.795,18.886,17.227a7.355,7.355,0,0,1-.26.78s-10.68-17.759-19.371-18.008S156.167,663.691,165.731,653Z" transform="translate(-116.581 -220.934)"/><path class="h" d="M158.09,665.965c0,2.231.249,4.045.578,4.045s.578-1.809.578-4.045-.312-1.156-.618-1.156S158.09,663.729,158.09,665.965Z" transform="translate(-117.944 -230.424)"/><path class="h" d="M151.868,670.475c1.959,1.069,3.664,1.734,3.808,1.439s-1.318-1.358-3.277-2.421-1.185-.289-1.335,0S149.909,669.406,151.868,670.475Z" transform="translate(-114.813 -232.139)"/><path class="f" d="M160.76,714.578s13.54-.416,17.62-3.323,20.8-6.357,21.839-1.734,20.348,23.18,5.062,23.3-35.518-2.381-39.592-4.86S160.76,714.578,160.76,714.578Z" transform="translate(-119.071 -226.049)"/><path class="g" d="M205.553,736.545c-15.286.121-35.518-2.381-39.592-4.86-3.1-1.89-4.34-8.669-4.75-11.8h-.451s.855,10.922,4.93,13.4,24.307,4.987,39.592,4.86c4.415-.035,5.935-1.607,5.854-3.93C210.523,735.644,208.865,736.522,205.553,736.545Z" transform="translate(-119.071 -231.378)"/><path class="i" d="M644.1,506.689c-.884-2-2.479-3.595-3.779-5.357-4.5-6.1-5.34-14.107-4.82-21.619s2.231-14.939,2.225-22.469-2.034-15.511-7.7-20.6c-4.525-4.045-10.778-5.779-15.638-9.431a63.268,63.268,0,0,1-6.178-5.82,92.307,92.307,0,0,0-9.57-8.345,4.1,4.1,0,0,0-1.219-2.433,16.154,16.154,0,0,0-2.572-1.277c-1.861-1.063-2.514-3.329-3.23-5.323a31.288,31.288,0,0,0-20.076-18.967c-5.2-1.578-10.98-1.734-15.933.439s-8.536,6.473-10.888,11.211c-.185.347-.358.688-.526,1.04-1.635,3.392-5.4,11.136-4.288,14.968a5.473,5.473,0,0,0,3.121,3.358,21.078,21.078,0,0,0-.439,4.277,21.452,21.452,0,0,0,15.026,20.336c-.11,3.982.37,8.276,2.67,11.339a74.261,74.261,0,0,1-2.08,9.824q-.162.578-.3,1.034a40.078,40.078,0,0,0-10.6,19.8c-3.6,7.1-8.986,18.372-10.662,25.428a16.179,16.179,0,0,1-1.971,4.71l-17.407-2.248-.734-.092.133-1.659s-13.766-7.7-16.933.451a24.359,24.359,0,0,0-5.057,1.474h0a11.182,11.182,0,0,0-1.185.578h-.046l-.578.3h0l-.549.335-.064.04-.485.329-.052.035q-.254.179-.5.376l-.069.058q-.214.173-.416.358l-.069.064q-.225.2-.439.422l-.069.075q-.185.191-.353.393l-.081.092q-.191.231-.37.474l-.064.087q-.15.208-.289.428l-.075.121c-.1.173-.2.347-.3.526l-.052.1q-.116.231-.22.474l-.064.144c-.081.191-.15.387-.214.578l-.035.11q-.081.26-.144.532l-.04.173c-.046.214-.092.428-.127.653v.11q-.04.295-.064.578v1.924a5.524,5.524,0,0,0,.092.8v.064c.04.26.087.526.144.792l.046.231c.064.295.133.578.22.9h.081l.087-.035h.035l.15-.064h.035l.144-.058.081-.035.139-.058.1-.041.179-.075.087-.035.283-.121.116-.052.22-.092.139-.058.243-.1.139-.058.393-.173.064-.029.364-.168.144-.064.329-.15.156-.069.387-.185.1-.052.526-.254.075-.035.474-.231.139-.069.468-.231.116-.058,1.254-.636.069-.035.578-.312.1-.052.665-.352h0l1.456-.8h.035l.728-.41h0l.15-.087q.052.3.116.578c-2.785,2.809-4.415,7.75-3.433,16.1l.214,1.815.058.52.191,1.624.064.578.139,1.208.064.578.162,1.451.075.659.127,1.156.081.734.116,1.075.069.613.144,1.318.058.532.116,1.063.046.41.139,1.323.046.439.139,1.323v.144l.127,1.26v.272l.133,1.329v.133q.139,1.4.266,2.7h0q.457,4.687.745,8.062h0l.081.907v.087l.058.653.04.474v.318c.237,2.849.37,4.75.433,5.744l-.85.035a1.8,1.8,0,0,0-1.734,1.688v.283l-.139.121.121.133c0,.381-.052.8-.087,1.254l-.295.168.254.312c-.046.491-.1,1.017-.162,1.566l-.272.208.2.341c-.052.416-.116.849-.179,1.289l-.306.162.231.318q-.052.312-.1.63l-.283.185.191.347q-.139.754-.312,1.526l-.318.2.2.289q-.162.682-.353,1.37l-.329.272.179.266q-.179.578-.381,1.2l-.364.168.214.277c-.185.52-.387,1.029-.578,1.526l-.468.445.2.156c-.11.237-.225.468-.341.7s-.168.306-.254.457l-.243.133.087.156h0c-.78.041-1.543.064-2.312.064-20.729,0-33.68,10.882-33.68,10.882s-8.455,8.634-3.976,16.6l.127.225.116.2.139.22.121.185.26.37.11.144.2.26.139.168.214.248.139.156.353.381.092.092.306.3.15.145.295.266.15.133.457.381.052.04.445.341.168.121.387.272.168.116.578.37h0a20.173,20.173,0,0,0,4.71,2.2,20.935,20.935,0,0,0,3.583.809,21.845,21.845,0,0,0,8.605-.578c1.526-.416,3.311-.861,5.311-1.3a121.875,121.875,0,0,1,35.83-2.566c26.277,2.179,61.073-5.08,61.073-5.08s33.68-3.629,27.387-39.875l-.468-1.9-.22-.89a30.954,30.954,0,0,0,4.045-2.647l-.74-10.882s-4.733-21.706,2.034-34.513a23.312,23.312,0,0,0,2.838.85c8.778,2.028,18.2-1.329,25.041-7.1a21.8,21.8,0,0,0,5.548-6.935C644.836,513.2,645.477,509.822,644.1,506.689ZM523.632,521.206l1.2.433-.364.2Zm-8.5,68.557v-.722l-.272-12.627a1.191,1.191,0,0,0-.982-1.156c.248-2.185.763-6.519,1.248-9.587h0c.052-.324.1-.63.15-.919v-.04l.069-.387h0l.069-.376V563.9l.058-.289v-.075l.063-.295c.74-3.265,1.11-14.505,1.11-14.505s15.84,21.51,28.011,30.323A276.829,276.829,0,0,1,515.131,589.763Z" transform="translate(-159.844 -89.543)"/><path class="j" d="M592.434,659.656c-.63,9.772-2.791,20.059-9.247,17.511a23.375,23.375,0,0,1-5.109-2.994c-11.726-8.669-26.988-29.808-26.988-29.808s-.358,11.055-1.069,14.263-1.786,13.194-1.786,13.194H535.031s-.711-12.835-3.924-40.65,22.463-17.118,22.463-17.118L577.507,632.5,592.434,644s.144,2.19.2,5.455C592.694,652.293,592.671,655.934,592.434,659.656Z" transform="translate(-200.025 -204.211)"/><path class="e" d="M592.435,659.656c-.63,9.772-2.791,20.059-9.247,17.51a23.378,23.378,0,0,1-5.109-2.994c-11.726-8.669-26.988-29.808-26.988-29.808s-.358,11.055-1.069,14.263c-.509,2.312-1.2,8.05-1.555,11.142-.144,1.237-.225,2.052-.225,2.052H535.031s0-.5-.1-1.526c-.283-4.144-1.254-16.817-3.826-39.124-3.207-27.815,22.463-17.118,22.463-17.118L577.507,632.5,592.435,644s.144,2.19.2,5.455C592.695,652.293,592.672,655.934,592.435,659.656Z" transform="translate(-200.025 -204.211)"/><path class="e" d="M551.453,711.9c-.144,1.237-.225,2.052-.225,2.052h-13.2s0-.5-.1-1.526l13.17-.578a1.111,1.111,0,0,1,.353.052Z" transform="translate(-208.21 -227.984)"/><path class="k" d="M546.732,729.8l-22.822,4.276a14.047,14.047,0,0,0,2.248-3.294c2.624-5.172,3.254-12.292,3.41-15.436a1.734,1.734,0,0,1,1.682-1.664l13.939-.578a1.156,1.156,0,0,1,1.214,1.156l.266,12.413Z" transform="translate(-203.367 -228.515)"/><path class="e" d="M546.732,739.7l-22.822,4.276a14.047,14.047,0,0,0,2.248-3.294,97.334,97.334,0,0,0,20.5-4.138Z" transform="translate(-203.367 -238.406)"/><path class="j" d="M579.316,739.525s-33.519,7.131-58.837,4.993a115.913,115.913,0,0,0-39.621,3.8,20.059,20.059,0,0,1-16.28-2.393c-13.344-8.669-1.156-21.382-1.156-21.382s12.483-10.7,32.449-10.7c16.054,0,42.031-10.61,51.59-14.76,2.312-1.011,3.681-1.641,3.681-1.641l1.474-18.227.665-8.16,8.755,3.317,41.164,15.6,2.046,8.466.451,1.872C611.765,735.959,579.316,739.525,579.316,739.525Z" transform="translate(-169.505 -210.767)"/><path class="e" d="M606.542,713.746l-.451-1.872-2.057-8.472-1.3-.491,1.56,6.467.451,1.872c6.062,35.657-26.387,39.222-26.387,39.222s-33.518,7.131-58.837,4.993a115.919,115.919,0,0,0-39.621,3.8,20.059,20.059,0,0,1-16.28-2.393,17.113,17.113,0,0,1-3.3-2.739,14.337,14.337,0,0,0,5.08,5.236,20.059,20.059,0,0,0,16.28,2.393,115.921,115.921,0,0,1,39.621-3.8c25.318,2.138,58.837-4.993,58.837-4.993S612.6,749.4,606.542,713.746Z" transform="translate(-170.135 -224.211)"/><path class="l" d="M667.035,490.1H666.9l-23.047,2.837L632.8,496.5s.341-.994.8-2.67c1.734-6.166,5.08-21.6-.8-30.849-7.513-11.766,19.614,0,19.614,0s-2.086,13.107,10.616,24.07a39.6,39.6,0,0,0,3.571,2.739Z" transform="translate(-229.753 -165.03)"/><path class="l" d="M565.391,604.386l-32.449-4.276s-18.9.358-14.974,14.974a88.017,88.017,0,0,0,16.759-9.246l22.1,8.2Z" transform="translate(-198.514 -209.835)"/><path class="e" d="M565.4,604.378l-8.559,9.628L545.4,609.764l-10.668-3.947c-1.849,1.312-3.681,2.491-5.421,3.531a84.76,84.76,0,0,1-11.339,5.716c-2.89-10.842,6.733-13.841,11.911-14.661a24.571,24.571,0,0,1,3.069-.312l13.061,1.734Z" transform="translate(-198.517 -209.829)"/><circle class="l" cx="21.036" cy="21.036" r="21.036" transform="translate(386.146 261.318)"/><path class="e" d="M669.391,688.456c-7.357,4.531-27.063,13.037-42.69-13.107,0,0-.248-.289-.722-.751a22.424,22.424,0,0,0-9.212-5.351,18.787,18.787,0,0,0-6.467-.682,120.96,120.96,0,0,0,.948-13.824c0-2.312,0-4.82-.185-7.31l14.927,11.5s.144,2.19.2,5.455l41.164,15.6Z" transform="translate(-220.503 -218.07)"/><path class="e" d="M667.842,510.164,644.8,513l-11.055,3.566s.341-.994.8-2.67l.5-.5c3.56-3.467,7.883-6.322,12.714-6.785a27.158,27.158,0,0,0,4.479-.751,15.69,15.69,0,0,1,11.749,1.254,16.182,16.182,0,0,1,3.572,2.739Z" transform="translate(-230.57 -182.402)"/><path class="m" d="M672.521,614.788l.711,10.7s-26.006,21.752-45.655-11.055c0,0-6.421-7.513-16.4-6.773a120.946,120.946,0,0,0,.948-13.823,79.738,79.738,0,0,0-.948-13.991c-1.352-7.9.578-26.225,2.179-38.61.156-1.156.3-2.312.445-3.375a39.823,39.823,0,0,1,11.529-23.226c3.56-3.467,7.883-6.322,12.714-6.785a27.162,27.162,0,0,0,4.479-.751c4.242-1.156,14.02-2.052,20.03,11.061,7.842,17.118,8.559,22.821,8.559,22.821s14.69,25.751,5.7,36.373C666.991,588.938,672.521,614.788,672.521,614.788Z" transform="translate(-218.931 -163.068)"/><path class="e" d="M554.5,601.835l-.613,7.94-10.668-3.941c-1.849,1.312-3.681,2.491-5.421,3.531a22.03,22.03,0,0,1,.075-7.1,8.581,8.581,0,0,1,.5-1.826,24.57,24.57,0,0,1,3.069-.312Z" transform="translate(-207.689 -210.667)"/><path class="l" d="M560.524,628.754l-6.935-3.369-5.542-2.693-7.131-6.421s-6.062-5.7-4.276-16.4,16.759-2.138,16.759-2.138l-1.086,13.91a5.2,5.2,0,0,0,2.716,2.063,12.975,12.975,0,0,0,3.346.786Z" transform="translate(-206.462 -205.051)"/><path class="e" d="M704.486,509.513c-.85-1.965-2.387-3.531-3.641-5.271-4.334-6-5.143-13.87-4.623-21.255s2.15-14.69,2.144-22.088-1.953-15.257-7.42-20.227c-4.363-3.988-10.4-5.664-15.066-9.247a57.374,57.374,0,0,1-5.952-5.721,89.492,89.492,0,0,0-9.246-8.206,4.045,4.045,0,0,0-1.156-2.393,18.105,18.105,0,0,0-2.479-1.254c-1.792-1.046-2.421-3.271-3.115-5.236a30.409,30.409,0,0,0-19.343-18.649c-5-1.555-10.581-1.734-15.349.433s-8.38,6.548-10.639,11.333c-1.578,3.335-5.2,10.951-4.132,14.714.953,3.352,5.155,4.444,8.669,4.427,1.11,1.086,2.346,2.179,3.317,3.213a23.147,23.147,0,0,1,3.589,4.56c2.369,4.346,1.734,9.616,1.508,14.557s.358,10.547,4.219,13.644a27.05,27.05,0,0,0,3.467,2.133c8.634,5,13.592,14.575,16.511,24.116s4.294,19.574,8.137,28.78,10.87,17.886,20.579,20.18c8.455,1.994,17.539-1.306,24.122-6.975C703.105,521.17,706.844,514.957,704.486,509.513Z" transform="translate(-211.526 -130.163)"/><path class="n" d="M705.106,508.283c-.849-1.965-2.387-3.531-3.641-5.271-4.334-6-5.143-13.87-4.623-21.255s2.15-14.69,2.144-22.088-1.953-15.257-7.42-20.227c-4.363-3.988-10.4-5.664-15.066-9.247a57.374,57.374,0,0,1-5.952-5.721,89.5,89.5,0,0,0-9.246-8.206,4.046,4.046,0,0,0-1.156-2.393,18.113,18.113,0,0,0-2.479-1.254c-1.792-1.046-2.421-3.271-3.115-5.236a30.409,30.409,0,0,0-19.342-18.649c-5-1.555-10.581-1.734-15.349.433s-8.38,6.548-10.639,11.333c-1.578,3.335-5.2,10.951-4.132,14.714.953,3.352,5.155,4.444,8.669,4.427,1.109,1.086,2.346,2.179,3.317,3.213a23.151,23.151,0,0,1,3.589,4.56c2.369,4.346,1.734,9.616,1.508,14.557s.358,10.547,4.219,13.644a27.05,27.05,0,0,0,3.467,2.133c8.634,5,13.592,14.575,16.511,24.116s4.294,19.574,8.137,28.78,10.87,17.886,20.579,20.18c8.455,1.994,17.539-1.306,24.122-6.975C703.725,519.934,707.464,513.727,705.106,508.283Z" transform="translate(-211.674 -129.864)"/><path class="e" d="M636.5,580.559c-6.3,9.663-15.968,22.978-24.365,28.288a79.744,79.744,0,0,0-.948-13.991c-1.352-7.9.578-26.225,2.179-38.61,3.005-6.357,5.663-11.31,5.663-11.31s12.292-9.611,19.712,6.2a30.34,30.34,0,0,1-2.242,29.421Z" transform="translate(-225.076 -184.526)"/><path class="e" d="M572.609,642.789l-6.935-3.369c-1.075-3.785-1.254-8.091,1.451-11.68a12.973,12.973,0,0,0,3.346.786Z" transform="translate(-216.144 -217.95)"/><path class="m" d="M618.513,548.66a30.294,30.294,0,0,1-2.219,29.375c-7.472,11.46-19.683,28.08-28.9,30.386-14.263,3.566-16.048,2.855-16.048,2.855s-10.35-13.9-1.815-22.1c0,0,13.194-4.623,15.69-15.332s13.552-31.38,13.552-31.38S611.087,532.854,618.513,548.66Z" transform="translate(-209.941 -182.942)"/><path class="e" d="M618.591,716.41s-1.069,3.566,7.842,7.131S640.7,738.515,640.7,738.515" transform="translate(-228.415 -229.909)"/><g class="o" transform="translate(321.252 487.004)"><path d="M439.138,686.609l-.168-.312,2.959-1.624-1.508-2.011L443,681.449l-1.566-2.289,1.936-1.248-1.352-1.9,2.4-1.323-1.959-2.491,2.317-1.352.179.306-1.965,1.144,1.971,2.5-2.427,1.335L443.876,678l-1.942,1.254,1.6,2.335-2.56,1.208,1.491,1.988Z" transform="translate(-438.97 -670.434)"/><path d="M441.9,686.086l-1.861-1.514,2.375-2.306-.994-1.514,2.069-1.716-1.185-2.213,1.526-1.006-1.092-1.867,2.144-1.67-1.716-1.913.26-.237,1.977,2.2-2.2,1.711,1.11,1.89-1.537,1.011,1.167,2.184-2.046,1.7.982,1.491-2.3,2.237,1.549,1.26Z" transform="translate(-439.422 -670.13)"/></g><path class="j" d="M438.523,686.609l-.173-.312,2.959-1.624-1.508-2.011,2.577-1.214-1.566-2.289,1.936-1.248-1.352-1.9,2.41-1.323-1.965-2.491,2.323-1.352.179.306-1.965,1.144,1.965,2.5-2.427,1.335L443.256,678l-1.942,1.254,1.595,2.335-2.56,1.208,1.491,1.988Z" transform="translate(-117.552 -183.43)"/><path class="j" d="M441.285,686.086l-1.855-1.514,2.375-2.306-1-1.514,2.069-1.716-1.179-2.213,1.526-1.006-1.1-1.867,2.144-1.67-1.716-1.913.266-.237,1.971,2.2-2.2,1.711,1.11,1.89-1.537,1.011,1.167,2.184-2.052,1.7.982,1.491-2.3,2.237,1.549,1.26Z" transform="translate(-117.915 -183.126)"/><path class="e" d="M670.378,418.45c.688,1.959,1.318,4.184,3.115,5.236a15.333,15.333,0,0,1,2.479,1.254,4.046,4.046,0,0,1,1.156,2.393,89.509,89.509,0,0,1,9.246,8.206,58.533,58.533,0,0,0,5.952,5.721c4.681,3.612,10.7,5.282,15.066,9.246,5.461,5,7.415,12.853,7.42,20.227s-1.647,14.7-2.144,22.088.312,15.257,4.623,21.255c1.254,1.734,2.791,3.306,3.641,5.27a8.892,8.892,0,0,1,.728,3.658c3.71-3.86,6.357-9.246,4.265-14-.849-1.965-2.387-3.531-3.641-5.271-4.334-6-5.143-13.87-4.623-21.255s2.15-14.69,2.144-22.088-1.953-15.257-7.42-20.227c-4.363-3.988-10.4-5.663-15.066-9.246a57.369,57.369,0,0,1-5.952-5.721,89.5,89.5,0,0,0-9.247-8.206,4.046,4.046,0,0,0-1.156-2.393,18.1,18.1,0,0,0-2.479-1.254c-1.792-1.046-2.421-3.271-3.115-5.236a30.41,30.41,0,0,0-19.343-18.649C651.029,387.908,667.3,409.683,670.378,418.45Z" transform="translate(-229.518 -132.198)"/><path class="p" d="M450.51,348.961s-1.329-11.621-3.7-27.133c.763.72,1.485,1.038,2.127.821,4.4-1.506-2.514-23.3-2.514-23.3l-7.23-57.134s-.353-7.5-.624-16.312c3.56.6,6.652,1.859,7.513,4.287,0,0,.8-15.915.763-30.729,0-12.119-.457-23.985-2.312-26.406-.618-.8-2.127-1.5-4.236-2.118,0-.245.035-.49.052-.72v-.195c.578-10.137-5.045-19.287-13.292-21.737-6.27-1.866-16.632-6.592-19.2-17.818-.052-.223-.1-.454-.139-.72a21.645,21.645,0,0,0,8.755-7.925q.925-.994,1.763-2.089a11.726,11.726,0,0,0,14.87-.98,9.324,9.324,0,0,0,.734-.72,11.682,11.682,0,0,1-14.448.072,33.412,33.412,0,0,0,5.34-18.387c-.059-10.31-4.445-19.829-11.558-25.087a15.968,15.968,0,0,0,2.774-4.136c3.652-7.788,1.329-17.637-5.2-22-.277-.187-.578-.353-.838-.512,5.9,4.458,7.841,13.982,4.375,21.413a16.727,16.727,0,0,1-1.271,2.241,18.519,18.519,0,0,0,1.953-8.372c0-8.927-6.051-16.16-13.517-16.16s-13.517,7.2-13.517,16.16a18.394,18.394,0,0,0,2.312,9.078,26.955,26.955,0,0,0-11.864,12.493,17.006,17.006,0,0,1,4.473-9.215c-.266.2-.526.411-.78.634a17.345,17.345,0,0,0-5.461,13,34.824,34.824,0,0,0-1.589,10.461c.027,9.085,3.445,17.637,9.246,23.135a22.8,22.8,0,0,0,3.652,3.992c-.046.209-.1.418-.15.627-1.549,5.915-5.675,12.716-16.228,14.719-18.493,3.509-20.8,5.043-22.833,24.849l-.075.764a21.883,21.883,0,0,0-3.467.72c-3.878,1.246-4.854,14.266-4.808,27.6-.064,15.325,1.352,31.788,1.352,31.788a25.714,25.714,0,0,0,5.64,1.938l-2.184,64.217a61.867,61.867,0,0,0,.89,7.659c-4.282,18.25-7.362,34.785-8.195,39.259h0l-.064.339h0l-.052.288h0l-.069.4h0v.108h3.086l.364.043h.081c3.381.432,8.206,2.017,9.975,7.414.035.108.087.195.121.3h0c0,.065.064.123.092.187a4.641,4.641,0,0,0,.214.425c.052.094.11.173.168.259a4.425,4.425,0,0,0,.277.375,2.332,2.332,0,0,0,.208.223,4.391,4.391,0,0,0,.335.317l.237.18c.127.094.254.187.393.274l.266.144c.144.079.295.158.445.223l.283.115c.162.065.329.122.5.18l.306.086.549.137.318.058.578.094h.329l.636.05h1.971l.37,2.241,3.358,20.411,5.028,33.077s2.514,18.79,0,22.926,5.346,60.888,5.346,60.888l2.988,25.981.075.67a10.068,10.068,0,0,0-2.121,3.415s-1.26,9.021-5.658,15.786l-.127.2a8.5,8.5,0,0,0-1.289,4.784c.079,4.284,2.921,7.682,6.357,7.6h11.934a6.1,6.1,0,0,0,5.138-3.112l3.311-5.4a7.348,7.348,0,0,0,1.034-4.013,7.576,7.576,0,0,0-.277-2.053c-1.069-3.768-2.693-10.224-2.89-15.13a4.988,4.988,0,0,0-.977-2.824l-.087-.872c-.85-8.646-1.768-23.055.792-28.409,2.658-5.562,1.572-33.661.7-49.807a106.762,106.762,0,0,1,1.786-25.8c.416-2.162.861-4.287,1.306-6.139,1.242-5.209-.93-35.088-2.554-54.843l-.191-2.284a24.281,24.281,0,0,1,9.345,3,10.893,10.893,0,0,0,1.462.72l-.173,2.161c-1.572,19.554-3.392,45.952-2.231,50.816.376,1.571.745,3.329,1.11,5.144a111.081,111.081,0,0,1,1.942,27.479c-.873,16.218-1.907,43.813.722,49.317,2.554,5.346,1.653,19.655.8,28.337l-.087.865a4.478,4.478,0,0,0-.977,2.7c-.139,4.654-1.618,10.764-2.693,14.655a9.329,9.329,0,0,0-.324,2.342,9.1,9.1,0,0,0,1.283,5.043l2.918,4.762a6.1,6.1,0,0,0,5.138,3.113h11.934c3.436.081,6.278-3.318,6.357-7.6A8.5,8.5,0,0,0,428,538.556l-.127-.2c-4.4-6.765-5.658-15.786-5.658-15.786a10.07,10.07,0,0,0-2.121-3.415l.075-.67,2.988-25.981s7.86-56.76,5.346-60.888,0-22.926,0-22.926l5.028-33.077,4.178-25.4.37-2.255A120.013,120.013,0,0,1,450.51,348.961ZM361.842,224.368a14.427,14.427,0,0,1,1.924-.829,60.264,60.264,0,0,1-2.89,30.131C360.848,247.322,360.889,233.756,361.842,224.368Z" transform="translate(-146.846 -47.15)"/><path class="q" d="M409.962,503.554c-.422,1.479-.85,3.178-1.248,4.906a71.736,71.736,0,0,0-1.693,20.8c.838,12.916,1.872,35.391-.665,39.835-2.45,4.288-1.572,15.783-.757,22.723.387,3.282.757,5.536.757,5.536l-14.13-1.5-.451-3.271-2.855-20.8s-7.513-45.395-5.109-48.7,0-18.337,0-18.337L379,478.311l-3.213-16.326-3.7-18.845,33.969,2.4s.659,6,1.462,14.159C409.072,475.491,411.152,499.393,409.962,503.554Z" transform="translate(-162.091 -141.007)"/><path class="q" d="M484.619,442.6,481.7,457.458l-3.993,20.313L472.9,504.228s-2.4,15.026,0,18.337-5.109,48.7-5.109,48.7l-2.855,20.8-.451,3.271-14.13,1.5s.376-2.312.763-5.594c.815-6.935,1.682-18.389-.763-22.665-2.514-4.4-1.526-26.474-.694-39.442a74.653,74.653,0,0,0-1.855-21.96c-.347-1.451-.705-2.861-1.063-4.115-1.11-3.889.63-25,2.132-40.638.936-9.749,1.774-17.378,1.774-17.378Z" transform="translate(-181.352 -140.873)"/><circle class="r" cx="12.928" cy="12.928" r="12.928" transform="translate(248.103 0.95)"/><path class="r" d="M453.113,50.46c-.266-.15-.532-.283-.8-.41A12.922,12.922,0,0,1,439.7,72.559c.249.162.5.324.769.474a12.928,12.928,0,1,0,12.645-22.538Z" transform="translate(-181.408 -48.395)"/><path class="r" d="M484.819,132.458c.243-.179.474-.37.705-.578a12.922,12.922,0,0,1-15.367-20.7c-.254.162-.5.329-.745.509a12.93,12.93,0,0,0,15.407,20.77Z" transform="translate(-187.778 -74.198)"/><path class="r" d="M427.083,109.548c.243-.179.474-.37.705-.578a12.922,12.922,0,0,1-15.366-20.7c-.254.162-.5.329-.746.509a12.928,12.928,0,1,0,15.413,20.759Z" transform="translate(-172.536 -64.528)"/><circle class="r" cx="23.746" cy="23.746" r="23.746" transform="translate(234.384 19.293)"/><path class="q" d="M453.633,305.949c-4.207,1.2-12.026-18.036-12.026-18.036l-15.026-45.7.474-15.927,1.029-34.576-44.793,1.2s-8.414,21.654-11.419,27.659a17.257,17.257,0,0,0-1.219,4.531c-1.6,9.738-1.156,28.537-1.156,28.537l-3.306,32.166s-.3,15.933-5.71,12.928-6.01-15.6-6.01-15.6l2.04-51.74s0-.63-.069-1.768c-.22-6.311-.809-28.225.971-44.5q.208-1.9.41-3.571c1.93-15.835,4.144-17.071,21.839-19.874,10.09-1.6,14.037-7.045,15.517-11.778a18.562,18.562,0,0,0,.717-7.767s20.44-15.933,18.036,3.306a17.405,17.405,0,0,0,.4,6.808c2.456,8.975,12.367,12.76,18.36,14.251a16.759,16.759,0,0,1,12.714,17.389v.156a25.627,25.627,0,0,1-1.11,5.889,151.725,151.725,0,0,1-.578,18.036c-.433,3.317-.312,11.2-.069,18.493.266,7.923.67,15.164.67,15.164l6.935,45.7S457.846,304.723,453.633,305.949Z" transform="translate(-152.022 -84.649)"/><path class="e" d="M444.129,152.209A19.851,19.851,0,0,1,425,149.862a18.562,18.562,0,0,0,.717-7.767s20.441-15.933,18.036,3.306A17.406,17.406,0,0,0,444.129,152.209Z" transform="translate(-177.638 -84.632)"/><circle class="q" cx="19.84" cy="19.84" r="19.84" transform="translate(238.848 28.759)"/><path class="e" d="M420.741,704.024l-14.13-1.5-.451-3.271a15.835,15.835,0,0,1,7.062-3.34c1.156-.381,3.976.93,5.9,1.942a3.306,3.306,0,0,1,.861.641C420.371,701.753,420.741,704.024,420.741,704.024Z" transform="translate(-173.047 -221.228)"/><path class="s" d="M406.864,696.947s-6.935,1.2-9.021,6.01a31.921,31.921,0,0,1-5.409,12.627l-.121.162a6.091,6.091,0,0,0,4.866,9.761h11.414a6.091,6.091,0,0,0,4.912-2.49l3.167-4.323a5.149,5.149,0,0,0,.728-4.7c-1.023-3.017-2.577-8.177-2.757-12.136a3.548,3.548,0,0,0-1.878-3C410.834,697.86,408,696.548,406.864,696.947Z" transform="translate(-168.033 -221.663)"/><path class="e" d="M467.821,698.708l-.451,3.271-14.13,1.5s.376-2.312.763-5.594a3.261,3.261,0,0,1,.711-.509c1.919-1.017,4.866-2.4,6.039-2.017A15.887,15.887,0,0,1,467.821,698.708Z" transform="translate(-185.564 -220.996)"/><path class="s" d="M458.448,696.4s6.935,1.2,9.021,6.01a31.921,31.921,0,0,0,5.409,12.627l.121.162a6.091,6.091,0,0,1-4.866,9.761H456.726a6.091,6.091,0,0,1-4.912-2.49l-2.792-3.792a6.357,6.357,0,0,1-.919-5.779c1.029-3.109,2.445-7.992,2.577-11.72a3.254,3.254,0,0,1,1.734-2.762C454.333,697.4,457.281,696.014,458.448,696.4Z" transform="translate(-182.933 -221.435)"/><path class="e" d="M406.059,445.517s.659,6,1.462,14.159c-6.311-.769-12.685-.231-14.089-.63s-10.535,2.583-17.638,2.89l-3.7-18.845Z" transform="translate(-162.326 -163.204)"/><path class="e" d="M486.429,442.6l-2.918,14.858c-3.936,0-7.594.283-8.807,1.375-2.849,2.566-16.233,6.484-24.024,3.548.936-9.749,1.774-17.378,1.774-17.378Z" transform="translate(-182.727 -162.833)"/><path class="t" d="M362.661,269.583s11.125,16.534,0,38.477-20.741,67.615-20.741,67.615,10.223-.9,12.928,6.01,23.746-.578,25.856,0,15.332-.9,22.845,3.005,22.244-.3,25.254-3.005,21.042-.578,21.042-.578-9.634-70.337-23.151-82.363c0,0-8.091-9.923,2.1-26.457S362.661,269.583,362.661,269.583Z" transform="translate(-148.322 -102.348)"/><path class="e" d="M445.583,222.459a151.722,151.722,0,0,1-.578,18.036c-.433,3.317-.312,11.2-.069,18.493a46.766,46.766,0,0,0-12.558.133,12.587,12.587,0,0,1-4.045-.295c-4.935-.913-12.408-3.381-14.6-6.016-3.005-3.606-12.627,2.4-14.731,3.907s-14.731,2.1-18.036.578a11.823,11.823,0,0,0-9.038.324,16.991,16.991,0,0,0-4.791,2.982c-2.462,2.156-6.264,2.1-9.391,1.537-.22-6.311-.809-28.225.971-44.5q.208-1.9.41-3.571c12.65-1.422,46.81-.936,46.81-.936s29.519.653,40.789,3.433A25.626,25.626,0,0,1,445.583,222.459Z" transform="translate(-153.851 -94.213)"/><ellipse class="e" cx="18.187" cy="10.524" rx="18.187" ry="10.524" transform="translate(242.191 24.395)"/><ellipse class="r" cx="18.187" cy="10.524" rx="18.187" ry="10.524" transform="translate(242.191 23.794)"/><path class="e" d="M388,185.468c.578,0,16.233,0,18.938-.578" transform="translate(-167.862 -105.31)"/><path class="e" d="M466.5,190.678c7.813,0,9.622,0,12.327-.578" transform="translate(-189.319 -107.509)"/><path class="u" d="M424.26,210s7.906,4.144,8.27,8.333c0,0,2.942-7.8,7.137-8.166" transform="translate(-177.784 -95.375)"/><path class="e" d="M416.655,731.411l-3.167,4.323a6.091,6.091,0,0,1-4.912,2.491H397.162a6.091,6.091,0,0,1-6.085-5.669,6.1,6.1,0,0,0,6.085,6.571h11.414a6.091,6.091,0,0,0,4.912-2.49l3.168-4.323a5.155,5.155,0,0,0,.977-3.5,5.155,5.155,0,0,1-.977,2.6Z" transform="translate(-168.026 -235.143)"/><path class="e" d="M468.138,737.534H456.73a6.091,6.091,0,0,1-4.912-2.49l-2.792-3.809a6.357,6.357,0,0,1-1.219-3.334,6.357,6.357,0,0,0,1.219,4.242l2.791,3.808a6.091,6.091,0,0,0,4.912,2.491h11.408a6.1,6.1,0,0,0,6.085-6.571A6.091,6.091,0,0,1,468.138,737.534Z" transform="translate(-182.935 -234.759)"/><g class="v" transform="translate(193.597 162.465)"><path d="M436.207,299.143s-8.091-9.923,2.1-26.457c2.716-4.392-.682-6.64-7.131-7.576,1.115,1.208,1.2,2.8-.087,4.872-10.223,16.534-2.1,26.457-2.1,26.457,13.529,12.026,23.145,82.369,23.145,82.369s-18.036-2.1-21.042.578-17.736,6.935-25.255,3.005-20.741-2.4-22.845-3.005c-1.41-.4-11.333,2.843-18.533,2.942,3.092,6.5,23.694-.832,25.746-.237s15.332-.9,22.845,3.005,22.244-.3,25.254-3.005,21.042-.578,21.042-.578S449.724,311.169,436.207,299.143Z" transform="translate(-351.434 -265.11)"/><path d="M342.278,454.3c-.237,1.069-.358,1.659-.358,1.659a19.344,19.344,0,0,1,3.386.081A10.5,10.5,0,0,0,342.278,454.3Z" transform="translate(-341.92 -344.966)"/></g><path class="e" d="M401.252,216.786s-42.389-.578-50.2,1.5-3.311,45.978-3.311,45.978,9.923,4.207,14.731,0,10.524-4.808,13.829-3.306,15.933.9,18.036-.578,11.726-7.513,14.731-3.907S425,263.412,427.7,262.787s17.736-1.5,19.839,3.306c0,0,2.4-39.98-1.5-44.192S401.252,216.786,401.252,216.786Z" transform="translate(-149.987 -95.251)"/><path class="t" d="M401.253,214.186s-42.389-.578-50.2,1.5-3.306,46-3.306,46,9.923,4.207,14.731,0,10.524-4.808,13.829-3.306,15.933.9,18.036-.578,11.726-7.513,14.731-3.907,15.933,6.935,18.637,6.311,17.736-1.5,19.84,3.306c0,0,2.4-39.979-1.5-44.192S401.253,214.186,401.253,214.186Z" transform="translate(-149.988 -94.513)"/></g></svg>