<svg xmlns="http://www.w3.org/2000/svg" xmlns:xlink="http://www.w3.org/1999/xlink" width="629.012" height="487.601" viewBox="0 0 629.012 487.601"><defs><style>.a,.b,.g{fill:#4ac785;}.a,.f,.l{opacity:0.1;}.b{opacity:0.3;}.c,.h{fill:#fff;}.c{opacity:0.4;}.d{fill:url(#a);}.e{fill:#ecb4b6;}.h{opacity:0.25;}.i{fill:#ff748e;}.j{fill:#5e5a6b;}.k{fill:#464353;}.m{fill:#9f9eff;}.n{fill:url(#b);}.o{fill:url(#c);}.p{fill:url(#d);}.q{fill:#333;}.r{fill:#535461;}.s{opacity:0.03;}.t{fill:#f2f2f2;}.u{opacity:0.05;}.v{fill:#cbdae3;}.w{fill:#ffd037;}.x{fill:#a8a8a8;}.y{opacity:0.2;}.z{fill:none;stroke:#535461;stroke-miterlimit:10;stroke-width:2px;}</style><linearGradient id="a" x1="0.5" y1="1" x2="0.5" gradientUnits="objectBoundingBox"><stop offset="0" stop-color="gray" stop-opacity="0.251"/><stop offset="0.54" stop-color="gray" stop-opacity="0.122"/><stop offset="1" stop-color="gray" stop-opacity="0.102"/></linearGradient><linearGradient id="b" x1="0" y1="0.5" x2="1" y2="0.5" xlink:href="#a"/><linearGradient id="c" x1="0" y1="0.5" x2="1" y2="0.5" xlink:href="#a"/><linearGradient id="d" x1="0" y1="0.506" x2="1" y2="0.506" xlink:href="#a"/></defs><g transform="translate(-0.028 -0.042)"><ellipse class="a" cx="242.47" cy="16.592" rx="242.47" ry="16.592" transform="translate(69.39 454.459)"/><path class="a" d="M650.333,408.58a48.49,48.49,0,0,1-9.49,10.993c-1.013.862-2.064,1.7-3.132,2.484-13.674,10.119-31.982,14.566-49.768,17.448-34.531,5.593-69.783,6.682-104.887,7.748-29.555.908-59.126,1.815-88.692,2.416-42.26.873-84.525,1.134-126.719,0q-34.6-.936-69.139-3.3c-42.728-3.012-86.556-8.332-123.751-26.914A126.867,126.867,0,0,1,55.317,407.6c-10.1-7.584-18.419-16.761-22.867-27.629-7.156-17.47-3.374-37.1,4.8-54.232,4.954-10.357,11.389-20.057,18.066-29.671,3.952-5.706,7.993-11.378,11.835-17.136.4-.567.793-1.174,1.178-1.764.743-1.134,1.481-2.269,2.2-3.4,3.017-4.782,5.874-9.716,8.494-14.748a169.239,169.239,0,0,0,7.074-15.44,137.436,137.436,0,0,0,4.954-14.748c.914-3.375,1.684-6.761,2.279-10.147,3.253-18.44,1.536-36.869-8.1-53.551-.094-.164-.193-.34-.292-.5l-.121-.2A156.283,156.283,0,0,0,75.6,151.143c-3.853-5.218-7.646-10.471-10.316-16.217-7.024-15.184-5.5-32.258-2.951-48.474C65.738,64.9,72.079,41.642,91.715,28.2c20.395-13.988,49.35-13.279,74.666-8.276,39.337,7.754,75.662,24.016,112.34,38.69S353.8,86.713,394.127,88.148c35.61,1.276,77.143-8.253,100.775-33.04,22.955-24.067,66.106-25.9,97.219-11.344C621.8,57.632,641,86.991,639.555,116.3c-2.1,42.694-42.034,75.44-65.858,112.8-1.068,1.668-2.108,3.375-3.1,5.1-9.358,16.3-15.121,35.009-8.219,51.974,9.259,22.728,36.749,33.817,59.935,48.094,11.2,6.892,21.413,14.532,28.019,24.606.248.363.473.72.7,1.078C660.351,374.819,659.647,393.8,650.333,408.58Z" transform="translate(-28.64 -16.61)"/><path class="b" d="M92.316,327.2c3.024-4.449,5.887-9.04,8.514-13.721a152.336,152.336,0,0,0,7.1-14.354,121.613,121.613,0,0,0,4.966-13.721c.916-3.14,1.688-6.291,2.284-9.441,3.261-17.157,1.539-34.3-8.117-49.824-.094-.153-.193-.317-.292-.47l-9.38-12.544h69.606v44.2h19.362V389.924h24.984V346.913h29.978v43.011h24.968V316.447h1.247V278.218h23.726v38.229h54.962v57.344h30.607V355.848h18.76v17.943h30.6V204.144h39.97V177.261h6.87v26.883h11.24v53.164h19.991v-44.2h16.862V167.72H556.09v45.385h16.868v44.2h20.609V290.4c-9.38,15.162-15.157,32.572-8.238,48.357,9.281,21.146,36.836,31.464,60.077,44.747,11.223,6.417,21.464,13.526,28.085,22.9v46.256a46.269,46.269,0,0,1-9.512,10.212c-1.015.8-2.069,1.583-3.14,2.312-13.706,9.415-32.058,13.552-49.886,16.233-34.613,5.2-69.948,6.217-105.134,7.209-29.625.844-59.266,1.689-88.9,2.248H289.889q-34.679-.871-69.3-3.071c-42.828-2.8-86.76-7.752-124.043-25.041a129.347,129.347,0,0,1-19.483-11.03V347.963c3.962-5.309,8.012-10.586,11.863-15.943Z" transform="translate(-51.494 -57.763)"/><path class="c" d="M144.164,372.79v9.441H142C142.855,379.091,143.583,375.941,144.164,372.79Z" transform="translate(-82.163 -172.134)"/><rect class="c" width="25.089" height="14.339" transform="translate(118.152 209.903) rotate(180)"/><path class="c" d="M133.821,416.72v14.333H120.1a155.287,155.287,0,0,0,6.808-14.333Z" transform="translate(-71.82 -191.161)"/><rect class="c" width="25.089" height="14.339" transform="translate(118.152 239.892) rotate(180)"/><path class="c" d="M73.166,453.3H95.009v14.339H69.92v-9.515Z" transform="translate(-33.007 -197.758)"/><rect class="c" width="25.089" height="14.339" transform="translate(118.152 269.881) rotate(180)"/><rect class="c" width="25.089" height="14.339" transform="translate(36.913 285.537)"/><rect class="c" width="25.089" height="14.339" transform="translate(118.152 299.87) rotate(180)"/><rect class="c" width="25.089" height="14.339" transform="translate(36.913 315.525)"/><rect class="c" width="25.089" height="14.339" transform="translate(118.152 329.858) rotate(180)"/><rect class="c" width="25.089" height="14.339" transform="translate(36.913 345.514)"/><rect class="c" width="25.089" height="14.339" transform="translate(118.152 359.847) rotate(180)"/><rect class="c" width="25.089" height="14.339" transform="translate(36.913 375.503)"/><rect class="c" width="25.089" height="14.339" transform="translate(118.152 389.836) rotate(180)"/><rect class="c" width="58.542" height="7.167" transform="translate(145.695 337.51)"/><rect class="c" width="58.542" height="7.167" transform="translate(145.695 348.987)"/><rect class="c" width="58.542" height="7.167" transform="translate(145.695 360.457)"/><rect class="c" width="58.542" height="7.167" transform="translate(305.913 341.339)"/><rect class="c" width="58.542" height="7.167" transform="translate(305.913 352.81)"/><rect class="c" width="58.542" height="7.167" transform="translate(305.913 364.281)"/><rect class="c" width="58.542" height="7.167" transform="translate(145.695 371.934)"/><rect class="c" width="58.542" height="7.167" transform="translate(145.695 383.405)"/><rect class="c" width="58.542" height="7.167" transform="translate(145.695 400.26)"/><rect class="c" width="16.128" height="20.909" transform="translate(228.8 258.987)"/><rect class="c" width="16.128" height="20.909" transform="translate(281.736 279.89) rotate(180)"/><rect class="c" width="16.128" height="20.909" transform="translate(228.8 294.748)"/><rect class="c" width="16.128" height="20.909" transform="translate(281.736 315.657) rotate(180)"/><rect class="c" width="16.128" height="20.909" transform="translate(228.8 330.515)"/><rect class="c" width="16.128" height="20.909" transform="translate(281.736 351.424) rotate(180)"/><rect class="c" width="16.128" height="20.909" transform="translate(228.8 366.282)"/><rect class="c" width="16.128" height="20.909" transform="translate(281.736 387.191) rotate(180)"/><rect class="c" width="21.505" height="27.479" transform="translate(375.539 139.054)"/><rect class="c" width="21.505" height="27.479" transform="translate(375.539 181.244)"/><rect class="c" width="21.505" height="27.479" transform="translate(375.539 223.44)"/><rect class="c" width="21.505" height="27.479" transform="translate(375.539 265.636)"/><rect class="c" width="21.505" height="27.479" transform="translate(375.539 307.827)"/><rect class="c" width="21.505" height="27.479" transform="translate(375.539 350.023)"/><rect class="c" width="80.047" height="23.294" transform="translate(448.508 199.023)"/><rect class="c" width="80.047" height="23.294" transform="translate(448.818 252.689)"/><rect class="c" width="80.047" height="23.294" transform="translate(449.134 306.356)"/><rect class="c" width="80.047" height="23.294" transform="translate(449.444 360.023)"/><path class="c" d="M131.14,277.49v.47c-.09-.153-.185-.317-.28-.47Z" transform="translate(-76.901 -130.699)"/><path class="c" d="M1133.962,599.523v8.623H1107.1V576.64C1117.834,583.041,1127.629,590.15,1133.962,599.523Z" transform="translate(-511.965 -260.123)"/><path class="c" d="M1133.948,665.74v22.1a45.528,45.528,0,0,1-9.1,10.228c-.971.8-1.979,1.583-3,2.312H1107.07V665.74Z" transform="translate(-511.951 -298.688)"/><path class="a" d="M339.143,216.522h-4.111a2.876,2.876,0,1,0,0-5.752H301.737a2.876,2.876,0,0,0,0,5.752h4.111a2.881,2.881,0,0,0,0,5.758H300.1a2.876,2.876,0,1,0,0,5.752h33.29a2.876,2.876,0,1,0,0-5.752h5.758a2.881,2.881,0,0,0,0-5.758Z" transform="translate(-148.873 -101.258)"/><path class="a" d="M617.584,353.482h-4.111a2.876,2.876,0,0,0,0-5.752H580.178a2.876,2.876,0,1,0,0,5.752h4.1a2.881,2.881,0,0,0,0,5.758h-5.752a2.876,2.876,0,1,0,0,5.752h33.3a2.876,2.876,0,0,0,0-5.752h5.758a2.881,2.881,0,0,0,0-5.758Z" transform="translate(-273.529 -160.981)"/><path class="a" d="M1091.969,174.642h-4.111a2.876,2.876,0,0,0,0-5.752h-33.295a2.876,2.876,0,1,0,0,5.752h4.111a2.876,2.876,0,0,0,0,5.752h-5.752a2.881,2.881,0,0,0,0,5.758h33.29a2.881,2.881,0,1,0,0-5.758h5.758a2.876,2.876,0,1,0,0-5.752Z" transform="translate(-485.077 -82.996)"/><path class="d" d="M925.653,399.541l.032-.047-.127-.084-.259-.174a.182.182,0,0,1,.047.042,1.055,1.055,0,0,0-1.388.3l-.158.216h0L916.412,410.4l-1.293,1.863c-3.884-1.172-10.2,3.757-13.4,6.581l-.559.5c-.253-.57-.4-.929-.4-.929-.158,1.731-6.285,4.333-7.716,5.277a5.246,5.246,0,0,1-2.111.718c.2-6.6-4.9-13.547-4.9-13.547l-12.46-15.874a14.006,14.006,0,0,1,1.272-8.417c.1-.206.211-.412.327-.617h.6a17.432,17.432,0,0,0,3.034-.269,16.618,16.618,0,0,0,13.684-15.32,2.715,2.715,0,0,0,2.143-2.829,2.112,2.112,0,0,0,0-.771h0a2.854,2.854,0,0,0-.143-.47h0a14.246,14.246,0,0,0-1.662-2.454,7.562,7.562,0,0,1-1.187-4.037,15.945,15.945,0,0,1,.58-3.694,6.334,6.334,0,0,0,.354-2.238v-.153a3.226,3.226,0,0,0-.026-.6,2.825,2.825,0,0,0-.1-.417h0a3.963,3.963,0,0,0-1.668-2.037c-1.974-1.288-4.5-1.309-6.718-2.111-3.219-1.177-6.127-4.085-9.5-3.383-1.836.38-3.246,1.789-4.834,2.781a11.688,11.688,0,0,1-5.831,1.773,38.923,38.923,0,0,0-5.2,0,5.433,5.433,0,0,0-.9.243,13.419,13.419,0,0,0-4.517-.712,7.6,7.6,0,0,0-4.264,1.177c-2.312,1.61-2.924,4.75-2.892,7.541a.287.287,0,0,0,0,.069c0,.185,0,.364,0,.528,0,1.34.132,2.7.158,4.042a12.3,12.3,0,0,1-.528,3.694c-1.056,3.314-4.111,5.847-4.723,9.283a7.875,7.875,0,0,0-.105,1.794,18.85,18.85,0,0,0,1.156,5.773,43.1,43.1,0,0,1,2.143,12.075,19.921,19.921,0,0,1-1.472,7.32,10.888,10.888,0,0,1-1.055,1.937c-.137.19-.28.38-.433.559l-.058.069c-.132.153-.274.3-.417.433l-.116.111a5.231,5.231,0,0,1-.427.338l-.142.106a4.516,4.516,0,0,1-.623.354l1.055-.063a5.035,5.035,0,0,1-1.056.676l5.6-.327a1.048,1.048,0,0,1,.026.185,2.826,2.826,0,0,1-.079.412,3.337,3.337,0,0,1-.137.385q0,.026,0,.053a3.226,3.226,0,0,1-.433.7l-.047.053a2.99,2.99,0,0,1-.28.3h0a2.78,2.78,0,0,1-.306.238l-.069.053a3.249,3.249,0,0,1-.348.2h0a2.967,2.967,0,0,1-.359.137l-.095.026a2.325,2.325,0,0,1-.391.074l.528-.058c.354-.042.707-.09,1.056-.148h.105a2.823,2.823,0,0,1-1.689.839,15.465,15.465,0,0,0,3.552-.7c.728,4.9,2.348,19.843,1.457,22.6-.955,2.94,1.483,24.492,1.483,24.492s.332,1.652.913,4.116c-1.5,3.541-3.209,7.457-4.069,9.03-1.72,3.166-.876,19.241,5.066,26.387,0,0,2.459,3.467,1.81,4.75s.111,3.473.111,3.473l.939,20.814a53.8,53.8,0,0,1-.438,6.359c-2.528,3.14-6.438,7.716-8.275,8.444-2.844,1.156-24.059,26.914-24.059,26.914s.169.311.5.818l-.6.691-4.069,4.718-.322.375c-.765-.143-5.847-1.055-9.89-1.362l-.4-.026v-.069a14.987,14.987,0,0,0-4.264.111h-.032a1.388,1.388,0,0,0-.7.369c-1.377,1.684-2.111,28.181-2.111,28.181s1.467,13.236,6.027,14a2.637,2.637,0,0,0,.739.143h.005a2.063,2.063,0,0,0,.253,0,6.265,6.265,0,0,0,5.43-3.4,5.523,5.523,0,0,0,.454-1.224,9.83,9.83,0,0,1,.9-5.62c1.43-3.256,4.085-8.94,4.085-8.94s4.85-5.1,3.984-7.578l.464-.67c1.826-2.6,5.5-7.726,8.481-11.151l.58-.66a14.7,14.7,0,0,0,3.383.982s4.56-1.784,6.259-5.805c.723-1.7,3.552-4.707,6.565-7.61-.063.5-.095.776-.095.776l-.105,25.331a17.794,17.794,0,0,0,3.119,1.715v.633a81.7,81.7,0,0,1-.649,10.8l-.095.559c-.375-.269-.7-.359-.908-.148-.934.945-1.515,6.992-1.583,9.779v.158h0c-.063,1.151-.369,2.523-.369,3.747-.032,1.779.528,3.277,3.4,3.4,3.573.148,18.941.385,27.168.528a18.249,18.249,0,0,0,12.138-4.3c1.509-1.293,2.665-2.728,2.7-4.085.074-1.055-.491-2.042-2.063-2.908a.623.623,0,0,1-.032.106c-.206-.111-.427-.222-.67-.327l-7.916-1.24L867.369,600.8s-.079-4.159-1.694-3.467a4.492,4.492,0,0,0-1.367.528c-.079-.158-.164-.317-.243-.485a15.585,15.585,0,0,1-1.662-7.019,4.778,4.778,0,0,1,.032-.67,12.127,12.127,0,0,0,1.119-1.145s-.106-9.462.95-11.251,4.354-19.875,4.354-19.875a8.594,8.594,0,0,1,2.227-5.362c2.121-2,1.377-7.779,1.377-7.779s2.966-1.583,3.921-6.729,4.032-16.4,4.032-16.4,6.365-16.613,5.942-27.126.633-15.98.633-15.98l1.325-24.429v-.38c.528.406.881.728.881.728v-.264l.306.264s.676-11.083.449-15.479c3.694-1.261,9.362-3.335,9.679-4.391.48-1.583,6.861-6.544,6.861-6.544a1.172,1.172,0,0,1-.385-.148c.2-.09.406-.2.628-.317,4.169-2.238,11.922-8.766,10.618-12.761l8.475-12.191A2.074,2.074,0,0,0,925.653,399.541ZM856.6,387.688a4.871,4.871,0,0,0-.617.047,46.857,46.857,0,0,0-1.583-6.423,42.636,42.636,0,0,1-2.2-10.064V370.8a12.1,12.1,0,0,1,.354-2.686c.2.375.427.744.66,1.092,1.356,2.048,2.94,3.995,3.773,6.3a17.417,17.417,0,0,0,1.182,3.166,2.964,2.964,0,0,0,2.781,1.61,2.185,2.185,0,0,0,1.056-.48A44.575,44.575,0,0,1,856.6,387.688Z" transform="translate(-366.541 -141.516)"/><path class="e" d="M994.13,492.417a5.574,5.574,0,0,1-2,.76c-2.639.074-4.75-6.993-4.75-6.993s.744-.755,1.926-1.81c3.5-3.108,10.845-8.855,14.286-5.641C1007.439,482.337,998.626,489.984,994.13,492.417Z" transform="translate(-455.426 -217.765)"/><path class="e" d="M909.765,811.595l-9.631,10.4s-8.914.1-7.167-4.818a18.767,18.767,0,0,0,.739-3.267,80.114,80.114,0,0,0,.628-10.555c0-2.306-.037-3.921-.037-3.921s14.033-6.148,12.6.253a11.939,11.939,0,0,0-.3,2.486A15.27,15.27,0,0,0,908.182,809a15.65,15.65,0,0,0,1.583,2.591Z" transform="translate(-416.494 -354.841)"/><path class="f" d="M909.765,822.522l-9.631,10.4s-8.914.1-7.167-4.818a18.768,18.768,0,0,0,.739-3.267,20.5,20.5,0,0,1,3.1,3.884s6.143,1.794,7.832-3.583a9.16,9.16,0,0,1,3.573-5.225,15.635,15.635,0,0,0,1.552,2.612Z" transform="translate(-416.494 -365.768)"/><path class="g" d="M930.407,838.065a17.537,17.537,0,0,1-11.732,4.222c-7.942-.116-22.788-.348-26.234-.491-4.612-.2-3.082-4.137-2.934-6.861v-.275c.053-2.713.617-8.6,1.52-9.5s4.069,4.1,4.069,4.1,6.143,1.794,7.832-3.583,5.14-5.932,5.14-5.932c1.583-.676,1.641,3.378,1.641,3.378l13.009,6.713,7.631,1.2c.248.111.47.227.681.338C934.455,833.284,932.935,835.88,930.407,838.065Z" transform="translate(-413.915 -365.653)"/><circle class="h" cx="0.565" cy="0.565" r="0.565" transform="translate(491.11 460.95)"/><circle class="h" cx="0.565" cy="0.565" r="0.565" transform="translate(496.615 463.562)"/><circle class="h" cx="0.565" cy="0.565" r="0.565" transform="translate(499.45 464.781)"/><circle class="h" cx="0.565" cy="0.565" r="0.565" transform="translate(510.396 466.945)"/><circle class="h" cx="0.565" cy="0.565" r="0.565" transform="translate(502.335 466.021)"/><path class="g" d="M930.407,848.565a17.537,17.537,0,0,1-11.732,4.222c-7.942-.116-22.788-.348-26.234-.491-4.612-.2-3.082-4.138-2.934-6.861l28.952,1.794s11.858-1.8,12.565-5.33C934.455,843.784,932.935,846.38,930.407,848.565Z" transform="translate(-413.915 -376.153)"/><path class="h" d="M930.407,848.312a17.533,17.533,0,0,1-11.732,4.19c-7.942-.116-22.788-.343-26.234-.491-4.612-.2-3.082-4.137-2.934-6.861l28.952,1.789s11.858-1.8,12.565-5.33C934.455,843.531,932.935,846.127,930.407,848.312Z" transform="translate(-413.915 -376.016)"/><path class="e" d="M847.187,769.254a20.042,20.042,0,0,0-2.908,2.908c-2.871,3.341-6.423,8.338-8.185,10.866l-1.1,1.583-3.842-.57s-4.148-6.333-4.1-6.5,3.277-6.966,3.277-6.966l1.251-1.462,3.937-4.6,1.778-2.079S850.67,766.742,847.187,769.254Z" transform="translate(-386.894 -338.622)"/><path class="f" d="M836.094,789.006,835,790.59l-3.842-.57s-4.148-6.333-4.1-6.5,3.277-6.966,3.277-6.966l1.251-1.462.412.074h.971c-3.43,3.583.259,11.473.259,11.473S834.823,786.8,836.094,789.006Z" transform="translate(-387.264 -344.601)"/><path class="g" d="M820.888,796.115s-2.565,5.531-3.947,8.708a9.659,9.659,0,0,0-.871,5.483,5.269,5.269,0,0,1-.438,1.187,6.042,6.042,0,0,1-5.246,3.319,1.285,1.285,0,0,1-.248,0c-4.649-.121-6.138-13.679-6.138-13.679s.712-25.812,2.048-27.442a1.252,1.252,0,0,1,.675-.359,14.326,14.326,0,0,1,4.111-.111c4.222.3,9.658,1.34,9.658,1.34h.971c-3.43,3.583.253,11.473.253,11.473s1.641.153,2.924,2.459S820.888,796.115,820.888,796.115Z" transform="translate(-376.543 -343.673)"/><circle class="h" cx="0.565" cy="0.565" r="0.565" transform="translate(438.024 444.199)"/><circle class="h" cx="0.565" cy="0.565" r="0.565" transform="translate(437.732 448.669)"/><path class="g" d="M814.951,811.314a6.084,6.084,0,0,1-5.246,3.319h-.216c-4.67-.121-6.159-13.679-6.159-13.679s.718-25.812,2.048-27.442a1.272,1.272,0,0,1,.676-.359,14.36,14.36,0,0,1,4.116-.111c-.079,4.633-.3,19.3,0,20.761S813.093,807.408,814.951,811.314Z" transform="translate(-376.527 -343.588)"/><path class="h" d="M815.577,811.494a6.037,6.037,0,0,1-5.246,3.32,1.284,1.284,0,0,1-.248,0c-4.67-.121-6.153-13.679-6.153-13.679s.718-25.812,2.048-27.442a1.271,1.271,0,0,1,.676-.359,14.353,14.353,0,0,1,4.116-.111c-.079,4.634-.3,19.3,0,20.761S813.714,807.588,815.577,811.494Z" transform="translate(-376.795 -343.673)"/><path class="g" d="M809.489,814.82c-4.67-.121-6.159-13.679-6.159-13.679s.718-25.812,2.048-27.442a1.272,1.272,0,0,1,.676-.359c.982,1.457,1.842,4.681,1.055,11.779-1.457,13.447.3,14.291.3,14.291S809.568,810.809,809.489,814.82Z" transform="translate(-376.691 -343.775)"/><path class="f" d="M809.369,814.811c-4.686-.121-6.159-13.689-6.159-13.689s.718-25.812,2.048-27.442a1.272,1.272,0,0,1,.676-.359c.982,1.457,1.837,4.681,1.055,11.779-1.457,13.447.3,14.291.3,14.291S809.474,810.8,809.369,814.811Z" transform="translate(-376.637 -343.765)"/><path class="f" d="M994.13,498.313a5.572,5.572,0,0,1-2,.76c-2.639.074-4.75-6.992-4.75-6.992s.744-.755,1.926-1.81C990.124,492.2,992.483,497.357,994.13,498.313Z" transform="translate(-455.426 -223.461)"/><path class="i" d="M966.153,495.4a6.581,6.581,0,0,0,3.536-.77c1.383-.924,7.3-3.457,7.452-5.145,0,0,3.536,8.6,5.531,8.908,0,0-6.143,4.845-6.607,6.38s-12.444,5.277-12.444,5.277Z" transform="translate(-444.205 -222.664)"/><path class="g" d="M966.153,495.4a6.581,6.581,0,0,0,3.536-.77c1.383-.924,7.3-3.457,7.452-5.145,0,0,3.536,8.6,5.531,8.908,0,0-6.143,4.845-6.607,6.38s-12.444,5.277-12.444,5.277Z" transform="translate(-444.205 -222.664)"/><path class="f" d="M854.763,769.263a20.052,20.052,0,0,0-2.908,2.908,20.736,20.736,0,0,1-8.755-7.642l1.778-2.079S858.246,766.751,854.763,769.263Z" transform="translate(-394.367 -338.632)"/><path class="j" d="M876.78,692.76s-7.515,10.027-10.259,11.167S843.3,730.15,843.3,730.15s4.391,8.122,12.507,9.425c0,0,4.407-1.742,6.043-5.631s14.539-14.856,14.539-14.856Z" transform="translate(-393.752 -305.72)"/><path class="f" d="M876.78,692.76s-7.515,10.027-10.259,11.167S843.3,730.15,843.3,730.15s4.391,8.122,12.507,9.425c0,0,4.407-1.742,6.043-5.631s14.539-14.856,14.539-14.856Z" transform="translate(-393.752 -305.72)"/><path class="f" d="M863.6,756.443a32.506,32.506,0,0,0,6.861,0C874.514,756.057,871.437,758.517,863.6,756.443Z" transform="translate(-403.69 -335.775)"/><path class="f" d="M860.11,761.43s5.378,3.071,7.452,1.536S865.562,764.449,860.11,761.43Z" transform="translate(-402.143 -338.15)"/><path class="f" d="M908.272,799.739a11.937,11.937,0,0,0-.29,2.459c-4.153,3.768-9.151,2.607-12.275,1.23,0-2.306-.037-3.921-.037-3.921S909.708,793.338,908.272,799.739Z" transform="translate(-417.958 -354.869)"/><path class="j" d="M929.207,548.393l-.153,2.834-1.282,23.8s-1.055,5.325-.617,15.568-5.715,26.429-5.715,26.429-2.971,10.966-3.895,15.985-3.789,6.554-3.789,6.554.718,5.636-1.33,7.578a8.4,8.4,0,0,0-2.148,5.225s-3.166,17.621-4.222,19.363-.923,10.961-.923,10.961c-6.66,7.89-16.392.718-16.392.718l.1-24.688s2.771-22.74,4.818-25.917,2.048-11.885,2.048-11.885l-.913-20.281s-.728-2.153-.1-3.383-1.752-4.6-1.752-4.6c-5.736-6.966-6.554-22.64-4.892-25.717s6.644-15.362,6.644-15.362l6.861-4,12.386.37Z" transform="translate(-413.156 -237.157)"/><path class="f" d="M911.5,777.88s1.62,5.61,2.924,6.222S911.5,777.88,911.5,777.88Z" transform="translate(-425.392 -345.919)"/><path class="f" d="M915.72,742.5s4.222,3.314,5.958,3.3S915.72,742.5,915.72,742.5Z" transform="translate(-427.185 -329.21)"/><path class="e" d="M934.2,444.1v6.76l-4.465-1.921-4.449-1.921-9.679-9.526s-7.657-4.977-11.758-9.5c-2.343-2.586-3.525-5.029-1.457-6.333a12.933,12.933,0,0,0,2.676-2.348,44.077,44.077,0,0,0,5.346-7.884l.19-.343c1.995-3.663,3.309-6.787,3.309-6.787a40.875,40.875,0,0,1,9.23,4.349c.29.2.565.412.829.628,2.016,1.652,3.013,3.562,1.161,5.473a14.293,14.293,0,0,0-1.325,1.583h0a11.965,11.965,0,0,0-.818,1.293c-.111.2-.216.4-.317.6a13.778,13.778,0,0,0-1.23,8.206Z" transform="translate(-419.781 -184.649)"/><path class="f" d="M933.269,414.759a14.274,14.274,0,0,0-1.325,1.583h0a11.944,11.944,0,0,0-.818,1.293c-.111.2-.216.4-.317.6a16.1,16.1,0,0,1-12.069-6.523,2.656,2.656,0,0,1-.19-.269l.19-.343c1.995-3.662,3.309-6.787,3.309-6.787a40.877,40.877,0,0,1,9.23,4.349c.29.2.565.412.828.628C934.124,410.938,935.147,412.849,933.269,414.759Z" transform="translate(-428.126 -185.759)"/><path class="e" d="M945.194,384.572a16.107,16.107,0,0,1-16.133,16.133h-.6a16.133,16.133,0,1,1,16.629-17.9A16.452,16.452,0,0,1,945.194,384.572Z" transform="translate(-425.003 -169.567)"/><path class="f" d="M942.192,461.2s8.127,4.586,6.043.718l-10.6-15.674h0l12.038,15.468s7.684,10.555,3.483,17.822c0,0-.617,6.048.1,7.478s-.206,16.7-.206,16.7-2.866-2.639-4.4-2.153-12.4,1.435-12.4,1.435Z" transform="translate(-435.983 -202.374)"/><path class="f" d="M952.6,548.714l-.153,2.834c-.971-.707-2.327-1.5-3.224-1.2-1.536.528-12.4,1.435-12.4,1.435l.5-3.525Z" transform="translate(-436.33 -249.008)"/><path class="k" d="M942.772,461.2s8.127,4.586,6.043.718l-10.6-15.674h0l12.038,15.468s7.684,10.555,3.483,17.822c0,0-.612,6.048.1,7.478s-.2,16.7-.2,16.7-2.871-2.639-4.406-2.153-12.4,1.435-12.4,1.435Z" transform="translate(-436.244 -202.374)"/><path class="f" d="M924.964,462.962a56.017,56.017,0,0,1-2.5,10.782s-1.43,14.55-3.277,18.856-1.024,10.243-2.048,21.2c-.369,3.942-1.641,6.655-3.356,8.486-2.818,3.008-6.861,3.636-10.027,3.451a6.649,6.649,0,0,1-.755-.058c-5.124-.528-10.027-25.2-10.027-25.2s-2.354-21-1.435-23.87-.918-19.257-1.536-22.846c-.391-2.269.786-5.984,1.694-8.4.528-1.4.971-2.359.971-2.359s1.742-5.531,4.607-8.4a4.222,4.222,0,0,1,3.04-1.277,7.546,7.546,0,0,1,3.794,1.187l.132.09s18.645,19.051,20.387,23.458A11.382,11.382,0,0,1,924.964,462.962Z" transform="translate(-414.588 -195.206)"/><path class="g" d="M923.813,462.382a56.027,56.027,0,0,1-2.5,10.782s-1.435,14.55-3.277,18.851-1.056,10.243-2.048,21.2c-.37,3.948-1.641,6.66-3.356,8.491-2.823,3.008-6.861,3.636-10.027,3.451l-.749-.058c-5.124-.528-10.027-25.2-10.027-25.2s-2.354-21-1.43-23.87-.924-19.257-1.536-22.846c-.391-2.269.781-5.984,1.694-8.4.528-1.393.966-2.354.966-2.354s1.741-5.531,4.612-8.4a4.222,4.222,0,0,1,3.034-1.272,7.573,7.573,0,0,1,3.8,1.187l.132.084s18.645,19.057,20.381,23.458A11.627,11.627,0,0,1,923.813,462.382Z" transform="translate(-414.077 -194.957)"/><path class="f" d="M910.312,631s-4.222,3.763-5.689,3.61S910.312,631,910.312,631Z" transform="translate(-422.121 -285.174)"/><path class="f" d="M912.324,637.787a55.972,55.972,0,0,1-5.805,2.375C905.168,640.467,910.6,637.254,912.324,637.787Z" transform="translate(-422.962 -288.17)"/><path class="f" d="M950.37,530.594s6.607.074,7.6,2.148S952.523,529.75,950.37,530.594Z" transform="translate(-437.948 -241.274)"/><path class="f" d="M948.62,537.52s5.072,1.055,6.607,2.306S948.62,537.52,948.62,537.52Z" transform="translate(-437.121 -244.351)"/><path class="f" d="M929.375,513.79s-.612,20.819-2.881,23.511S929.375,513.79,929.375,513.79Z" transform="translate(-431.861 -233.127)"/><path class="f" d="M920.751,624.082s-4.222,18.36,4.269,19.526,5.874-20.9,5.874-20.9Z" transform="translate(-428.789 -280.705)"/><path class="e" d="M920.17,623.492s-4.222,18.365,4.264,19.526,5.879-20.9,5.879-20.9Z" transform="translate(-428.528 -280.448)"/><path class="f" d="M915.98,470.064c-.438-11.035-15.88-13.315-19.484-2.876-.026.069-.048.137-.074.211-2.354,7.066-1.33,24.962-1.33,24.962s.306,12.017,1.435,16.012,4.3,15.468,4.3,17.315,2.945,8.914,4.185,9.425,1.868,4.507,2.169,5.225,1.23,10.027,1.23,10.027,11.573-.718,11.779-2.56-2.56-10.85-2.56-10.85a20.86,20.86,0,0,1-2.3-6.66c-.259-2.966-1.9-4.3-1.583-6.333s-.924-3.077-.924-4.407a32.926,32.926,0,0,0-.918-4.918s-1.947-1.536-1.641-3.378-2.765-5.531-1.947-6.861,1.024-4.607,1.024-4.607,1.024-14.777,1.741-18.75S916,470.6,916,470.6,915.99,470.391,915.98,470.064Z" transform="translate(-417.159 -206.962)"/><path class="f" d="M914.427,534.5c-2.823,3.008-6.861,3.636-10.027,3.451-.364-1.4-.9-3.114-1.689-3.441-1.24-.528-4.185-7.578-4.185-9.42s-3.167-13.32-4.3-17.315-1.435-16.011-1.435-16.011-1.056-17.9,1.314-24.978a.688.688,0,0,1,.069-.216c3.6-10.439,19.046-8.154,19.484,2.881v.528s-4.222,6.454-4.913,10.449S907,499.173,907,499.173s-.206,3.282-1.024,4.612,2.253,5.019,1.947,6.861,1.636,3.378,1.636,3.378a32.624,32.624,0,0,1,.923,4.919c0,1.335,1.23,2.354.924,4.406s1.335,3.378,1.583,6.333A16.547,16.547,0,0,0,914.427,534.5Z" transform="translate(-416.243 -207.294)"/><path class="g" d="M914.814,469.481c-.438-11.035-15.874-13.32-19.479-2.881a.88.88,0,0,1-.074.216c-2.354,7.066-1.33,24.962-1.33,24.962s.306,12.017,1.43,16.012,4.306,15.479,4.306,17.315,2.939,8.908,4.185,9.42,1.868,4.512,2.169,5.225,1.224,10.027,1.224,10.027,11.579-.718,11.779-2.565-2.56-10.856-2.56-10.856a21,21,0,0,1-2.3-6.66c-.264-2.966-1.9-4.3-1.583-6.333s-.923-3.077-.923-4.407a32.759,32.759,0,0,0-.924-4.918s-1.947-1.536-1.636-3.378-2.771-5.536-1.947-6.861,1.024-4.607,1.024-4.607,1.024-14.777,1.741-18.75,4.918-10.449,4.918-10.449S914.83,469.808,914.814,469.481Z" transform="translate(-416.639 -206.711)"/><path class="f" d="M897.67,527.41c.306-.306,6.148-6.76,7.99-4.454S897.67,527.41,897.67,527.41Z" transform="translate(-419.008 -237.672)"/><path class="f" d="M898.69,537.321c.227-.227,5.837-.459,7.219-3.61S898.69,537.321,898.69,537.321Z" transform="translate(-419.495 -242.245)"/><g class="l" transform="translate(471.353 205.819)"><path d="M885.528,431.78a1.55,1.55,0,0,1,.306.554,2.4,2.4,0,0,0-.306-2.111c-.274-.317-.675-.5-.923-.834,0-.026-.032-.058-.053-.09a1.583,1.583,0,0,0,.053,1.625C884.853,431.253,885.254,431.443,885.528,431.78Z" transform="translate(-884.353 -403.773)"/><path d="M900.851,389c0-.586.026-1.166,0-1.742-.111-2.111-.5-4.222-.586-6.333-.121,2.565.449,5.277.586,7.869Z" transform="translate(-891.859 -380.93)"/></g><path class="k" d="M1004.2,476.823l.317.222a1.277,1.277,0,0,1-.327-1.768l14.249-20.666a1.267,1.267,0,0,1,1.763-.322l-.311-.222a2.037,2.037,0,0,1,.528,2.834l-13.362,19.4a2.037,2.037,0,0,1-2.855.522Z" transform="translate(-463.261 -207.136)"/><path class="m" d="M.919,0H1.33V27.632H.919A.918.918,0,0,1,0,26.714V.939A.918.918,0,0,1,.918,0Z" transform="translate(555.915 246.389) rotate(34.56)"/><rect class="k" width="0.259" height="2.253" rx="0.129" transform="translate(554.888 249.481) rotate(34.56)"/><path class="f" d="M930.268,376.322c-.227-1.1-1.129-1.91-1.752-2.85-1.552-2.338-1.309-5.43-.586-8.143a5.8,5.8,0,0,0,.333-2.311,3.657,3.657,0,0,0-1.71-2.4c-1.905-1.251-4.349-1.267-6.486-2.058-3.108-1.15-5.921-3.984-9.161-3.3-1.773.375-3.135,1.747-4.665,2.713A11.246,11.246,0,0,1,900.6,359.7a38,38,0,0,0-5.024,0,5.066,5.066,0,0,0-.871.238,13.077,13.077,0,0,0-4.364-.7,7.336,7.336,0,0,0-4.116,1.15c-2.232,1.583-2.829,4.618-2.792,7.346s.5,5.541-.343,8.138c-1.055,3.235-3.969,5.7-4.56,9.045-.4,2.275.348,4.57,1.018,6.781,1.921,6.333,3.193,13.362.644,19.489a6.879,6.879,0,0,1-3.167,3.8l5.415-.322a2.945,2.945,0,0,1-2.47,3.356,12.569,12.569,0,0,0,3.974-.913,4.222,4.222,0,0,0,2.507-3.029,16.028,16.028,0,0,1,.153-2.206c.354-1.219,1.583-1.889,2.612-2.67,2.639-2.058,3.895-5.525,3.995-8.877a31.821,31.821,0,0,0-1.736-9.863,41.2,41.2,0,0,1-2.111-9.805,12.883,12.883,0,0,1,.338-3.647,11.667,11.667,0,0,0,.639,1.055c1.309,1.995,2.839,3.889,3.641,6.138a17.8,17.8,0,0,0,1.14,3.1,2.872,2.872,0,0,0,2.686,1.583c1.1-.153,1.905-1.346,2.269-2.465a11.975,11.975,0,0,1,1.2-3.293c1.288-1.8,3.863-1.968,6.08-1.9,4.67.148,11.114.855,14.777-2.734.7-.681,1.055-1.72,2.111-1.467.971.227,1.515,1.81,2.554,2.164A2.7,2.7,0,0,0,930.268,376.322Z" transform="translate(-408.133 -162.805)"/><path class="k" d="M930.268,375.192c-.227-1.1-1.129-1.916-1.752-2.85-1.552-2.343-1.309-5.436-.586-8.143a5.8,5.8,0,0,0,.333-2.311,3.657,3.657,0,0,0-1.71-2.4c-1.905-1.251-4.349-1.272-6.486-2.058-3.108-1.15-5.921-3.984-9.161-3.3-1.773.375-3.135,1.747-4.665,2.713a11.3,11.3,0,0,1-5.636,1.726,38.006,38.006,0,0,0-5.024,0,5.069,5.069,0,0,0-.871.238,13.077,13.077,0,0,0-4.364-.7,7.388,7.388,0,0,0-4.116,1.145c-2.232,1.583-2.829,4.623-2.792,7.351s.5,5.541-.343,8.138c-1.055,3.235-3.969,5.7-4.56,9.045-.4,2.275.348,4.57,1.018,6.781,1.921,6.333,3.193,13.362.644,19.484a6.872,6.872,0,0,1-3.167,3.8l5.415-.322a2.94,2.94,0,0,1-2.47,3.351,12.423,12.423,0,0,0,3.974-.908,4.222,4.222,0,0,0,2.507-3.029,16.028,16.028,0,0,1,.153-2.206c.354-1.219,1.583-1.889,2.612-2.67,2.639-2.058,3.895-5.525,3.995-8.877a31.794,31.794,0,0,0-1.736-9.863,41.145,41.145,0,0,1-2.111-9.805,12.884,12.884,0,0,1,.338-3.647,11.667,11.667,0,0,0,.639,1.055c1.309,1.995,2.839,3.889,3.641,6.138a17.6,17.6,0,0,0,1.14,3.093,2.863,2.863,0,0,0,2.686,1.583c1.1-.158,1.905-1.34,2.269-2.459a11.975,11.975,0,0,1,1.2-3.293c1.288-1.8,3.863-1.968,6.08-1.9,4.67.148,11.114.855,14.777-2.734.7-.681,1.055-1.72,2.111-1.467.971.227,1.515,1.81,2.554,2.164A2.7,2.7,0,0,0,930.268,375.192Z" transform="translate(-408.133 -162.317)"/><g class="l" transform="translate(468.912 199.473)"><path d="M889.2,375.9v1.055c0,1.14.095,2.3.137,3.441C889.385,378.919,889.253,377.4,889.2,375.9Z" transform="translate(-882.793 -371.81)"/><path d="M882.878,428.543a40,40,0,0,0-2.053-12.666,24.021,24.021,0,0,1-1.055-4.507,16.7,16.7,0,0,0,1.055,6.3A43.529,43.529,0,0,1,882.878,428.543Z" transform="translate(-878.319 -388.561)"/><path d="M972.456,373.844a16.989,16.989,0,0,1,.528-2.976,5.8,5.8,0,0,0,.333-2.311,2.541,2.541,0,0,0-.1-.406c-.063.311-.148.617-.232.924a14.061,14.061,0,0,0-.528,4.771Z" transform="translate(-922.1 -368.15)"/><path d="M882.475,463.45l-3.272.19a5.437,5.437,0,0,1-2.143,1.921l5.108-.3a2.744,2.744,0,0,0,.306-1.81Z" transform="translate(-877.06 -413.157)"/><path d="M941.148,392.672a2.834,2.834,0,0,1-3.33,1.557c-1.055-.354-1.583-1.937-2.554-2.164-1.055-.253-1.414.792-2.111,1.472-3.657,3.583-10.1,2.876-14.777,2.728-2.216-.069-4.792.095-6.08,1.9a11.368,11.368,0,0,0-1.2,3.3,3.27,3.27,0,0,1-2.269,2.459,2.764,2.764,0,0,1-2.686-1.583,17.94,17.94,0,0,1-1.14-3.092c-.8-2.248-2.333-4.148-3.641-6.143-.227-.338-.443-.7-.639-1.055a12.9,12.9,0,0,0-.338,3.652v.259a11.833,11.833,0,0,1,.317-2.111,11.627,11.627,0,0,0,.639,1.055c1.309,1.995,2.839,3.889,3.641,6.138a17.6,17.6,0,0,0,1.14,3.092,2.863,2.863,0,0,0,2.686,1.583c1.1-.158,1.905-1.34,2.269-2.459a11.978,11.978,0,0,1,1.2-3.293c1.288-1.8,3.863-1.968,6.08-1.9,4.67.148,11.114.855,14.777-2.734.7-.681,1.056-1.72,2.111-1.467.971.227,1.515,1.81,2.554,2.164,1.7.575,3.858-1.008,3.472-2.887a3.641,3.641,0,0,0-.121-.47Z" transform="translate(-888.068 -379.426)"/><path d="M891.886,445.416c-1,.781-2.259,1.451-2.612,2.67a16.124,16.124,0,0,0-.153,2.206,4.222,4.222,0,0,1-2.507,3.035,7.964,7.964,0,0,1-1.557.528,2.95,2.95,0,0,1-2.417,2.169,12.424,12.424,0,0,0,3.974-.908,4.222,4.222,0,0,0,2.507-3.029,16.066,16.066,0,0,1,.153-2.206c.354-1.219,1.583-1.889,2.612-2.67,2.639-2.058,3.895-5.525,3.995-8.877V436.84C895.691,440.091,894.44,443.421,891.886,445.416Z" transform="translate(-879.695 -400.59)"/></g><path class="n" d="M355.625,591.414h.121s-19.379-52.552-24.8-59.692c0,0-5.684-3.319-5.425-8.929l-6.971-33.448s.106-.1.28-.29l.148-.164c.053-.058.111-.121.169-.2a15.719,15.719,0,0,0,2.317-3.573c.037-.084.079-.164.116-.248a13.434,13.434,0,0,0,.649-1.8,1.974,1.974,0,0,0,1.488-.079v-.5h0s-.069-1.979-.074-5.072v-2.8a24.81,24.81,0,0,0,.554-2.438l-.285-.132a.2.2,0,0,1,.026-.121l-.237-.111c.19-7.336.823-16.708,2.639-23.094.063-.227.127-.449.2-.67,2.153-6.971,2.2-15.484,2.755-22.693a22.28,22.28,0,0,1,1.119,2.786,4.22,4.22,0,0,1,.939-.776l2.164,17.1V464.62s-3.62,26.023,7.747,21.178,3.1-22.693,3.1-22.693,0-9.948,1.552-15.051c1.019-3.356.359-14.249-.211-21.263,1.087.2,1.757.348,1.757.348a11.77,11.77,0,0,0,.338-3.13c.232-11.758-14.455-30.714-20.445-37.944a17.109,17.109,0,0,0-6.9-5.984l-11.489-5.494s-5.409-1.346-7.52-5.462a1.174,1.174,0,0,0-.053-.216c.238-.106.475-.216.707-.338A12.76,12.76,0,0,0,306.587,365c2.449-3.071,3.615-6.919,4.75-10.666,1.314-4.4,2.639-8.9,2.465-13.494s-2.111-9.362-6.074-11.8c-3.372-2.079-8.069-2.475-10.159-5.805a13.367,13.367,0,0,0-1.662-2.691.633.633,0,0,0-.528-.649l-5.858-1.129a.639.639,0,0,0-.744.5v.079a35.359,35.359,0,0,0-14.866,3.731,34.333,34.333,0,0,0-4.707,2.744c-2.111,1.488-4.222,3.451-4.517,6.006-.153,1.272.158,2.575-.106,3.821-.7,3.335-5.219,5.5-4.56,8.845.443,2.269,3.045,3.246,5.478,3.251a17.944,17.944,0,0,0-.681,4.882,18.18,18.18,0,0,0,14.624,17.737,51.789,51.789,0,0,1,4.639,7.8c-2.976,2.792-9.209,9.272-5.388,11.452L270.775,409l.77,20-3.351,2.961.734.908c-3.752,4.317-12.449,13.758-18.8,16.27a19.535,19.535,0,0,0-2.639,1.288,10.838,10.838,0,0,1-3.81,1.472,10.307,10.307,0,0,0-1.747.333l-1.515-3.108a2.28,2.28,0,0,0-3.029-1.056l-.929.443h0l-2.211,1.056-.918.438h0l-.7.333a2.232,2.232,0,0,0-1.055,2.992l1.837,3.763c-2.612,2.275-3.889,4.992-.332,7.515a7.837,7.837,0,0,0,4.75,1.478l1.119,2.285a2.274,2.274,0,0,0,3.024,1.055l1.62-.77,3.166-1.493a2.222,2.222,0,0,0,1.055-2.987l-.918-1.884a37.176,37.176,0,0,0,5.615-5.32s4.713-2.918,7.489-3.568c1.842-.433,8.307-4.618,12.286-7.267l1.135,29.458a6.593,6.593,0,0,1-.876,1.055l.892-.623v.216c-.132.148-.259.285-.385.406l.385-.274v.354a3.926,3.926,0,0,1-.4.427l.406-.285.116,3.061,1.947-3.166.121,3.166.454-.744c-5.457,9.156-12.565,22.635-16.36,36.2,0,0-5.937,10.2-5.167,20.661l-10.924,51.771.211.079c-3.541,2.517-10.982,7.135-18.291,7.32,0,0-17.568-.528-12.666,3.314s48.552,9.441,48.552,9.441l1.678-12.9.391.143a1.093,1.093,0,0,0-.026-.2l.528.2s-1.055-6.38,2.839-9.948,12.919-39.8,12.138-45.385c0,0,6.934-17.115,15.616-30.762l10.217,25.917,11.367,19.389s15.12,33.195,14.634,40.593c-3.166,3.831-8.855,9.832-13.083,9.658,0,0-17.31,3.32-5.425,6.38s46.757-8.444,46.757-8.444ZM279.942,472.721l.106-.058c-.528.818-1.113,1.731-1.736,2.728Z" transform="translate(-109.715 -129.093)"/><path class="o" d="M325.93,617.91c-.427.3-.66.475-.66.475A2.754,2.754,0,0,0,325.93,617.91Z" transform="translate(-161.964 -279.597)"/><path class="p" d="M326.91,618.87l-.66.48a2.787,2.787,0,0,0,.66-.48Z" transform="translate(-162.404 -280.016)"/><path class="o" d="M326.91,617.91c-.427.3-.66.475-.66.475A2.754,2.754,0,0,0,326.91,617.91Z" transform="translate(-162.404 -279.597)"/><path class="q" d="M417.62,834.468s-9.067,12.845-15.109,12.592c0,0-16.888,3.272-5.277,6.3s45.591-8.312,45.591-8.312l-4.042-13.193Z" transform="translate(-191.745 -371.407)"/><path class="r" d="M362.67,638.517l12.84,32.994,11.082,19.141s15.241,33.875,14.249,40.425l24.276-3.905s-18.888-51.882-24.176-58.932c0,0-5.541-3.277-5.277-8.818l-6.8-32.968s6.613-6.38,2.918-14.376a13.421,13.421,0,0,0-.654-1.24c-5.035-8.56-24.176-3.779-24.176-3.779Z" transform="translate(-177.906 -264.618)"/><path class="s" d="M362.67,638.517l12.84,32.994,11.082,19.141s15.241,33.875,14.249,40.425l24.276-3.905s-18.888-51.882-24.176-58.932c0,0-5.541-3.277-5.277-8.818l-6.8-32.968s6.613-6.38,2.918-14.376a13.421,13.421,0,0,0-.654-1.24c-5.035-8.56-24.176-3.779-24.176-3.779Z" transform="translate(-177.906 -264.618)"/><g class="l" transform="translate(200.207 341.109)"><path d="M414.355,668.238s-5.541-3.277-5.277-8.819l-6.813-32.968s6.613-6.38,2.918-14.375a13.413,13.413,0,0,0-.654-1.24c-2.443-4.153-8.2-5.167-13.489-5.109,5.072.047,10.407,1.156,12.734,5.109a12.172,12.172,0,0,1,.649,1.24c3.694,8-2.913,14.376-2.913,14.376l6.8,32.994c-.248,5.541,5.277,8.818,5.277,8.818,5.277,7.051,24.176,58.932,24.176,58.932l-23.521,3.747v.121l24.276-3.905S419.643,675.289,414.355,668.238Z" transform="translate(-391.04 -605.726)"/></g><path class="q" d="M248.6,826.31s-10.074,8.56-19.9,8.813c0,0-17.125-.528-12.344,3.277s47.354,9.315,47.354,9.315l1.895-14.708Z" transform="translate(-112.247 -368.791)"/><g class="l" transform="translate(136.382 337.163)"><path d="M313.649,601.489s-16.624,23.421-23.173,47.1c0,0-5.805,10.074-5.035,20.4L274.86,720.114l19.394,7.3s-1.008-6.3,2.771-9.821,12.592-39.29,11.837-44.831c0,0,12.09-30.223,24.181-42.061s18.1-14.571,19.88-24.8C352.923,605.912,324.478,592.169,313.649,601.489Z" transform="translate(-274.86 -598.248)"/></g><path class="r" d="M312.712,601.489s-16.624,23.421-23.168,47.1c0,0-5.805,10.074-5.04,20.4L273.95,720.114l19.368,7.3s-1-6.3,2.771-9.821,12.6-39.29,11.837-44.831c0,0,12.09-30.223,24.181-42.061s18.107-14.571,19.885-24.8C351.992,605.912,323.541,592.169,312.712,601.489Z" transform="translate(-138.072 -261.085)"/><g class="l" transform="translate(155.302 336.913)"><path d="M340.227,597.778c12.486.148,28.033,7.663,28.033,7.663-1.779,10.217-7.795,12.951-19.88,24.8S324.2,672.3,324.2,672.3c.755,5.541-8.059,41.306-11.837,44.831-3.288,3.071-2.95,8.238-2.808,9.526l.792.3s-1.008-6.3,2.771-9.821,12.592-39.29,11.837-44.831c0,0,12.09-30.223,24.181-42.061s18.107-14.571,19.88-24.8C369.015,605.441,352.829,597.62,340.227,597.778Z" transform="translate(-309.471 -597.775)"/></g><path class="e" d="M289.2,535.18s-12.022,14.972-20.138,18.223a19.537,19.537,0,0,0-2.586,1.267,10.491,10.491,0,0,1-3.694,1.457,8.938,8.938,0,0,0-2.813.739c-4.222,1.942-13.948,7.2-7.526,11.816,8.059,5.805,18.888-7.557,18.888-7.557s4.6-2.881,7.3-3.525,15.109-9.32,15.109-9.32Z" transform="translate(-127.882 -241.935)"/><path class="g" d="M295.387,512.85l-4.787,4.28,7.051,8.813Z" transform="translate(-130.542 -223.791)"/><g class="l" transform="translate(160.058 289.059)"><path d="M295.387,512.85l-4.787,4.28,7.051,8.813Z" transform="translate(-290.6 -512.85)"/></g><path class="g" d="M338.4,434.48s-11.462,9.826-6.66,12.6L324,466.218l2.665,70.015L337.594,518.1l-7.467-39.29s-2.111-23.421,4-28.962l5.863-11.61Z" transform="translate(-161.217 -195.217)"/><g class="l" transform="translate(164.37 235.457)"><path d="M341.277,427.83s-11.462,9.826-6.665,12.6l-7.731,19.157,2.665,70.015,10.929-18.133-7.462-39.306s-2.111-23.421,3.995-28.962l5.868-11.61Z" transform="translate(-326.88 -427.83)"/></g><path class="e" d="M334.52,403.394s9.32,11.331,9.066,17.88,17.632-11.33,17.632-11.33-6.8-8.312-5.04-17.13S334.52,403.394,334.52,403.394Z" transform="translate(-165.807 -179.163)"/><path class="e" d="M435.22,519.621l2.523,20.17v19.9s-3.525,25.69,7.557,20.9,3-22.434,3-22.434,0-9.826,1.515-14.861-.755-27.2-.755-27.2Z" transform="translate(-211.146 -232.193)"/><path class="t" d="M352.7,432.58s-6.771,6.555-10.323,4.28l-4.834,12.017a55.285,55.285,0,0,0-3.932,23.162l1.71,45.417,7.557-1.008,2.523-43.069,3.779-26.192Z" transform="translate(-165.466 -195.249)"/><g class="l" transform="translate(164.384 231.213)"><path d="M354.766,419.45s-8.94,6.169-11.457,11.462c0,0-.253,5.805-2.269,8.312s-4.027,15.109-4.533,30.223-2.771,35.258-2.771,35.258-3.779,19.648-7.805,21.637c0,0,18.634-14.1,27.7-9.315s19.394,16.36,22.418,14.608c0,0-.728-22.075,2.575-33.849.063-.222.127-.443.2-.66,3.525-11.584,1.261-27.442,5.277-34.25,0,0,0-12.312-2.322-21.505a16.618,16.618,0,0,0-8.892-10.85l-11.188-5.4S355.774,424.237,354.766,419.45Z" transform="translate(-325.93 -419.45)"/></g><g class="l" transform="translate(164.909 231.241)"><path d="M355.214,419.45s-8.444,6.676-10.956,11.964c0,0-.253,5.805-2.264,8.312s-4.032,15.114-4.533,30.223-2.771,35.284-2.771,35.284-3.779,19.642-7.811,21.637c0,0,18.64-14.106,27.706-9.32S373.98,533.911,377,532.159c0,0-.723-22.07,2.581-33.844.063-.227.127-.443.19-.66,3.531-11.61,1.261-27.442,5.277-34.255,0,0,0-12.312-2.327-21.5a16.608,16.608,0,0,0-8.887-10.856l-11.2-5.425S356.222,424.237,355.214,419.45Z" transform="translate(-326.88 -419.45)"/></g><path class="g" d="M355.088,419.21s-8.312,6.3-10.829,11.61c0,0-.253,5.805-2.264,8.312s-4.032,15.109-4.533,30.224-2.771,35.237-2.771,35.237-3.779,19.648-7.811,21.637c0,0,18.64-14.1,27.706-9.315S373.98,533.275,377,531.523c0,0-.723-22.075,2.581-33.849l.19-.66c3.531-11.584,1.261-27.442,5.277-34.25,0,0,0-12.312-2.327-21.505a16.6,16.6,0,0,0-8.887-10.85l-11.2-5.425S356.977,423.617,355.088,419.21Z" transform="translate(-161.971 -188.128)"/><g class="l" transform="translate(203.503 241.975)"><path d="M411.4,445.541s25.564,29.089,22.038,42.942c0,0-13.1-3.019-16.624,1.008,0,0-2.771-9.32-11.082-14.608S389.765,435.72,411.4,445.541Z" transform="translate(-397.326 -443.765)"/></g><path class="g" d="M411.4,444.589s25.564,29.089,22.038,42.942c0,0-13.1-3.024-16.624,1.008,0,0-2.771-9.32-11.082-14.608S389.765,434.763,411.4,444.589Z" transform="translate(-193.823 -201.376)"/><g class="l" transform="translate(169.726 212.22)"><path d="M357.727,399.609c-.4-2.032-.063-2.185.38-4.407,1.763-8.813-21.637,10.555-21.637,10.555s1.3,1.583,2.918,3.916a17.859,17.859,0,0,0,3.626.369C349.415,410.064,354.571,404.66,357.727,399.609Z" transform="translate(-336.47 -392.904)"/></g><circle class="e" cx="17.88" cy="17.88" r="17.88" transform="translate(156.974 191.533)"/><g class="l" transform="translate(152.209 176.148)"><path d="M310.61,355.069c-2.639.354-5.99-.528-6.5-3.135-.639-3.293,3.768-5.441,4.449-8.729.259-1.235-.047-2.523.1-3.773.3-2.523,2.333-4.465,4.407-5.927a33.9,33.9,0,0,1,22.555-6.011,5.035,5.035,0,0,1,2.792.881,10.361,10.361,0,0,1,1.794,2.829c2.042,3.3,6.618,3.694,9.906,5.742,3.847,2.4,5.747,7.114,5.921,11.647s-1.119,8.972-2.4,13.325c-1.087,3.694-2.227,7.494-4.612,10.523s-6.333,5.151-10.1,4.222c1.72-1.24.475-4.111-1.388-5.119s-4.169-1.182-5.758-2.57-2.069-3.668-2.591-5.736c-.654-2.639-1.583-5.277-3.5-7.172C321.967,352.34,315.2,354.451,310.61,355.069Z" transform="translate(-304.051 -327.354)"/></g><path class="k" d="M311.565,354.589c-2.639.359-5.99-.528-6.5-3.129-.639-3.3,3.768-5.441,4.454-8.734.253-1.235-.053-2.517.1-3.773.3-2.523,2.338-4.459,4.412-5.926a33.912,33.912,0,0,1,22.55-6.011,5.04,5.04,0,0,1,2.792.887,10.268,10.268,0,0,1,1.8,2.823c2.037,3.3,6.618,3.694,9.906,5.742,3.842,2.4,5.747,7.119,5.916,11.647s-1.119,8.972-2.4,13.325c-1.092,3.694-2.227,7.5-4.618,10.528s-6.333,5.145-10.09,4.222c1.715-1.235.47-4.111-1.388-5.119s-4.169-1.177-5.763-2.57-2.069-3.668-2.586-5.736c-.654-2.612-1.583-5.277-3.5-7.167C322.9,351.861,316.151,353.972,311.565,354.589Z" transform="translate(-152.266 -150.999)"/><path class="g" d="M356.23,335.922l1.62-8.3a.617.617,0,0,0-.491-.723l-5.71-1.113a.612.612,0,0,0-.723.486l-1.62,8.291-5.536,20.476,10.148,1.99Z" transform="translate(-170.116 -151.041)"/><g class="l" transform="translate(152.692 185.872)"><path d="M313.19,351.959a5.684,5.684,0,0,0,.792-1.852c.253-1.235-.053-2.523.095-3.773a5.679,5.679,0,0,1,.322-1.3,6.032,6.032,0,0,0-.918,2.5c-.148,1.256.158,2.538-.1,3.773A3.952,3.952,0,0,1,313.19,351.959Z" transform="translate(-308.884 -345.03)"/><path d="M381.787,407.774c-2.348,2.987-6.227,5.077-9.921,4.269a1.921,1.921,0,0,1-.765,1.161c3.747.913,7.7-1.2,10.09-4.222a18.414,18.414,0,0,0,2.248-3.752A16.752,16.752,0,0,1,381.787,407.774Z" transform="translate(-336.233 -373.46)"/><path d="M340.69,394.113c1.409-1.309.2-3.979-1.583-4.945-1.863-1.008-4.169-1.182-5.763-2.57s-2.069-3.668-2.586-5.742c-.654-2.612-1.583-5.277-3.5-7.167-3.742-3.742-10.491-1.631-15.077-1.013-2.639.354-5.99-.528-6.5-3.135a3.436,3.436,0,0,1,.148-1.842,4.085,4.085,0,0,0-.749,3.04c.528,2.607,3.868,3.488,6.5,3.129,4.586-.617,11.336-2.728,15.077,1.019a15.107,15.107,0,0,1,3.5,7.167c.528,2.069.976,4.333,2.586,5.736s3.9,1.583,5.763,2.57A4.193,4.193,0,0,1,340.69,394.113Z" transform="translate(-305.031 -355.736)"/></g><g class="l" transform="translate(168.732 201.1)"><circle cx="8.813" cy="8.813" r="8.813"/></g><circle class="g" cx="8.813" cy="8.813" r="8.813" transform="translate(168.732 201.371)"/><circle class="q" cx="5.773" cy="5.773" r="5.773" transform="translate(171.832 204.44)"/><circle class="g" cx="1.763" cy="1.763" r="1.763" transform="translate(175.92 208.489)"/><rect class="u" width="7.051" height="0.253" transform="translate(179.499 182.576) rotate(11.05)"/><rect class="v" width="8.565" height="20.904" rx="4.283" transform="translate(121.848 314.231) rotate(-25.74)"/><rect class="r" width="8.565" height="20.904" rx="1.45" transform="translate(121.848 314.231) rotate(-25.74)"/><rect class="g" width="8.813" height="20.904" rx="1.64" transform="translate(122.556 313.881) rotate(-25.74)"/><rect class="t" width="6.66" height="15.869" transform="translate(124.219 314.649) rotate(-25.74)"/><ellipse class="t" cx="0.755" cy="1.008" rx="0.755" ry="1.008" transform="translate(134.198 328.87) rotate(-25.74)"/><g class="l" transform="translate(184.015 312.853)"><path d="M362.4,573.189a28.929,28.929,0,0,1,10.344,2.037c5.277,2.143,10.866,0,10.866,0S367.693,570.608,362.4,573.189Z" transform="translate(-362.4 -572.405)"/></g><path class="g" d="M698.552,754.23s3.282,4.291-1.515,10.771-8.75,11.948-7.151,15.985c0,0,7.235-12.032,13.125-12.2S705.033,761.465,698.552,754.23Z" transform="translate(-325.295 -334.75)"/><path class="f" d="M698.72,754.23a5.278,5.278,0,0,1,.67,1.346c5.747,6.75,8.813,13.051,3.288,13.193-5.145.148-11.32,9.352-12.8,11.674a4.756,4.756,0,0,0,.174.528s7.235-12.032,13.125-12.2S705.2,761.465,698.72,754.23Z" transform="translate(-325.459 -334.75)"/><path class="w" d="M717.515,763.725c0,1.515-.169,2.739-.375,2.739s-.38-1.224-.38-2.739.211-.8.422-.8S717.515,762.215,717.515,763.725Z" transform="translate(-337.937 -338.777)"/><path class="w" d="M719.844,767.075c-1.325.723-2.48,1.161-2.581.976s.892-.918,2.217-1.641.807-.2.908,0S721.169,766.357,719.844,767.075Z" transform="translate(-338.092 -340.327)"/><path class="g" d="M667.2,754.23s-3.282,4.291,1.515,10.771,8.75,11.948,7.151,15.985c0,0-7.235-12.032-13.125-12.2S660.719,761.465,667.2,754.23Z" transform="translate(-311.967 -334.75)"/><path class="f" d="M667.2,754.23a5.278,5.278,0,0,0-.67,1.346c-5.747,6.75-8.808,13.051-3.283,13.193,5.145.148,11.315,9.352,12.792,11.674a4.756,4.756,0,0,1-.174.528s-7.235-12.032-13.125-12.2S660.719,761.465,667.2,754.23Z" transform="translate(-311.972 -334.75)"/><path class="w" d="M662.23,763.725c0,1.515.169,2.739.38,2.739s.38-1.224.38-2.739-.216-.8-.422-.8S662.23,762.215,662.23,763.725Z" transform="translate(-313.426 -338.777)"/><path class="w" d="M657.54,767.075c1.33.723,2.486,1.161,2.586.976s-.9-.918-2.222-1.641-.8-.2-.9,0S656.215,766.357,657.54,767.075Z" transform="translate(-310.893 -340.327)"/><path class="x" d="M664.21,799.433s9.177-.285,11.943-2.253,14.112-4.317,14.777-1.161,13.784,15.705,3.43,15.79-24.07-1.615-26.83-3.3S664.21,799.433,664.21,799.433Z" transform="translate(-313.468 -353.756)"/><path class="y" d="M694.565,815.133c-10.36.084-24.07-1.61-26.83-3.293-2.111-1.277-2.939-5.874-3.219-7.99h-.306s.581,7.388,3.341,9.077,16.471,3.383,26.83,3.3c2.987-.026,4.021-1.087,3.963-2.665C697.932,814.521,696.787,815.117,694.565,815.133Z" transform="translate(-313.467 -358.183)"/><path class="g" d="M616.777,809.731a4.888,4.888,0,0,0,1.583-2.417,2.144,2.144,0,0,0-1.119-2.454c-1.055-.4-2.111.317-2.955,1.055s-1.789,1.541-2.876,1.388a4.369,4.369,0,0,0,1.351-4.1,1.721,1.721,0,0,0-.375-.834c-.57-.607-1.583-.343-2.285.137-2.169,1.525-2.776,4.47-2.786,7.125a13.281,13.281,0,0,1-.042-2.934,3.01,3.01,0,0,0-1.1-2.6,3.274,3.274,0,0,0-1.678-.4,3.457,3.457,0,0,0-2.728.776,2.709,2.709,0,0,0,.106,3.346,10.78,10.78,0,0,0,2.823,2.264,6.174,6.174,0,0,1,2.016,1.926,1.581,1.581,0,0,1,.153.343h6.117A17,17,0,0,0,616.777,809.731Z" transform="translate(-285.641 -357.32)"/><path class="z" d="M550.062,753.261s-5.868-19.911,1.1-34.567a31.447,31.447,0,0,0,2.528-19.732A53.4,53.4,0,0,0,550.9,689.7" transform="translate(-261.853 -304.275)"/><path class="g" d="M554.09,668.329c0,2.438-4.422,9.5-4.422,9.5s-4.417-7.077-4.417-9.5a4.422,4.422,0,0,1,8.84,0Z" transform="translate(-260.684 -299.105)"/><path class="g" d="M567.842,691.656c-1.33,2.053-8.882,5.589-8.882,5.589s.137-8.344,1.462-10.391a4.419,4.419,0,1,1,7.42,4.8Z" transform="translate(-266.827 -308.244)"/><path class="g" d="M565.8,734.045c-2.18,1.1-10.486.343-10.486.343s4.327-7.135,6.507-8.233a4.418,4.418,0,1,1,3.979,7.89Z" transform="translate(-265.119 -321.267)"/><path class="g" d="M558.07,767.412c-1.963,1.451-10.28,2.111-10.28,2.111s3.061-7.763,5.024-9.214a4.427,4.427,0,0,1,5.277,7.109Z" transform="translate(-261.759 -337.209)"/><path class="g" d="M540.183,702.459c1.747,1.7,9.906,3.462,9.906,3.462s-2-8.1-3.747-9.8a4.417,4.417,0,1,0-6.159,6.333Z" transform="translate(-257.759 -312.698)"/><path class="g" d="M530.425,740.517c2.18,1.1,10.486.343,10.486.343s-4.327-7.135-6.507-8.233a4.43,4.43,0,0,0-3.979,7.916Z" transform="translate(-252.848 -324.324)"/><path class="g" d="M527.633,779.642c1.963,1.451,10.28,2.111,10.28,2.111s-3.061-7.763-5.024-9.214a4.425,4.425,0,1,0-5.277,7.1Z" transform="translate(-251.895 -342.984)"/><path class="g" d="M554.09,668.329c0,2.438-4.422,9.5-4.422,9.5s-4.417-7.077-4.417-9.5a4.422,4.422,0,0,1,8.84,0Z" transform="translate(-260.684 -299.105)"/><path class="g" d="M567.842,691.656c-1.33,2.053-8.882,5.589-8.882,5.589s.137-8.344,1.462-10.391a4.419,4.419,0,1,1,7.42,4.8Z" transform="translate(-266.827 -308.244)"/><path class="g" d="M565.8,734.045c-2.18,1.1-10.486.343-10.486.343s4.327-7.135,6.507-8.233a4.418,4.418,0,1,1,3.979,7.89Z" transform="translate(-265.119 -321.267)"/><path class="g" d="M558.07,767.412c-1.963,1.451-10.28,2.111-10.28,2.111s3.061-7.763,5.024-9.214a4.427,4.427,0,0,1,5.277,7.109Z" transform="translate(-261.759 -337.209)"/><path class="g" d="M540.183,702.459c1.747,1.7,9.906,3.462,9.906,3.462s-2-8.1-3.747-9.8a4.417,4.417,0,1,0-6.159,6.333Z" transform="translate(-257.759 -312.698)"/><path class="g" d="M530.425,740.517c2.18,1.1,10.486.343,10.486.343s-4.327-7.135-6.507-8.233a4.43,4.43,0,0,0-3.979,7.916Z" transform="translate(-252.848 -324.324)"/><path class="g" d="M527.633,779.642c1.963,1.451,10.28,2.111,10.28,2.111s-3.061-7.763-5.024-9.214a4.425,4.425,0,1,0-5.277,7.1Z" transform="translate(-251.895 -342.984)"/><path class="x" d="M525.86,801.527s7.14-1.42,9.045-3.309,10.476-5.2,11.426-2.839,12.856,10.4,4.75,11.821-19.041,1.889-21.421.945S525.86,801.527,525.86,801.527Z" transform="translate(-251.591 -353.797)"/><path class="y" d="M551.1,812.491c-8.1,1.42-19.046,1.889-21.426.945-1.815-.718-3.071-4.18-3.573-5.805l-.237.053s1.43,5.673,3.81,6.618,13.331.47,21.426-.945c2.333-.412,3-1.372,2.75-2.591C553.645,811.578,552.848,812.184,551.1,812.491Z" transform="translate(-251.591 -359.969)"/></g></svg>